<?xml version="1.0" standalone="no"?>
<!DOCTYPE svg PUBLIC "-//W3C//DTD SVG 20010904//EN"
 "http://www.w3.org/TR/2001/REC-SVG-20010904/DTD/svg10.dtd">
<svg version="1.0" xmlns="http://www.w3.org/2000/svg"
 width="32.000000pt" height="32.000000pt" viewBox="0 0 32.000000 32.000000"
 preserveAspectRatio="xMidYMid meet">

<g transform="translate(0.000000,32.000000) scale(0.100000,-0.100000)"
fill="#000000" stroke="none">
<path d="M0 160 l0 -160 160 0 160 0 0 160 0 160 -160 0 -160 0 0 -160z m259
76 c7 -9 11 -41 9 -83 l-3 -68 -105 0 -105 0 -3 68 c-2 42 2 74 9 83 16 20
182 20 198 0z"/>
<path d="M70 165 l0 -65 90 0 90 0 0 65 0 65 -90 0 -90 0 0 -65z m63 42 c3 -8
2 -20 -3 -27 -6 -10 -11 -10 -22 1 -11 10 -12 17 -4 26 14 16 23 16 29 0z m90
-14 c-7 -2 -21 -2 -30 0 -10 3 -4 5 12 5 17 0 24 -2 18 -5z"/>
</g>
</svg>
