<?xml version="1.0" standalone="no"?>
<!DOCTYPE svg PUBLIC "-//W3C//DTD SVG 20010904//EN"
 "http://www.w3.org/TR/2001/REC-SVG-20010904/DTD/svg10.dtd">
<svg version="1.0" xmlns="http://www.w3.org/2000/svg"
 width="120.000000pt" height="105.000000pt" viewBox="0 0 120.000000 105.000000"
 preserveAspectRatio="xMidYMid meet">
<metadata>
Created by potrace 1.15, written by Peter Selinger 2001-2017
</metadata>
<g transform="translate(0.000000,105.000000) scale(0.100000,-0.100000)"
fill="#000000" stroke="none">
<path d="M573 1018 c-40 -52 -554 -961 -551 -975 3 -17 35 -18 578 -18 567 0
575 0 578 20 1 11 -117 225 -276 500 -281 485 -299 511 -329 473z m275 -506
c133 -231 242 -422 242 -425 0 -4 -220 -7 -490 -7 -269 0 -490 3 -490 6 0 11
484 844 490 844 3 0 115 -188 248 -418z"/>
<path d="M555 698 c-17 -49 -92 -314 -90 -316 2 -2 31 11 65 28 34 17 64 29
67 27 2 -3 -1 -48 -8 -101 -12 -89 -14 -95 -29 -81 -16 14 -16 11 -8 -42 16
-100 13 -100 84 12 16 26 16 28 1 16 -24 -19 -23 -9 22 154 21 77 37 141 36
143 -1 2 -33 -14 -69 -34 -37 -20 -69 -35 -70 -33 -2 2 15 48 39 101 65 146
65 138 10 138 -27 0 -47 -5 -50 -12z"/>
</g>
</svg>
