<?xml version="1.0" standalone="no"?>
<!DOCTYPE svg PUBLIC "-//W3C//DTD SVG 20010904//EN"
 "http://www.w3.org/TR/2001/REC-SVG-20010904/DTD/svg10.dtd">
<svg version="1.0" xmlns="http://www.w3.org/2000/svg"
 width="32.000000pt" height="32.000000pt" viewBox="0 0 32.000000 32.000000"
 preserveAspectRatio="xMidYMid meet">

<g transform="translate(0.000000,32.000000) scale(0.100000,-0.100000)"
fill="#000000" stroke="none">
<path d="M4 307 c-2 -7 -3 -78 -2 -157 l3 -145 155 0 155 0 0 155 0 155 -153
3 c-119 2 -154 0 -158 -11z m296 -147 l0 -140 -140 0 -140 0 0 140 0 140 140
0 140 0 0 -140z"/>
<path d="M67 233 c-13 -12 -7 -25 9 -19 8 3 26 -2 40 -10 23 -15 26 -15 43 0
22 20 30 20 51 1 20 -18 50 -10 50 12 0 13 -3 13 -15 3 -13 -10 -19 -10 -33 4
-23 20 -46 21 -62 1 -12 -14 -15 -14 -30 0 -17 16 -42 20 -53 8z"/>
<path d="M67 173 c-15 -14 -6 -23 18 -17 15 4 25 2 25 -5 0 -15 43 -14 58 1 9
9 17 9 36 -2 25 -13 56 -8 56 8 0 5 -11 7 -25 4 -15 -2 -25 0 -25 7 0 16 -46
13 -60 -4 -12 -14 -15 -14 -30 0 -17 16 -42 20 -53 8z"/>
<path d="M67 113 c-14 -13 -6 -24 12 -18 11 3 29 0 40 -7 17 -10 25 -10 42 1
18 10 26 10 45 1 24 -14 54 -8 54 10 0 7 -8 9 -19 5 -11 -3 -22 -1 -26 5 -8
14 -41 13 -65 -2 -15 -10 -22 -10 -32 0 -13 13 -41 16 -51 5z"/>
</g>
</svg>
