<svg id="svg" version="1.1" xmlns="http://www.w3.org/2000/svg" xmlns:xlink="http://www.w3.org/1999/xlink" width="400" height="400" viewBox="0, 0, 400,400"><g id="svgg"><path id="path0" d="M146.400 50.000 C 146.400 50.220,146.130 50.400,145.800 50.400 C 145.470 50.400,145.200 50.551,145.200 50.736 C 145.200 50.920,144.750 51.277,144.200 51.527 C 143.650 51.778,143.200 52.183,143.200 52.427 C 143.200 52.672,142.795 53.200,142.300 53.601 C 141.006 54.649,140.930 61.901,142.200 63.066 C 142.640 63.470,143.343 64.475,143.763 65.300 C 144.183 66.125,144.658 66.800,144.820 66.800 C 144.981 66.800,145.226 67.250,145.364 67.800 C 145.502 68.350,145.792 68.800,146.008 68.800 C 146.223 68.800,146.400 69.141,146.400 69.557 C 146.400 69.974,146.670 70.418,147.000 70.545 C 147.330 70.671,147.600 71.121,147.600 71.545 C 147.600 71.968,147.851 72.411,148.158 72.528 C 148.464 72.646,149.126 73.565,149.628 74.571 C 150.131 75.577,150.690 76.400,150.871 76.400 C 151.052 76.400,151.200 76.850,151.200 77.400 C 151.200 78.022,150.973 78.400,150.600 78.400 C 150.270 78.400,150.000 78.562,150.000 78.761 C 150.000 78.959,149.458 79.311,148.795 79.542 C 148.132 79.773,147.483 80.241,147.352 80.581 C 147.221 80.921,146.780 81.200,146.371 81.200 C 145.963 81.200,145.433 81.565,145.194 82.011 C 144.955 82.457,144.589 82.717,144.380 82.588 C 144.171 82.458,144.000 82.531,144.000 82.749 C 144.000 82.968,143.640 83.260,143.200 83.400 C 142.760 83.540,142.400 83.922,142.400 84.251 C 142.400 84.579,142.220 84.736,142.000 84.600 C 141.780 84.464,141.600 84.501,141.600 84.682 C 141.600 84.862,141.198 85.188,140.707 85.405 C 140.216 85.622,139.609 86.216,139.358 86.725 C 139.107 87.234,138.788 87.639,138.651 87.625 C 137.887 87.548,137.688 87.689,137.273 88.600 C 137.022 89.150,136.543 89.600,136.209 89.600 C 135.874 89.600,135.600 89.874,135.600 90.209 C 135.600 90.543,135.146 91.024,134.590 91.277 C 134.035 91.530,133.476 92.155,133.348 92.666 C 133.220 93.177,132.962 93.500,132.775 93.384 C 132.588 93.269,132.113 93.675,131.718 94.287 C 131.324 94.899,130.596 95.813,130.101 96.318 C 129.605 96.823,129.200 97.458,129.200 97.730 C 129.200 98.001,128.847 98.478,128.415 98.789 C 127.983 99.101,127.518 99.862,127.382 100.481 C 127.246 101.100,126.970 101.505,126.767 101.380 C 126.565 101.255,126.400 101.433,126.400 101.776 C 126.400 102.119,126.223 102.400,126.008 102.400 C 125.792 102.400,125.502 102.850,125.364 103.400 C 125.226 103.950,124.953 104.400,124.757 104.400 C 124.560 104.400,124.400 104.670,124.400 105.000 C 124.400 105.330,124.236 105.600,124.035 105.600 C 123.834 105.600,123.549 106.321,123.400 107.202 C 123.243 108.131,122.785 109.045,122.312 109.377 C 121.819 109.722,121.590 110.197,121.735 110.574 C 121.867 110.919,121.801 111.200,121.587 111.200 C 121.374 111.200,121.200 111.465,121.200 111.788 C 121.200 112.111,120.837 113.023,120.392 113.814 C 119.948 114.605,119.681 115.408,119.799 115.598 C 119.917 115.789,119.830 116.058,119.607 116.196 C 119.383 116.334,119.200 116.887,119.200 117.424 C 119.200 117.961,119.020 118.400,118.800 118.400 C 118.580 118.400,118.400 119.015,118.400 119.767 C 118.400 120.518,118.221 121.193,118.003 121.267 C 117.785 121.340,117.488 122.795,117.344 124.500 C 117.200 126.205,116.929 127.600,116.741 127.600 C 116.554 127.600,116.400 128.950,116.400 130.600 L 116.400 133.600 200.000 133.600 L 283.600 133.600 283.600 130.600 C 283.600 128.950,283.446 127.600,283.259 127.600 C 283.071 127.600,282.800 126.205,282.656 124.500 C 282.512 122.795,282.215 121.340,281.997 121.267 C 281.779 121.193,281.600 120.518,281.600 119.767 C 281.600 119.015,281.443 118.400,281.251 118.400 C 281.059 118.400,280.787 117.682,280.647 116.805 C 280.507 115.928,280.045 114.592,279.620 113.835 C 279.195 113.079,278.727 111.817,278.579 111.030 C 278.432 110.244,278.151 109.600,277.955 109.600 C 277.760 109.600,277.600 109.319,277.600 108.976 C 277.600 108.633,277.436 108.454,277.235 108.578 C 277.035 108.702,276.749 108.083,276.600 107.202 C 276.451 106.321,276.166 105.600,275.965 105.600 C 275.764 105.600,275.600 105.330,275.600 105.000 C 275.600 104.670,275.420 104.400,275.200 104.400 C 274.980 104.400,274.800 104.130,274.800 103.800 C 274.800 103.470,274.609 103.200,274.376 103.200 C 274.143 103.200,274.064 103.020,274.200 102.800 C 274.336 102.580,274.257 102.400,274.024 102.400 C 273.791 102.400,273.600 102.130,273.600 101.800 C 273.600 101.470,273.432 101.200,273.227 101.200 C 273.022 101.200,272.726 100.795,272.570 100.300 C 272.413 99.805,271.951 99.109,271.543 98.753 C 271.134 98.397,270.800 97.910,270.800 97.671 C 270.800 97.432,270.395 96.823,269.899 96.318 C 269.404 95.813,268.676 94.899,268.282 94.287 C 267.887 93.675,267.412 93.269,267.225 93.384 C 267.038 93.500,266.773 93.146,266.635 92.597 C 266.497 92.049,266.114 91.600,265.784 91.600 C 265.453 91.600,264.978 91.150,264.727 90.600 C 264.477 90.050,264.027 89.600,263.727 89.600 C 263.428 89.600,262.979 89.153,262.731 88.608 C 262.482 88.062,261.955 87.513,261.560 87.387 C 261.164 87.262,260.730 86.809,260.594 86.380 C 260.458 85.952,259.909 85.492,259.373 85.358 C 258.838 85.223,258.400 84.953,258.400 84.757 C 258.400 84.560,258.100 84.400,257.733 84.400 C 257.367 84.400,257.181 84.286,257.320 84.147 C 257.603 83.864,255.894 82.400,255.280 82.400 C 255.063 82.400,254.782 82.130,254.655 81.800 C 254.529 81.470,254.054 81.200,253.600 81.200 C 253.146 81.200,252.666 80.916,252.533 80.569 C 252.400 80.223,251.910 79.773,251.445 79.570 C 248.352 78.222,247.757 76.813,249.600 75.200 C 249.977 74.870,250.413 74.195,250.570 73.700 C 250.726 73.205,251.022 72.800,251.227 72.800 C 251.432 72.800,251.600 72.530,251.600 72.200 C 251.600 71.870,251.791 71.600,252.024 71.600 C 252.257 71.600,252.336 71.420,252.200 71.200 C 252.064 70.980,252.143 70.800,252.376 70.800 C 252.609 70.800,252.800 70.596,252.800 70.347 C 252.800 70.098,253.134 69.603,253.543 69.247 C 253.951 68.891,254.413 68.195,254.570 67.700 C 254.726 67.205,255.022 66.800,255.227 66.800 C 255.432 66.800,255.600 66.530,255.600 66.200 C 255.600 65.870,255.791 65.600,256.024 65.600 C 256.257 65.600,256.336 65.420,256.200 65.200 C 256.064 64.980,256.143 64.800,256.376 64.800 C 256.609 64.800,256.800 64.596,256.800 64.347 C 256.800 64.098,257.132 63.603,257.537 63.247 C 258.416 62.475,258.499 62.007,258.532 57.634 C 258.554 54.598,258.471 54.212,257.678 53.686 C 257.195 53.365,256.800 52.851,256.800 52.543 C 256.800 52.235,256.350 51.778,255.800 51.527 C 255.250 51.277,254.800 50.920,254.800 50.736 C 254.800 50.551,254.530 50.400,254.200 50.400 C 253.870 50.400,253.600 50.220,253.600 50.000 C 253.600 49.763,252.133 49.600,250.000 49.600 C 247.867 49.600,246.400 49.763,246.400 50.000 C 246.400 50.220,246.130 50.400,245.800 50.400 C 245.470 50.400,245.200 50.551,245.200 50.736 C 245.200 50.920,244.750 51.277,244.200 51.527 C 243.650 51.778,243.200 52.250,243.200 52.577 C 243.200 52.904,242.840 53.365,242.400 53.600 C 241.960 53.835,241.600 54.297,241.600 54.627 C 241.600 54.956,241.330 55.329,241.000 55.455 C 240.670 55.582,240.400 56.007,240.400 56.400 C 240.400 56.793,240.130 57.218,239.800 57.345 C 239.470 57.471,239.200 57.921,239.200 58.345 C 239.200 58.768,238.927 59.219,238.594 59.347 C 238.261 59.475,237.815 60.034,237.604 60.590 C 237.393 61.145,237.035 61.600,236.810 61.600 C 236.584 61.600,236.400 61.941,236.400 62.357 C 236.400 62.774,236.130 63.218,235.800 63.345 C 235.470 63.471,235.200 63.921,235.200 64.345 C 235.200 64.768,234.927 65.219,234.594 65.347 C 234.261 65.475,233.815 66.034,233.604 66.590 C 233.393 67.145,233.035 67.600,232.810 67.600 C 232.584 67.600,232.400 67.870,232.400 68.200 C 232.400 69.184,230.830 70.503,230.069 70.159 C 229.219 69.775,228.606 69.635,226.500 69.348 C 225.565 69.220,224.800 68.984,224.800 68.823 C 224.800 68.662,224.138 68.505,223.329 68.474 C 222.521 68.444,221.754 68.250,221.626 68.043 C 221.499 67.836,219.456 67.537,217.086 67.378 C 214.717 67.219,212.683 66.934,212.566 66.745 C 212.288 66.296,187.713 66.293,187.436 66.742 C 187.232 67.072,181.745 67.677,179.500 67.617 C 178.895 67.601,178.400 67.770,178.400 67.994 C 178.400 68.217,177.680 68.400,176.800 68.400 C 175.920 68.400,175.200 68.555,175.200 68.745 C 175.200 68.935,174.233 69.204,173.050 69.342 C 171.868 69.481,170.383 69.865,169.750 70.195 C 168.731 70.727,168.585 70.728,168.471 70.198 C 168.400 69.869,168.175 69.600,167.971 69.600 C 167.767 69.600,167.600 69.330,167.600 69.000 C 167.600 68.670,167.440 68.400,167.243 68.400 C 167.047 68.400,166.774 67.950,166.636 67.400 C 166.498 66.850,166.208 66.400,165.992 66.400 C 165.777 66.400,165.600 66.130,165.600 65.800 C 165.600 65.470,165.432 65.200,165.227 65.200 C 165.022 65.200,164.726 64.795,164.570 64.300 C 164.413 63.805,163.996 63.130,163.643 62.800 C 163.289 62.470,162.657 61.525,162.237 60.700 C 161.817 59.875,161.342 59.200,161.180 59.200 C 161.019 59.200,160.774 58.750,160.636 58.200 C 160.498 57.650,160.208 57.200,159.992 57.200 C 159.777 57.200,159.600 56.958,159.600 56.662 C 159.600 56.366,159.244 55.802,158.809 55.409 C 158.375 55.015,158.112 54.543,158.225 54.360 C 158.338 54.176,158.064 53.797,157.616 53.517 C 157.167 53.237,156.800 52.777,156.800 52.495 C 156.800 52.213,156.350 51.778,155.800 51.527 C 155.250 51.277,154.800 50.920,154.800 50.736 C 154.800 50.551,154.530 50.400,154.200 50.400 C 153.870 50.400,153.600 50.220,153.600 50.000 C 153.600 49.763,152.133 49.600,150.000 49.600 C 147.867 49.600,146.400 49.763,146.400 50.000 M236.590 98.016 C 236.479 98.196,236.796 98.471,237.294 98.628 C 238.347 98.961,239.600 100.283,239.600 101.061 C 239.600 101.358,239.735 101.601,239.900 101.603 C 240.405 101.608,241.200 103.687,241.200 105.000 C 241.200 106.313,240.405 108.392,239.900 108.397 C 239.735 108.399,239.600 108.642,239.600 108.939 C 239.600 109.716,238.348 111.039,237.300 111.370 C 236.805 111.526,236.400 111.822,236.400 112.027 C 236.400 112.707,231.360 112.451,229.958 111.700 C 228.117 110.714,226.876 109.443,226.572 108.231 C 226.429 107.660,226.151 107.094,225.956 106.973 C 225.431 106.648,225.512 102.800,226.043 102.800 C 226.286 102.800,226.382 102.530,226.255 102.200 C 226.129 101.870,226.199 101.600,226.413 101.600 C 226.626 101.600,226.800 101.370,226.800 101.088 C 226.800 100.807,227.150 100.324,227.579 100.015 C 228.007 99.707,228.275 99.322,228.175 99.160 C 228.075 98.998,228.535 98.746,229.197 98.601 C 229.858 98.455,230.400 98.180,230.400 97.989 C 230.400 97.610,233.940 97.313,235.696 97.545 C 236.299 97.624,236.701 97.836,236.590 98.016 M169.600 97.957 C 169.600 98.153,170.050 98.426,170.600 98.564 C 171.150 98.702,171.600 99.002,171.600 99.231 C 171.600 99.460,171.780 99.536,172.000 99.400 C 172.220 99.264,172.400 99.433,172.400 99.776 C 172.400 100.119,172.566 100.400,172.768 100.400 C 172.971 100.400,173.255 100.940,173.400 101.600 C 173.545 102.260,173.829 102.800,174.032 102.800 C 174.505 102.800,174.516 106.681,174.044 106.973 C 173.849 107.094,173.571 107.660,173.428 108.231 C 173.156 109.316,171.518 111.200,170.847 111.200 C 170.632 111.200,170.164 111.493,169.805 111.852 C 167.920 113.737,160.400 111.408,160.400 108.939 C 160.400 108.642,160.265 108.399,160.100 108.397 C 158.443 108.380,158.516 102.720,160.188 101.522 C 160.402 101.369,160.458 101.125,160.313 100.979 C 159.955 100.622,161.659 98.962,162.734 98.621 C 163.210 98.470,163.600 98.178,163.600 97.973 C 163.600 97.768,164.950 97.600,166.600 97.600 C 168.250 97.600,169.600 97.760,169.600 97.957 M78.400 149.896 C 78.400 150.067,78.021 150.444,77.558 150.733 C 77.095 151.022,76.836 151.066,76.982 150.830 C 77.128 150.593,77.057 150.400,76.824 150.400 C 76.591 150.400,76.400 150.566,76.400 150.768 C 76.400 150.971,75.851 151.257,75.181 151.404 C 74.510 151.551,73.747 152.016,73.485 152.436 C 73.222 152.856,72.782 153.200,72.507 153.200 C 71.869 153.200,69.700 155.456,69.385 156.447 C 69.254 156.861,68.978 157.200,68.773 157.200 C 68.568 157.200,68.400 157.470,68.400 157.800 C 68.400 158.130,68.222 158.400,68.005 158.400 C 67.787 158.400,67.494 159.120,67.354 160.000 C 67.213 160.880,66.941 161.600,66.749 161.600 C 66.557 161.600,66.400 161.791,66.400 162.024 C 66.400 162.257,66.625 162.320,66.900 162.165 C 67.300 161.939,67.300 161.990,66.900 162.421 C 66.304 163.064,66.154 246.800,66.749 246.800 C 66.941 246.800,67.213 247.520,67.354 248.400 C 67.507 249.360,67.927 250.198,68.405 250.496 C 68.842 250.769,69.200 251.239,69.200 251.540 C 69.200 252.357,73.402 256.335,74.578 256.630 C 75.140 256.771,75.600 257.047,75.600 257.243 C 75.600 257.440,75.960 257.600,76.400 257.600 C 76.840 257.600,77.200 257.778,77.200 257.996 C 77.200 258.489,77.771 258.531,84.183 258.514 C 87.655 258.504,89.416 258.351,89.517 258.050 C 89.599 257.802,89.922 257.600,90.233 257.600 C 90.545 257.600,90.800 257.443,90.800 257.250 C 90.800 257.058,91.295 256.799,91.900 256.675 C 93.017 256.447,96.539 253.473,96.152 253.085 C 96.035 252.968,96.313 252.754,96.770 252.610 C 97.226 252.465,97.600 252.017,97.600 251.616 C 97.600 251.214,97.870 250.782,98.200 250.655 C 98.530 250.529,98.800 250.059,98.800 249.613 C 98.800 249.166,98.980 248.800,99.200 248.800 C 99.420 248.800,99.600 248.361,99.600 247.824 C 99.600 247.287,99.778 246.737,99.996 246.602 C 100.543 246.265,100.543 161.600,99.996 161.600 C 99.778 161.600,99.600 161.150,99.600 160.600 C 99.600 160.050,99.434 159.600,99.232 159.600 C 99.029 159.600,98.753 159.095,98.617 158.478 C 98.481 157.860,98.017 157.101,97.585 156.789 C 97.153 156.478,96.800 156.001,96.800 155.730 C 96.800 155.121,94.924 153.200,94.329 153.200 C 94.090 153.200,93.584 152.843,93.206 152.406 C 92.827 151.970,92.095 151.549,91.580 151.470 C 91.064 151.391,90.573 151.118,90.488 150.863 C 90.403 150.609,89.898 150.400,89.367 150.400 C 88.835 150.400,88.400 150.235,88.400 150.034 C 88.400 149.833,86.150 149.650,83.400 149.627 C 80.650 149.604,78.400 149.725,78.400 149.896 M116.400 214.775 C 116.400 257.796,116.536 280.037,116.800 280.200 C 117.020 280.336,117.200 280.724,117.200 281.063 C 117.200 281.980,118.441 284.422,118.795 284.203 C 118.964 284.098,119.207 284.536,119.335 285.174 C 119.470 285.849,119.901 286.441,120.363 286.588 C 120.801 286.727,121.270 287.192,121.406 287.620 C 121.631 288.329,122.079 288.577,122.900 288.447 C 123.065 288.421,123.200 288.670,123.200 289.000 C 123.200 289.330,123.470 289.600,123.800 289.600 C 124.130 289.600,124.400 289.772,124.400 289.982 C 124.400 290.192,125.030 290.482,125.800 290.626 C 126.570 290.771,127.200 291.049,127.200 291.245 C 127.200 291.440,127.729 291.600,128.376 291.600 C 129.023 291.600,129.664 291.780,129.800 292.000 C 129.954 292.249,133.737 292.400,139.824 292.400 L 149.600 292.400 149.600 315.400 C 149.600 330.467,149.738 338.400,150.000 338.400 C 150.220 338.400,150.400 338.850,150.400 339.400 C 150.400 339.950,150.566 340.400,150.768 340.400 C 150.971 340.400,151.247 340.905,151.383 341.522 C 151.519 342.140,151.983 342.899,152.415 343.211 C 152.847 343.522,153.206 343.962,153.213 344.188 C 153.234 344.834,154.720 346.459,155.377 346.555 C 155.703 346.603,156.302 347.026,156.708 347.494 C 157.115 347.963,157.932 348.468,158.524 348.617 C 159.116 348.765,159.600 349.047,159.600 349.243 C 159.600 349.440,160.050 349.600,160.600 349.600 C 161.150 349.600,161.600 349.763,161.600 349.963 C 161.600 350.163,163.850 350.348,166.600 350.374 C 169.781 350.403,171.600 350.271,171.600 350.010 C 171.600 349.785,172.050 349.600,172.600 349.600 C 173.150 349.600,173.600 349.441,173.600 349.247 C 173.600 348.864,175.108 348.280,175.870 348.367 C 176.128 348.397,176.455 348.056,176.597 347.611 C 176.738 347.165,177.110 346.800,177.423 346.800 C 178.117 346.800,180.284 344.595,180.615 343.553 C 180.746 343.139,181.022 342.800,181.227 342.800 C 181.432 342.800,181.600 342.530,181.600 342.200 C 181.600 341.870,181.778 341.600,181.995 341.600 C 182.213 341.600,182.506 340.880,182.646 340.000 C 182.787 339.120,183.059 338.400,183.251 338.400 C 183.446 338.400,183.600 328.220,183.600 315.400 L 183.600 292.400 200.000 292.400 L 216.400 292.400 216.400 315.400 C 216.400 328.220,216.554 338.400,216.749 338.400 C 216.941 338.400,217.213 339.120,217.354 340.000 C 217.494 340.880,217.787 341.600,218.005 341.600 C 218.222 341.600,218.400 341.851,218.400 342.157 C 218.400 342.464,218.670 342.818,219.000 342.945 C 219.330 343.071,219.600 343.424,219.600 343.728 C 219.600 344.430,221.843 346.800,222.507 346.800 C 222.782 346.800,223.222 347.144,223.485 347.564 C 223.747 347.984,224.510 348.449,225.181 348.596 C 225.851 348.743,226.400 349.029,226.400 349.232 C 226.400 349.434,226.850 349.600,227.400 349.600 C 227.950 349.600,228.400 349.780,228.400 350.000 C 228.400 350.245,230.333 350.400,233.400 350.400 C 236.467 350.400,238.400 350.245,238.400 350.000 C 238.400 349.780,238.850 349.600,239.400 349.600 C 239.950 349.600,240.400 349.434,240.400 349.232 C 240.400 349.029,240.905 348.753,241.522 348.617 C 242.140 348.481,242.899 348.017,243.211 347.585 C 243.522 347.153,243.999 346.800,244.270 346.800 C 244.910 346.800,246.800 344.910,246.800 344.270 C 246.800 343.999,247.153 343.522,247.585 343.211 C 248.017 342.899,248.481 342.140,248.617 341.522 C 248.753 340.905,249.029 340.400,249.232 340.400 C 249.434 340.400,249.600 339.950,249.600 339.400 C 249.600 338.850,249.780 338.400,250.000 338.400 C 250.262 338.400,250.400 330.467,250.400 315.400 L 250.400 292.400 260.400 292.400 C 266.800 292.400,270.400 292.256,270.400 292.000 C 270.400 291.780,270.925 291.600,271.567 291.600 C 272.208 291.600,272.795 291.416,272.870 291.191 C 272.945 290.966,273.545 290.686,274.203 290.568 C 274.861 290.450,275.460 290.184,275.533 289.976 C 275.607 289.769,275.922 289.600,276.233 289.600 C 276.545 289.600,276.800 289.330,276.800 289.000 C 276.800 288.670,276.935 288.421,277.100 288.447 C 277.921 288.577,278.369 288.329,278.594 287.620 C 278.730 287.192,279.183 286.733,279.600 286.600 C 280.017 286.467,280.480 285.977,280.628 285.510 C 280.777 285.043,281.227 284.308,281.629 283.877 C 282.031 283.445,282.480 282.531,282.626 281.846 C 282.773 281.161,283.052 280.401,283.247 280.158 C 283.452 279.903,283.559 252.148,283.501 214.758 L 283.400 149.800 199.900 149.699 L 116.400 149.598 116.400 214.775 M311.800 150.000 C 311.664 150.220,311.113 150.400,310.576 150.400 C 310.039 150.400,309.600 150.560,309.600 150.757 C 309.600 150.953,309.119 151.234,308.531 151.382 C 307.943 151.529,306.935 152.224,306.291 152.925 C 305.647 153.626,305.256 153.930,305.422 153.600 C 305.588 153.270,305.156 153.529,304.462 154.175 C 303.768 154.821,303.200 155.546,303.200 155.787 C 303.200 156.027,302.847 156.478,302.415 156.789 C 301.983 157.101,301.519 157.860,301.383 158.478 C 301.247 159.095,300.971 159.600,300.768 159.600 C 300.566 159.600,300.400 160.050,300.400 160.600 C 300.400 161.150,300.220 161.600,300.000 161.600 C 299.736 161.600,299.600 175.992,299.600 203.976 C 299.600 231.796,299.737 246.438,300.000 246.600 C 300.220 246.736,300.400 247.287,300.400 247.824 C 300.400 248.361,300.580 248.800,300.800 248.800 C 301.020 248.800,301.200 249.166,301.200 249.613 C 301.200 250.059,301.470 250.529,301.800 250.655 C 302.130 250.782,302.400 251.140,302.400 251.452 C 302.400 252.338,306.857 256.431,308.091 256.678 C 308.701 256.800,309.200 257.058,309.200 257.250 C 309.200 257.443,309.455 257.600,309.767 257.600 C 310.078 257.600,310.408 257.825,310.500 258.100 C 310.623 258.470,312.209 258.600,316.600 258.600 C 320.991 258.600,322.576 258.470,322.700 258.100 C 322.792 257.825,323.212 257.600,323.633 257.600 C 324.055 257.600,324.400 257.440,324.400 257.243 C 324.400 257.047,324.860 256.771,325.422 256.630 C 326.598 256.335,330.800 252.357,330.800 251.540 C 330.800 251.239,331.158 250.769,331.595 250.496 C 332.073 250.198,332.493 249.360,332.646 248.400 C 332.787 247.520,333.059 246.800,333.251 246.800 C 333.447 246.800,333.600 228.172,333.600 204.200 C 333.600 180.228,333.447 161.600,333.251 161.600 C 333.059 161.600,332.787 160.880,332.646 160.000 C 332.506 159.120,332.213 158.400,331.995 158.400 C 331.778 158.400,331.600 158.149,331.600 157.843 C 331.600 157.536,331.330 157.182,331.000 157.055 C 330.670 156.929,330.400 156.576,330.400 156.272 C 330.400 155.531,328.141 153.200,327.423 153.200 C 327.110 153.200,326.746 152.859,326.613 152.442 C 326.464 151.972,325.845 151.585,324.986 151.424 C 324.224 151.281,323.600 150.992,323.600 150.782 C 323.600 150.572,323.150 150.400,322.600 150.400 C 322.050 150.400,321.600 150.220,321.600 150.000 C 321.600 149.756,319.741 149.600,316.824 149.600 C 314.071 149.600,311.942 149.769,311.800 150.000 " stroke="none" fill="#7cb444" fill-rule="evenodd"></path><path id="path1" d="" stroke="none" fill="#80b444" fill-rule="evenodd"></path><path id="path2" d="" stroke="none" fill="#80b444" fill-rule="evenodd"></path><path id="path3" d="" stroke="none" fill="#80b444" fill-rule="evenodd"></path><path id="path4" d="" stroke="none" fill="#80b444" fill-rule="evenodd"></path></g></svg>