<svg id="svg" version="1.1" xmlns="http://www.w3.org/2000/svg" xmlns:xlink="http://www.w3.org/1999/xlink" width="400" height="400" viewBox="0, 0, 400,400"><g id="svgg"><path id="path0" d="M171.045 21.673 C 171.238 21.985,171.107 22.050,170.645 21.873 C 170.265 21.727,170.060 21.774,170.186 21.977 C 170.616 22.673,169.702 22.771,162.284 22.817 C 155.155 22.862,153.301 23.168,154.270 24.137 C 154.415 24.282,152.268 24.400,149.499 24.400 C 144.163 24.400,143.200 24.557,143.200 25.430 C 143.200 25.850,142.172 26.000,138.700 26.087 C 135.017 26.179,134.200 26.309,134.200 26.800 C 134.200 27.275,133.515 27.424,130.900 27.516 C 127.737 27.628,127.600 27.671,127.600 28.571 C 127.600 30.253,133.516 30.451,134.401 28.799 C 134.722 28.198,135.169 28.122,137.352 28.297 C 140.530 28.552,142.424 28.220,143.600 27.200 C 144.097 26.769,144.679 26.525,144.893 26.657 C 146.134 27.424,155.199 26.555,155.201 25.669 C 155.201 25.521,157.946 25.374,161.301 25.342 C 164.655 25.310,170.100 25.220,173.400 25.142 C 180.511 24.974,191.068 25.708,193.600 26.548 C 194.590 26.876,196.930 27.417,198.800 27.751 C 204.438 28.757,208.178 29.627,208.580 30.024 C 208.789 30.231,209.352 30.400,209.831 30.400 C 210.310 30.400,211.399 30.691,212.251 31.048 C 213.103 31.404,214.250 31.884,214.800 32.114 C 215.350 32.344,215.890 32.564,216.000 32.603 C 216.110 32.641,216.869 32.971,217.687 33.336 C 218.505 33.701,219.280 34.000,219.409 34.000 C 219.900 34.000,223.162 35.615,223.378 35.964 C 223.503 36.166,224.451 36.741,225.485 37.241 C 226.520 37.742,228.558 39.063,230.014 40.176 C 233.256 42.654,240.574 48.475,242.173 49.848 C 243.037 50.591,244.087 50.953,246.173 51.229 C 247.728 51.435,249.900 51.778,251.000 51.991 C 256.441 53.047,260.400 53.683,262.309 53.808 C 263.469 53.885,266.478 54.409,268.995 54.973 C 271.511 55.538,274.072 55.999,274.685 55.998 C 275.298 55.997,276.610 56.258,277.600 56.577 C 278.590 56.897,281.200 57.330,283.400 57.540 C 285.600 57.750,288.210 58.128,289.200 58.378 C 293.205 59.393,294.443 59.347,298.337 58.043 C 303.370 56.356,304.457 56.723,302.050 59.295 C 301.693 59.677,301.040 60.373,300.600 60.841 C 299.227 62.301,295.344 64.772,291.200 66.825 C 289.770 67.534,287.970 68.430,287.200 68.817 C 286.430 69.205,285.170 69.702,284.400 69.924 C 283.630 70.145,280.930 71.052,278.400 71.940 C 274.941 73.154,272.709 73.663,269.400 73.995 C 263.509 74.585,262.498 74.901,260.395 76.806 C 259.408 77.701,258.195 78.535,257.700 78.660 C 257.205 78.785,256.800 79.128,256.800 79.423 C 256.800 79.719,256.507 80.124,256.149 80.325 C 255.724 80.563,255.648 80.783,255.931 80.957 C 256.170 81.105,256.260 81.499,256.132 81.832 C 256.001 82.175,256.226 82.686,256.650 83.006 C 257.363 83.546,257.350 83.575,256.400 83.593 C 255.683 83.607,255.554 83.710,255.944 83.957 C 256.587 84.365,255.926 86.724,254.711 88.354 C 254.320 88.879,254.000 89.803,254.000 90.408 C 254.000 91.013,253.731 92.024,253.402 92.654 C 253.074 93.284,252.804 94.093,252.802 94.451 C 252.801 94.809,252.537 95.320,252.215 95.587 C 251.894 95.854,251.518 96.461,251.379 96.936 C 250.157 101.131,245.104 109.664,244.312 108.872 C 243.944 108.504,242.810 96.857,242.771 93.036 C 242.729 88.948,241.493 82.230,240.608 81.275 C 240.014 80.634,238.394 80.582,236.000 81.126 C 235.010 81.351,232.760 81.652,231.000 81.795 C 225.269 82.259,218.190 83.911,212.200 86.182 C 210.660 86.766,208.785 87.430,208.034 87.659 C 207.282 87.887,206.202 88.380,205.634 88.753 C 203.824 89.942,203.025 90.392,202.000 90.801 C 201.450 91.020,200.730 91.381,200.400 91.603 C 200.070 91.824,199.350 92.226,198.800 92.494 C 198.250 92.763,197.656 93.212,197.480 93.492 C 197.304 93.771,196.927 94.000,196.642 94.000 C 196.357 94.000,195.802 94.355,195.409 94.790 C 195.016 95.224,194.325 95.697,193.873 95.840 C 193.421 95.984,192.478 96.708,191.778 97.451 C 191.078 98.193,190.370 98.800,190.204 98.800 C 189.600 98.800,181.585 106.695,178.483 110.345 C 177.667 111.305,176.730 112.391,176.400 112.759 C 176.070 113.126,175.260 114.231,174.600 115.213 C 173.940 116.196,173.253 117.064,173.074 117.142 C 172.895 117.220,172.576 117.670,172.366 118.142 C 172.156 118.614,171.451 119.810,170.800 120.800 C 170.149 121.790,169.421 123.046,169.183 123.592 C 168.945 124.137,168.604 124.677,168.426 124.792 C 167.997 125.067,164.400 131.914,164.400 132.454 C 164.400 132.685,164.040 133.331,163.600 133.891 C 163.160 134.450,162.799 135.199,162.798 135.554 C 162.796 135.909,162.564 136.650,162.282 137.200 C 162.000 137.750,161.261 139.820,160.640 141.800 C 160.019 143.780,159.272 146.120,158.980 147.000 C 158.689 147.880,158.332 149.860,158.187 151.400 C 158.042 152.940,157.676 155.370,157.374 156.800 C 157.031 158.423,156.670 164.586,156.415 173.200 C 156.029 186.241,155.688 191.409,154.753 198.400 C 154.533 200.050,154.178 203.367,153.965 205.771 C 153.678 209.017,153.362 210.490,152.739 211.498 C 151.964 212.753,151.922 213.209,152.179 217.528 C 152.554 223.844,152.478 258.317,152.066 268.000 C 151.851 273.050,151.875 276.119,152.133 276.704 C 152.458 277.439,152.353 277.799,151.571 278.631 C 150.723 279.534,150.586 280.132,150.405 283.727 C 150.171 288.382,149.940 288.965,148.453 288.664 C 146.167 288.200,142.601 287.089,141.822 286.597 C 141.370 286.312,140.370 285.951,139.600 285.795 C 138.830 285.639,137.930 285.286,137.600 285.012 C 137.270 284.738,136.407 284.314,135.681 284.071 C 132.882 283.132,132.205 282.209,132.154 279.263 C 132.052 273.431,132.030 273.297,130.954 272.019 C 129.925 270.795,129.915 270.728,130.348 267.688 C 130.590 265.990,131.061 260.190,131.396 254.800 C 132.165 242.413,133.011 232.708,134.010 224.800 C 134.442 221.390,134.907 217.671,135.044 216.535 C 135.233 214.971,135.137 214.245,134.647 213.546 C 134.250 212.979,134.000 211.809,134.000 210.520 C 134.000 208.059,133.502 207.591,130.020 206.786 C 128.395 206.410,127.800 206.399,127.686 206.741 C 127.602 206.993,127.033 207.200,126.421 207.200 C 125.809 207.200,124.850 207.560,124.291 208.000 C 123.731 208.440,123.107 208.800,122.904 208.800 C 121.372 208.800,118.424 214.952,118.400 218.200 C 118.394 219.080,118.129 220.250,117.811 220.800 C 117.494 221.350,117.053 222.200,116.831 222.689 C 116.610 223.178,115.985 223.689,115.443 223.825 C 114.901 223.961,114.370 224.300,114.263 224.579 C 114.156 224.859,113.357 225.201,112.486 225.340 C 111.616 225.479,110.678 225.864,110.403 226.196 C 110.127 226.528,109.519 226.801,109.051 226.802 C 108.583 226.804,107.684 227.074,107.054 227.402 C 106.424 227.731,105.344 228.001,104.654 228.002 C 103.964 228.004,102.884 228.274,102.254 228.602 C 101.624 228.931,100.544 229.201,99.854 229.202 C 99.164 229.204,98.084 229.474,97.454 229.802 C 96.824 230.131,95.867 230.400,95.328 230.400 C 94.789 230.400,94.010 230.580,93.598 230.801 C 93.097 231.069,92.766 231.069,92.601 230.801 C 92.464 230.580,91.755 230.400,91.025 230.400 C 90.295 230.400,89.484 230.142,89.222 229.827 C 88.445 228.890,87.042 229.111,83.722 230.693 C 81.153 231.917,80.664 230.831,82.041 226.963 C 82.504 225.663,82.857 224.330,82.826 224.000 C 82.795 223.670,82.708 221.870,82.632 220.000 C 82.556 218.130,82.285 215.340,82.030 213.800 C 81.776 212.260,81.673 209.920,81.802 208.600 C 82.179 204.731,81.113 191.406,80.363 190.620 C 80.163 190.411,79.997 189.781,79.994 189.220 C 79.988 188.142,79.292 185.965,78.506 184.559 C 77.862 183.410,77.587 177.373,78.152 176.808 C 78.661 176.299,78.776 166.680,78.289 165.350 C 78.049 164.694,78.153 164.453,78.745 164.298 C 79.722 164.043,80.115 161.885,80.089 156.918 C 80.067 152.764,79.945 152.400,78.576 152.400 L 77.600 152.400 77.600 158.000 C 77.600 163.067,77.524 163.676,76.800 164.400 C 76.075 165.125,76.000 165.733,76.000 170.867 C 76.000 173.983,75.883 176.416,75.740 176.273 C 74.869 175.403,74.425 177.697,74.413 183.124 C 74.406 186.272,74.265 188.765,74.100 188.666 C 73.816 188.494,72.487 189.657,72.700 189.890 C 73.020 190.241,72.743 201.212,72.420 201.012 C 71.583 200.495,71.200 202.591,71.200 207.685 C 71.200 212.416,71.114 213.095,70.447 213.667 C 69.520 214.461,69.230 222.321,70.045 224.575 C 70.450 225.693,70.387 226.659,69.663 230.456 C 69.187 232.955,68.798 236.044,68.798 237.321 C 68.799 238.598,68.485 240.938,68.100 242.521 C 67.196 246.241,67.076 259.485,67.937 260.524 C 68.516 261.222,70.767 265.615,70.787 266.087 C 70.798 266.323,72.450 268.875,74.600 271.977 C 75.781 273.681,84.236 281.690,86.438 283.192 C 87.847 284.153,89.810 285.504,90.800 286.194 C 91.790 286.885,92.870 287.577,93.200 287.733 C 93.530 287.889,94.520 288.443,95.400 288.965 C 97.243 290.057,104.149 293.532,106.800 294.700 C 107.790 295.137,109.257 295.788,110.060 296.147 C 110.864 296.506,111.736 296.800,111.999 296.800 C 112.262 296.800,112.954 297.056,113.538 297.368 C 114.591 297.931,116.933 298.764,120.400 299.806 C 121.390 300.103,122.740 300.532,123.400 300.757 C 126.732 301.897,128.808 302.518,130.866 302.990 C 132.112 303.277,133.326 303.631,133.563 303.777 C 133.800 303.924,135.120 304.222,136.497 304.440 C 137.874 304.658,139.900 305.085,141.000 305.388 C 144.174 306.265,151.153 307.546,154.104 307.795 C 155.592 307.921,157.266 308.197,157.825 308.409 C 158.383 308.622,161.363 308.985,164.445 309.217 C 167.528 309.449,170.532 309.822,171.120 310.046 C 174.404 311.294,225.297 311.256,228.595 310.002 C 229.222 309.763,232.166 309.385,235.137 309.161 C 238.108 308.937,241.535 308.494,242.753 308.177 C 243.971 307.860,245.785 307.597,246.784 307.593 C 247.783 307.589,249.950 307.232,251.600 306.800 C 253.250 306.368,255.146 306.011,255.814 306.007 C 256.481 306.003,258.052 305.640,259.304 305.200 C 260.556 304.760,262.101 304.400,262.738 304.400 C 263.375 304.400,265.023 304.040,266.400 303.600 C 267.777 303.160,269.221 302.800,269.608 302.800 C 269.996 302.800,271.097 302.444,272.056 302.009 C 273.015 301.574,274.255 301.214,274.811 301.209 C 275.367 301.204,276.177 300.956,276.611 300.657 C 277.045 300.358,278.101 299.985,278.958 299.828 C 279.816 299.670,280.896 299.298,281.358 299.000 C 281.821 298.703,282.920 298.333,283.800 298.179 C 284.680 298.025,285.670 297.668,286.000 297.387 C 286.330 297.105,287.357 296.673,288.283 296.426 C 289.209 296.180,290.074 295.803,290.207 295.589 C 290.339 295.375,290.752 295.194,291.124 295.187 C 291.496 295.181,292.700 294.732,293.800 294.191 C 294.900 293.650,296.025 293.206,296.300 293.204 C 296.575 293.202,296.800 293.027,296.800 292.816 C 296.800 292.605,297.522 292.216,298.405 291.951 C 299.287 291.687,300.209 291.230,300.454 290.935 C 300.698 290.641,301.225 290.400,301.625 290.400 C 302.025 290.400,302.458 290.230,302.586 290.023 C 302.784 289.702,304.253 288.816,309.689 285.736 C 310.140 285.481,310.619 285.114,310.754 284.921 C 310.889 284.728,311.866 284.005,312.925 283.314 C 316.758 280.812,322.481 275.416,325.347 271.600 C 326.256 270.390,327.225 269.162,327.500 268.871 C 327.775 268.581,328.000 268.080,328.000 267.759 C 328.000 267.438,328.252 267.078,328.561 266.960 C 328.869 266.841,329.234 266.145,329.371 265.412 C 329.509 264.680,329.869 263.875,330.171 263.624 C 330.474 263.373,330.843 262.680,330.992 262.084 C 331.141 261.488,331.563 260.666,331.931 260.257 C 332.903 259.178,332.896 245.869,331.920 241.800 C 331.551 240.260,331.144 237.470,331.015 235.600 C 330.886 233.730,330.482 230.795,330.117 229.079 C 329.582 226.559,329.546 225.706,329.927 224.650 C 330.813 222.200,330.557 212.366,329.600 212.116 C 328.844 211.918,328.800 211.570,328.800 205.800 C 328.800 200.030,328.756 199.682,328.000 199.484 C 327.245 199.287,327.200 198.938,327.200 193.237 C 327.200 187.271,327.133 186.958,325.900 187.153 C 325.665 187.190,325.353 176.365,325.553 175.100 C 325.579 174.935,325.330 174.800,325.000 174.800 C 324.504 174.800,324.390 173.986,324.343 170.100 C 324.312 167.515,324.277 164.995,324.266 164.500 C 324.254 164.005,324.080 163.600,323.879 163.600 C 323.679 163.600,323.618 163.330,323.745 163.000 C 323.880 162.648,323.750 162.400,323.432 162.400 C 323.006 162.400,322.856 161.141,322.739 156.582 C 322.620 151.985,322.463 150.687,321.994 150.397 C 321.537 150.116,321.333 148.710,321.112 144.315 C 320.779 137.713,320.763 137.576,320.375 137.815 C 319.809 138.165,319.634 136.766,319.577 131.413 C 319.521 126.227,319.424 125.797,318.339 125.940 C 318.196 125.958,318.058 123.415,318.032 120.287 C 317.990 115.139,317.911 114.537,317.193 113.936 C 316.472 113.332,316.400 112.765,316.400 107.669 C 316.400 102.101,316.219 100.618,315.586 101.009 C 314.957 101.397,314.840 100.518,314.780 94.971 C 314.724 89.753,314.405 88.102,313.555 88.628 C 313.283 88.796,312.924 78.605,313.149 77.112 C 313.173 76.954,312.834 76.632,312.396 76.398 C 311.658 76.003,311.600 75.553,311.600 70.189 C 311.600 64.840,311.540 64.369,310.800 63.907 C 310.062 63.446,310.000 62.974,310.000 57.793 C 310.000 52.673,309.929 52.117,309.200 51.493 C 308.554 50.939,308.400 50.313,308.400 48.232 C 308.400 46.477,308.209 45.466,307.800 45.057 C 307.470 44.727,307.200 44.174,307.200 43.829 C 307.200 43.467,306.861 43.200,306.400 43.200 C 305.867 43.200,305.600 42.933,305.600 42.400 C 305.600 41.867,305.333 41.600,304.800 41.600 C 304.084 41.600,303.813 41.184,303.953 40.300 C 303.979 40.135,303.550 40.000,303.000 40.000 C 302.450 40.000,302.021 39.865,302.047 39.700 C 302.154 39.025,301.982 38.403,301.700 38.447 C 300.236 38.679,299.200 38.328,299.200 37.600 C 299.200 36.937,298.933 36.800,297.647 36.800 C 296.430 36.800,296.048 36.627,295.884 36.000 C 295.724 35.387,295.338 35.200,294.237 35.200 C 293.067 35.200,292.800 35.052,292.800 34.400 C 292.800 33.705,292.533 33.600,290.764 33.600 C 289.228 33.600,288.565 33.406,288.064 32.811 C 287.608 32.269,286.803 31.986,285.496 31.911 C 284.271 31.839,283.654 31.637,283.766 31.344 C 283.957 30.847,282.267 30.400,280.193 30.400 C 279.418 30.400,278.795 30.163,278.662 29.818 C 278.501 29.398,277.624 29.203,275.519 29.118 C 273.914 29.053,272.660 28.840,272.734 28.645 C 272.998 27.947,271.756 27.612,268.876 27.606 C 267.268 27.603,266.035 27.465,266.134 27.300 C 266.606 26.521,265.044 26.103,261.386 26.029 C 257.696 25.955,256.135 25.552,256.603 24.795 C 256.710 24.621,254.430 24.455,251.535 24.424 C 246.294 24.368,245.403 24.243,245.791 23.614 C 246.174 22.995,244.919 22.870,237.791 22.818 C 231.267 22.771,230.608 22.701,229.990 21.989 C 229.170 21.043,170.462 20.729,171.045 21.673 M121.200 29.752 C 121.200 30.139,120.499 30.355,118.849 30.474 C 117.359 30.582,116.251 30.892,115.821 31.322 C 115.429 31.714,114.521 32.000,113.668 32.000 C 112.626 32.000,112.046 32.235,111.693 32.800 C 111.311 33.411,110.760 33.600,109.359 33.600 C 107.862 33.600,107.487 33.747,107.316 34.400 C 107.157 35.006,106.770 35.200,105.716 35.200 C 104.662 35.200,104.275 35.394,104.116 36.000 C 103.957 36.606,103.570 36.800,102.516 36.800 C 101.462 36.800,101.075 36.994,100.916 37.600 C 100.728 38.319,99.779 38.652,98.600 38.414 C 98.380 38.370,98.326 38.460,98.481 38.614 C 98.855 38.989,97.815 40.000,97.056 40.000 C 96.725 40.000,96.340 40.360,96.200 40.800 C 96.060 41.240,95.688 41.600,95.373 41.600 C 95.058 41.600,94.800 41.960,94.800 42.400 C 94.800 42.933,94.533 43.200,94.000 43.200 C 93.467 43.200,93.200 43.467,93.200 44.000 C 93.200 44.533,92.933 44.800,92.400 44.800 C 91.689 44.800,91.600 45.067,91.600 47.200 C 91.600 49.280,91.700 49.600,92.350 49.600 C 93.185 49.600,93.712 47.916,93.333 46.464 C 93.176 45.865,93.332 45.526,93.855 45.329 C 94.265 45.175,95.410 44.261,96.400 43.298 C 99.260 40.515,99.419 40.400,100.371 40.400 C 100.938 40.400,101.353 40.102,101.484 39.600 C 101.632 39.036,102.030 38.800,102.833 38.800 C 103.514 38.800,104.124 38.515,104.352 38.090 C 104.561 37.700,105.229 37.339,105.837 37.289 C 106.446 37.238,107.291 36.823,107.717 36.367 C 108.221 35.825,108.789 35.611,109.349 35.751 C 110.495 36.039,111.018 35.639,111.370 34.206 C 111.622 33.177,111.716 33.108,112.051 33.706 C 112.715 34.891,116.000 34.341,116.000 33.045 C 116.000 32.653,116.514 32.567,117.998 32.709 C 120.047 32.906,121.320 32.376,120.971 31.471 C 120.840 31.131,121.520 31.038,123.412 31.135 C 126.072 31.272,127.200 30.860,127.200 29.751 C 127.200 29.332,126.481 29.200,124.200 29.200 C 121.916 29.200,121.200 29.332,121.200 29.752 M90.480 54.480 C 90.149 54.811,90.000 56.824,90.000 60.947 C 90.000 64.239,89.882 66.815,89.737 66.670 C 88.772 65.705,88.400 67.534,88.400 73.249 C 88.400 78.933,88.364 79.200,87.600 79.200 C 86.837 79.200,86.800 79.467,86.800 85.024 C 86.800 88.516,86.651 90.755,86.428 90.617 C 86.223 90.491,85.942 90.570,85.804 90.793 C 85.666 91.017,85.788 91.205,86.076 91.212 C 86.400 91.220,86.332 91.380,85.900 91.632 C 85.288 91.988,85.200 92.718,85.200 97.420 C 85.200 101.718,85.089 102.800,84.650 102.800 C 83.858 102.800,83.600 104.633,83.600 110.250 C 83.600 114.173,83.486 115.200,83.052 115.200 C 82.298 115.200,82.010 117.317,82.004 122.900 C 82.001 126.809,81.899 127.600,81.400 127.600 C 81.070 127.600,80.778 127.870,80.750 128.200 C 80.723 128.530,80.655 128.980,80.600 129.200 C 80.545 129.420,80.478 131.940,80.450 134.800 C 80.408 139.133,80.300 140.000,79.800 140.000 C 79.294 140.000,79.200 140.906,79.200 145.757 C 79.200 151.441,79.324 152.000,80.584 152.000 C 81.126 152.000,81.621 149.067,81.682 145.500 C 81.722 143.135,81.861 141.200,81.990 141.200 C 82.529 141.200,83.289 137.385,83.417 134.031 C 83.493 132.051,83.738 130.089,83.962 129.671 C 84.186 129.252,84.469 128.346,84.590 127.656 C 85.355 123.315,87.248 116.032,88.196 113.781 C 88.478 113.111,88.930 111.491,89.200 110.181 C 89.469 108.872,89.857 107.483,90.061 107.095 C 90.266 106.708,90.798 104.391,91.245 101.948 C 91.691 99.504,92.228 97.051,92.439 96.498 C 92.649 95.944,92.913 94.930,93.024 94.245 C 93.288 92.619,94.132 88.945,95.104 85.200 C 95.532 83.550,96.099 81.030,96.365 79.600 C 96.631 78.170,97.379 74.600,98.028 71.667 L 99.208 66.333 98.407 64.667 C 97.966 63.750,96.614 61.766,95.403 60.258 C 94.191 58.750,93.194 57.220,93.187 56.858 C 93.177 56.293,91.501 54.000,91.099 54.000 C 91.023 54.000,90.744 54.216,90.480 54.480 M248.800 122.000 C 249.035 122.440,249.582 122.800,250.014 122.800 C 250.533 122.800,250.800 123.071,250.800 123.600 C 250.800 124.272,251.067 124.400,252.469 124.400 C 254.398 124.400,255.600 125.274,255.600 126.678 C 255.600 127.203,255.960 128.338,256.400 129.200 C 256.840 130.062,257.200 131.045,257.200 131.384 C 257.200 131.733,257.546 132.000,258.000 132.000 C 258.573 132.000,258.800 132.267,258.800 132.938 C 258.800 133.454,259.160 134.202,259.600 134.600 C 260.040 134.998,260.400 135.782,260.400 136.343 C 260.400 136.903,260.749 138.900,261.175 140.781 C 261.978 144.326,262.938 152.159,263.627 160.800 C 263.846 163.550,264.290 167.955,264.613 170.588 C 265.341 176.526,265.365 180.373,264.679 181.411 C 264.393 181.845,263.644 183.505,263.016 185.100 C 262.387 186.695,261.721 188.000,261.536 188.000 C 261.351 188.000,261.200 188.249,261.200 188.554 C 261.200 189.054,257.627 194.049,254.736 197.591 C 252.843 199.909,254.057 201.319,258.374 201.818 C 259.598 201.960,261.281 202.419,262.112 202.838 C 262.944 203.257,263.878 203.600,264.189 203.600 C 264.499 203.600,264.880 203.806,265.035 204.057 C 265.375 204.607,258.864 204.148,258.169 203.573 C 257.779 203.250,253.116 202.427,251.568 202.408 C 251.220 202.404,250.140 203.122,249.168 204.005 C 247.318 205.685,245.976 206.279,245.165 205.778 C 244.064 205.098,245.234 127.380,246.377 125.244 C 246.609 124.809,246.800 124.069,246.800 123.600 C 246.800 121.589,248.046 120.592,248.800 122.000 M219.657 139.996 C 221.286 140.002,221.327 140.978,219.854 144.742 C 219.110 146.644,218.374 148.560,218.217 149.000 C 217.176 151.934,217.261 169.658,218.401 187.537 C 218.798 193.758,218.776 194.577,218.190 195.472 C 217.101 197.133,216.020 200.878,216.010 203.024 C 215.988 207.460,213.501 206.268,210.118 200.200 L 209.003 198.200 208.680 175.400 C 208.503 162.860,208.327 151.340,208.290 149.800 C 208.158 144.280,212.671 139.219,217.200 139.809 C 217.970 139.909,219.076 139.993,219.657 139.996 M238.552 151.820 C 238.874 152.659,238.890 196.500,238.569 197.337 C 238.429 197.702,237.979 198.000,237.568 198.000 C 236.846 198.000,236.379 153.563,237.082 151.730 C 237.360 151.006,238.261 151.061,238.552 151.820 M125.427 186.917 C 125.248 187.312,125.206 187.739,125.333 187.867 C 125.461 187.995,125.237 188.752,124.834 189.550 C 124.432 190.347,123.787 192.350,123.402 194.000 C 122.668 197.138,122.607 197.297,121.541 198.844 C 120.239 200.733,120.137 205.920,121.392 206.397 C 123.054 207.029,127.200 206.919,127.200 206.243 C 127.200 205.620,128.028 205.208,129.333 205.183 C 129.810 205.174,130.901 204.547,131.759 203.790 L 133.317 202.414 133.075 199.528 C 132.917 197.640,132.573 196.288,132.081 195.621 C 131.667 195.059,131.002 193.910,130.603 193.067 C 130.204 192.223,129.365 191.154,128.739 190.691 C 128.112 190.228,127.600 189.634,127.600 189.371 C 127.600 189.108,127.254 188.803,126.831 188.692 C 126.353 188.567,126.003 188.057,125.907 187.346 C 125.778 186.392,125.698 186.320,125.427 186.917 M222.094 217.455 C 223.111 217.975,223.475 218.666,223.762 220.621 C 223.848 221.209,224.344 221.472,225.838 221.721 C 229.164 222.275,228.714 222.986,224.600 223.673 C 224.017 223.770,223.765 224.174,223.670 225.161 C 223.504 226.898,223.993 227.186,227.124 227.194 C 228.703 227.198,229.555 227.350,229.400 227.600 C 229.264 227.820,228.542 228.000,227.796 228.000 C 227.050 228.000,226.296 228.253,226.120 228.562 C 225.944 228.870,225.352 229.185,224.804 229.262 C 224.175 229.349,223.764 229.695,223.689 230.200 C 223.228 233.278,222.489 233.514,218.940 231.716 C 215.482 229.966,215.826 228.800,219.800 228.800 C 222.514 228.800,222.800 228.725,222.800 228.015 C 222.800 227.246,222.426 227.077,218.751 226.192 C 215.315 225.364,216.574 223.215,220.500 223.206 C 223.283 223.200,224.342 222.374,222.300 221.802 C 221.805 221.663,221.040 221.389,220.600 221.193 C 220.160 220.996,219.125 220.567,218.300 220.238 C 216.696 219.600,216.208 217.952,217.299 216.861 C 217.882 216.278,220.405 216.590,222.094 217.455 M235.521 218.405 C 235.404 220.349,234.742 221.005,234.499 219.417 C 234.434 218.987,234.229 218.537,234.044 218.417 C 232.942 217.704,233.168 216.400,234.394 216.400 C 235.641 216.400,235.642 216.401,235.521 218.405 M213.024 219.387 C 213.767 219.950,213.754 219.975,212.700 219.987 C 211.983 219.996,211.600 219.791,211.600 219.400 C 211.600 218.643,212.034 218.639,213.024 219.387 M161.600 223.080 C 164.450 224.374,166.566 224.773,167.258 224.147 C 167.859 223.603,168.147 223.646,170.102 224.571 C 171.298 225.137,172.485 225.600,172.739 225.600 C 172.992 225.600,173.200 225.760,173.200 225.957 C 173.200 226.153,173.885 226.587,174.723 226.922 C 175.560 227.257,176.482 227.817,176.772 228.166 C 177.061 228.515,177.527 228.800,177.806 228.800 C 178.634 228.800,178.840 229.963,178.436 232.353 C 178.226 233.589,177.935 236.895,177.787 239.700 L 177.519 244.800 175.809 244.800 C 174.776 244.800,173.901 244.562,173.600 244.200 C 173.326 243.870,172.745 243.600,172.308 243.600 C 170.917 243.600,167.661 241.874,167.429 241.013 C 167.309 240.566,167.208 239.538,167.205 238.729 C 167.200 237.147,165.797 235.600,164.370 235.600 C 163.972 235.600,163.544 235.433,163.418 235.229 C 163.292 235.025,162.516 234.639,161.694 234.371 C 159.635 233.700,159.613 233.634,159.606 227.967 C 159.601 223.345,159.765 222.176,160.375 222.505 C 160.499 222.571,161.050 222.830,161.600 223.080 M235.300 223.540 C 235.407 223.947,235.358 224.982,235.193 225.840 C 235.027 226.698,234.869 227.040,234.842 226.600 C 234.814 226.160,234.680 225.125,234.543 224.300 C 234.290 222.766,234.930 222.123,235.300 223.540 M212.144 225.291 C 212.032 225.472,212.089 225.594,212.270 225.563 C 213.061 225.425,213.354 225.641,212.829 225.974 C 212.424 226.230,212.281 227.014,212.337 228.667 C 212.413 230.927,211.689 233.356,211.552 231.300 C 211.325 227.895,211.581 223.751,211.980 224.381 C 212.182 224.700,212.256 225.110,212.144 225.291 M113.200 232.800 C 113.200 233.319,113.467 233.600,113.959 233.600 C 115.325 233.600,115.588 246.713,114.380 254.597 C 114.094 256.467,114.156 257.504,114.662 259.308 C 115.205 261.241,115.076 263.280,114.512 261.700 C 114.414 261.425,114.071 261.200,113.750 261.200 C 112.578 261.200,108.881 257.291,106.600 253.640 C 106.380 253.288,105.975 252.856,105.700 252.680 C 105.425 252.504,105.200 251.932,105.200 251.409 C 105.200 250.885,104.930 250.187,104.600 249.857 C 104.270 249.527,104.000 248.754,104.000 248.140 C 104.000 247.042,104.010 247.037,104.588 247.862 C 106.240 250.220,107.798 249.212,108.179 245.537 C 108.373 243.667,108.686 242.665,109.228 242.175 C 109.712 241.737,110.000 240.951,110.000 240.070 C 110.000 239.292,110.313 238.316,110.700 237.887 C 111.085 237.460,111.414 236.726,111.432 236.256 C 111.590 231.963,111.582 232.000,112.400 232.000 C 112.933 232.000,113.200 232.267,113.200 232.800 M228.908 233.652 C 228.266 234.294,223.928 234.334,223.707 233.700 C 223.579 233.330,224.290 233.200,226.447 233.200 C 228.611 233.200,229.244 233.316,228.908 233.652 M221.344 234.654 C 222.963 234.876,223.200 235.031,223.200 235.864 C 223.200 237.619,219.104 238.304,217.600 236.800 C 215.775 234.975,217.301 234.100,221.344 234.654 " stroke="none" fill="#af3d3e" fill-rule="evenodd"></path><path id="path1" d="M170.039 22.086 C 169.588 22.808,169.610 22.812,170.585 22.173 C 171.755 21.406,171.796 21.333,171.055 21.333 C 170.755 21.333,170.298 21.672,170.039 22.086 M87.779 78.366 C 87.903 78.567,87.779 78.823,87.502 78.934 C 87.199 79.056,87.278 79.149,87.700 79.168 C 88.085 79.186,88.400 78.930,88.400 78.600 C 88.400 78.270,88.209 78.000,87.976 78.000 C 87.743 78.000,87.655 78.165,87.779 78.366 M330.400 221.381 C 330.400 222.801,330.198 224.405,329.952 224.946 C 329.607 225.703,329.652 226.605,330.145 228.865 C 330.498 230.479,330.891 233.330,331.018 235.200 C 331.146 237.070,331.549 239.950,331.915 241.600 C 332.398 243.774,332.583 246.584,332.590 251.802 L 332.600 259.005 330.900 262.298 C 329.965 264.110,329.200 265.864,329.200 266.196 C 329.200 266.528,329.032 266.800,328.827 266.800 C 328.622 266.800,328.338 267.166,328.196 267.613 C 327.635 269.380,322.136 275.635,317.000 280.349 C 315.876 281.380,310.060 285.600,309.762 285.600 C 309.626 285.600,308.981 286.050,308.327 286.600 C 307.673 287.150,306.897 287.600,306.603 287.600 C 306.308 287.600,306.007 287.752,305.933 287.938 C 305.789 288.304,305.650 288.381,299.525 291.501 C 297.256 292.657,295.197 293.602,294.949 293.601 C 294.701 293.601,294.283 293.858,294.021 294.174 C 293.759 294.490,292.972 294.874,292.272 295.028 C 291.573 295.181,290.373 295.643,289.606 296.053 C 288.839 296.464,287.934 296.800,287.595 296.800 C 287.256 296.800,286.623 297.047,286.189 297.349 C 285.755 297.651,284.770 298.028,284.000 298.188 C 283.230 298.348,282.236 298.708,281.791 298.989 C 281.346 299.269,280.238 299.625,279.328 299.778 C 278.418 299.932,277.342 300.309,276.937 300.616 C 276.532 300.923,275.789 301.180,275.287 301.187 C 274.785 301.194,273.705 301.490,272.887 301.844 C 271.129 302.605,266.690 303.827,263.600 304.402 C 262.390 304.626,260.500 305.075,259.400 305.399 C 256.302 306.310,251.366 307.223,247.319 307.633 C 245.294 307.838,243.151 308.191,242.555 308.417 C 241.959 308.644,239.206 309.002,236.436 309.213 C 233.666 309.424,230.770 309.782,230.000 310.007 C 228.702 310.388,222.555 310.753,206.000 311.431 C 197.979 311.760,175.459 310.995,169.400 310.189 C 166.980 309.866,163.138 309.422,160.863 309.202 C 158.587 308.981,156.569 308.704,156.378 308.586 C 156.187 308.468,154.166 308.208,151.888 308.008 C 149.610 307.808,146.678 307.376,145.373 307.049 C 142.209 306.256,139.544 305.650,136.400 305.009 C 131.566 304.024,126.491 302.526,121.926 300.735 C 120.895 300.331,119.630 300.000,119.115 300.000 C 118.600 300.000,117.823 299.753,117.389 299.451 C 116.955 299.149,115.970 298.772,115.200 298.612 C 114.430 298.452,113.401 298.069,112.914 297.761 C 112.427 297.452,111.742 297.200,111.392 297.200 C 110.810 297.200,109.988 296.878,105.461 294.880 C 104.614 294.506,102.094 293.256,99.861 292.103 C 97.627 290.949,95.215 289.732,94.500 289.397 C 93.785 289.063,93.200 288.612,93.200 288.395 C 93.200 288.178,92.987 288.000,92.726 288.000 C 89.555 288.000,74.303 274.067,71.241 268.374 C 67.251 260.957,66.857 259.903,66.684 256.200 C 66.447 251.146,67.061 242.106,67.770 240.200 C 68.145 239.192,68.371 237.114,68.382 234.586 C 68.395 231.680,68.613 229.965,69.173 228.372 C 70.056 225.861,69.911 222.800,68.910 222.800 C 68.588 222.800,68.235 223.143,68.126 223.563 C 68.016 223.983,67.583 224.416,67.163 224.526 C 66.743 224.635,66.400 224.991,66.400 225.316 C 66.400 225.641,66.040 226.001,65.600 226.116 C 65.160 226.231,64.800 226.612,64.800 226.963 C 64.800 227.313,64.530 227.600,64.200 227.600 C 63.870 227.600,63.600 227.846,63.600 228.146 C 63.600 228.446,63.240 229.150,62.800 229.709 C 62.360 230.269,62.000 231.013,62.000 231.363 C 62.000 231.733,61.665 232.000,61.200 232.000 C 60.676 232.000,60.400 232.267,60.400 232.773 C 60.400 233.198,60.040 233.660,59.600 233.800 C 59.012 233.987,58.800 234.405,58.800 235.380 C 58.800 236.370,58.597 236.760,58.000 236.916 C 57.401 237.073,57.200 237.462,57.200 238.466 C 57.200 239.374,56.942 239.969,56.400 240.307 C 55.736 240.722,55.600 241.240,55.600 243.357 C 55.600 245.570,55.494 245.934,54.800 246.116 C 53.560 246.440,53.560 261.106,54.800 262.000 C 55.565 262.551,55.600 263.035,55.600 272.926 C 55.600 282.938,55.626 283.282,56.400 283.484 C 57.174 283.687,57.200 284.030,57.200 294.233 C 57.200 304.362,57.231 304.788,58.000 305.200 C 58.767 305.611,58.800 306.038,58.800 315.614 C 58.800 325.333,58.821 325.600,59.600 325.600 C 60.330 325.600,60.400 325.867,60.400 328.637 C 60.400 331.338,60.489 331.698,61.200 331.884 C 61.827 332.048,62.000 332.430,62.000 333.647 C 62.000 334.761,62.170 335.200,62.600 335.200 C 63.022 335.200,63.200 335.626,63.200 336.637 C 63.200 337.738,63.387 338.124,64.000 338.284 C 64.566 338.432,64.800 338.830,64.800 339.643 C 64.800 340.360,65.101 340.981,65.600 341.293 C 66.040 341.568,66.400 341.976,66.400 342.200 C 66.400 342.424,66.760 342.832,67.200 343.107 C 67.710 343.426,68.000 344.040,68.000 344.803 C 68.000 345.733,68.178 346.000,68.800 346.000 C 69.333 346.000,69.600 346.267,69.600 346.800 C 69.600 347.333,69.867 347.600,70.400 347.600 C 70.933 347.600,71.200 347.867,71.200 348.400 C 71.200 348.933,71.467 349.200,72.000 349.200 C 72.533 349.200,72.800 349.467,72.800 350.000 C 72.800 350.533,73.067 350.800,73.600 350.800 C 74.133 350.800,74.400 351.067,74.400 351.600 C 74.400 352.133,74.667 352.400,75.200 352.400 C 75.733 352.400,76.000 352.667,76.000 353.200 C 76.000 353.733,76.267 354.000,76.800 354.000 C 77.333 354.000,77.600 354.267,77.600 354.800 C 77.600 355.333,77.867 355.600,78.400 355.600 C 78.933 355.600,79.200 355.867,79.200 356.400 C 79.200 356.840,79.451 357.200,79.757 357.200 C 80.064 357.200,80.418 357.470,80.545 357.800 C 80.671 358.130,81.097 358.400,81.491 358.400 C 81.885 358.400,82.432 358.760,82.707 359.200 C 82.990 359.652,83.640 360.000,84.203 360.000 C 84.933 360.000,85.200 360.214,85.200 360.800 C 85.200 361.324,85.467 361.600,85.973 361.600 C 86.398 361.600,86.860 361.960,87.000 362.400 C 87.189 362.995,87.605 363.200,88.627 363.200 C 89.733 363.200,90.000 363.355,90.000 364.000 C 90.000 364.444,90.267 364.800,90.600 364.800 C 90.930 364.800,91.560 365.160,92.000 365.600 C 92.440 366.040,93.229 366.400,93.753 366.400 C 94.370 366.400,94.781 366.682,94.916 367.200 C 95.067 367.778,95.462 368.000,96.336 368.000 C 97.195 368.000,97.620 368.232,97.800 368.800 C 97.989 369.395,98.405 369.600,99.427 369.600 C 100.458 369.600,100.806 369.774,100.825 370.300 C 100.845 370.836,100.935 370.790,101.212 370.100 C 101.411 369.605,101.850 369.200,102.187 369.200 C 103.057 369.200,102.973 370.787,102.100 370.853 C 101.715 370.882,102.030 371.017,102.800 371.153 C 105.213 371.579,106.743 369.515,104.397 368.999 C 103.735 368.854,103.009 368.390,102.783 367.967 C 102.557 367.545,102.022 367.200,101.595 367.200 C 101.168 367.200,100.524 366.750,100.163 366.200 C 99.803 365.650,99.124 365.199,98.654 365.197 C 96.822 365.190,96.800 364.818,96.800 334.546 C 96.800 318.088,96.644 305.661,96.431 305.126 C 96.020 304.094,94.575 302.513,93.208 301.600 C 92.714 301.270,91.655 300.511,90.855 299.914 C 90.055 299.316,89.040 298.562,88.600 298.237 C 77.733 290.220,65.222 277.224,61.675 270.270 C 61.094 269.132,60.494 268.108,60.341 267.996 C 60.188 267.884,59.935 267.254,59.778 266.596 C 59.621 265.938,59.268 265.130,58.994 264.800 C 58.720 264.470,58.369 263.150,58.215 261.868 C 57.962 259.766,57.821 259.496,56.784 259.135 C 55.867 258.815,55.710 258.599,56.011 258.067 C 56.218 257.700,56.547 256.770,56.741 256.000 L 57.096 254.600 57.558 255.800 C 57.813 256.460,58.281 257.540,58.598 258.200 C 58.915 258.860,59.728 260.708,60.405 262.306 C 64.590 272.198,73.753 282.166,85.721 289.847 C 87.304 290.864,89.230 292.106,90.000 292.607 C 97.884 297.742,113.995 304.588,128.200 308.838 C 137.696 311.679,154.128 315.276,162.600 316.368 C 164.360 316.594,167.870 317.050,170.400 317.380 C 175.734 318.076,181.337 318.689,187.003 319.195 C 190.213 319.481,195.560 320.953,194.400 321.230 C 194.290 321.257,187.270 321.428,178.800 321.610 C 170.330 321.793,162.905 322.067,162.300 322.218 L 161.200 322.493 161.200 353.028 L 161.200 383.562 159.700 383.979 C 158.875 384.208,157.981 384.397,157.714 384.398 C 157.446 384.399,156.675 384.940,156.000 385.600 L 154.772 386.800 159.186 386.800 C 162.665 386.800,163.600 386.917,163.600 387.350 C 163.600 388.199,165.488 388.400,173.450 388.400 C 179.615 388.400,180.800 388.494,180.800 388.982 C 180.800 390.347,218.486 390.463,219.248 389.100 C 219.601 388.470,220.436 388.400,227.620 388.400 C 235.067 388.400,235.653 388.347,236.400 387.600 C 237.115 386.885,237.733 386.800,242.237 386.800 C 246.938 386.800,247.289 386.747,247.484 386.000 C 247.675 385.272,248.030 385.200,251.443 385.200 C 254.760 385.200,255.251 385.108,255.693 384.400 C 256.128 383.704,256.626 383.600,259.534 383.600 C 262.538 383.600,262.896 383.519,263.084 382.800 C 263.306 381.952,264.948 381.668,265.400 382.400 C 266.066 383.478,270.411 382.391,270.939 381.015 C 271.089 380.625,271.684 380.400,272.568 380.400 C 273.368 380.400,274.098 380.153,274.285 379.821 C 274.465 379.498,275.653 379.077,276.959 378.872 C 278.418 378.644,279.448 378.257,279.675 377.852 C 279.924 377.407,280.586 377.200,281.758 377.200 C 282.968 377.200,283.690 376.963,284.200 376.400 C 284.687 375.862,285.432 375.600,286.475 375.600 C 287.484 375.600,288.105 375.391,288.255 375.000 C 288.395 374.637,288.999 374.400,289.789 374.400 C 290.506 374.400,291.550 374.040,292.109 373.600 C 292.669 373.160,293.488 372.800,293.930 372.800 C 295.157 372.800,296.000 372.375,296.000 371.757 C 296.000 371.384,296.475 371.200,297.437 371.200 C 298.538 371.200,298.924 371.013,299.084 370.400 C 299.243 369.794,299.630 369.600,300.684 369.600 C 301.738 369.600,302.125 369.406,302.284 368.800 C 302.440 368.203,302.830 368.000,303.820 368.000 C 304.795 368.000,305.213 367.788,305.400 367.200 C 305.540 366.760,305.987 366.400,306.394 366.400 C 307.561 366.400,308.400 365.964,308.400 365.357 C 308.400 365.051,308.760 364.800,309.200 364.800 C 309.640 364.800,310.001 364.665,310.003 364.500 C 310.007 364.149,311.937 363.200,312.646 363.200 C 312.914 363.200,313.198 363.005,313.278 362.767 C 313.357 362.529,314.536 362.202,315.897 362.042 C 317.257 361.882,318.693 361.471,319.085 361.129 C 319.478 360.787,320.290 360.391,320.888 360.249 C 321.487 360.107,322.168 359.633,322.403 359.195 C 322.637 358.758,323.219 358.400,323.697 358.400 C 324.197 358.400,325.423 357.567,326.583 356.439 C 330.660 352.473,332.468 350.800,332.675 350.800 C 333.057 350.800,338.000 347.053,338.000 346.763 C 338.000 346.279,341.174 344.800,342.212 344.800 C 342.933 344.800,343.200 344.584,343.200 344.000 C 343.200 343.070,346.116 340.000,347.000 340.000 C 347.333 340.000,347.600 339.644,347.600 339.200 C 347.600 338.635,347.867 338.400,348.508 338.400 C 349.125 338.400,350.690 337.120,353.400 334.400 C 355.592 332.200,357.703 330.400,358.092 330.400 C 358.482 330.400,358.800 330.130,358.800 329.800 C 358.800 329.467,359.156 329.200,359.600 329.200 C 360.133 329.200,360.400 328.933,360.400 328.400 C 360.400 327.752,360.667 327.600,361.800 327.600 C 363.018 327.600,363.200 327.473,363.200 326.623 C 363.200 325.572,364.512 324.400,365.689 324.400 C 366.133 324.400,366.400 324.100,366.400 323.600 C 366.400 323.067,366.667 322.800,367.200 322.800 C 367.733 322.800,368.000 322.533,368.000 322.000 C 368.000 321.467,368.267 321.200,368.800 321.200 C 369.333 321.200,369.600 320.933,369.600 320.400 C 369.600 319.867,369.867 319.600,370.400 319.600 C 370.933 319.600,371.200 319.333,371.200 318.800 C 371.200 318.267,371.467 318.000,372.000 318.000 C 372.533 318.000,372.800 317.733,372.800 317.200 C 372.800 316.667,373.067 316.400,373.600 316.400 C 374.133 316.400,374.400 316.133,374.400 315.600 C 374.400 315.067,374.667 314.800,375.200 314.800 C 375.733 314.800,376.000 314.533,376.000 314.000 C 376.000 313.467,376.267 313.200,376.800 313.200 C 377.244 313.200,377.600 312.933,377.600 312.600 C 377.600 312.267,377.956 312.000,378.400 312.000 C 378.933 312.000,379.200 311.733,379.200 311.200 C 379.200 310.756,379.467 310.400,379.800 310.400 C 380.133 310.400,380.400 310.044,380.400 309.600 C 380.400 309.067,380.667 308.800,381.200 308.800 C 381.733 308.800,382.000 308.533,382.000 308.000 C 382.000 307.467,382.267 307.200,382.800 307.200 C 383.333 307.200,383.600 306.933,383.600 306.400 C 383.600 305.867,383.867 305.600,384.400 305.600 C 384.933 305.600,385.200 305.333,385.200 304.800 C 385.200 304.267,385.467 304.000,386.000 304.000 C 386.667 304.000,386.800 303.733,386.800 302.400 C 386.800 301.067,386.933 300.800,387.600 300.800 C 388.133 300.800,388.400 300.533,388.400 300.000 C 388.400 299.467,388.667 299.200,389.200 299.200 C 389.733 299.200,390.000 298.933,390.000 298.400 C 390.000 297.867,390.267 297.600,390.800 297.600 C 391.333 297.600,391.600 297.333,391.600 296.800 C 391.600 296.267,391.867 296.000,392.400 296.000 C 392.844 296.000,393.200 295.733,393.200 295.400 C 393.200 295.067,393.556 294.800,394.000 294.800 C 394.533 294.800,394.800 294.533,394.800 294.000 C 394.800 293.556,395.067 293.200,395.400 293.200 C 395.867 293.200,396.000 292.667,396.000 290.800 C 396.000 288.667,396.089 288.400,396.800 288.400 C 397.333 288.400,397.600 288.133,397.600 287.600 C 397.600 286.978,397.867 286.800,398.800 286.800 L 400.000 286.800 400.000 277.400 L 400.000 268.000 398.800 268.000 C 397.667 268.000,397.600 267.911,397.600 266.400 C 397.600 265.067,397.467 264.800,396.800 264.800 C 396.267 264.800,396.000 264.533,396.000 264.000 C 396.000 263.556,395.733 263.200,395.400 263.200 C 394.967 263.200,394.800 262.756,394.800 261.600 C 394.800 260.267,394.667 260.000,394.000 260.000 C 393.467 260.000,393.200 259.733,393.200 259.200 C 393.200 258.533,392.933 258.400,391.600 258.400 C 390.444 258.400,390.000 258.233,390.000 257.800 C 390.000 257.467,389.644 257.200,389.200 257.200 C 388.667 257.200,388.400 256.933,388.400 256.400 C 388.400 255.867,388.133 255.600,387.600 255.600 C 387.067 255.600,386.800 255.333,386.800 254.800 C 386.800 254.133,386.533 254.000,385.200 254.000 C 383.867 254.000,383.600 253.867,383.600 253.200 C 383.600 252.667,383.333 252.400,382.800 252.400 C 382.267 252.400,382.000 252.133,382.000 251.600 C 382.000 250.952,381.733 250.800,380.600 250.800 C 379.467 250.800,379.200 250.648,379.200 250.000 C 379.200 249.333,378.933 249.200,377.600 249.200 C 376.267 249.200,376.000 249.067,376.000 248.400 C 376.000 247.733,375.733 247.600,374.400 247.600 C 373.067 247.600,372.800 247.467,372.800 246.800 C 372.800 246.133,372.533 246.000,371.200 246.000 C 369.867 246.000,369.600 245.867,369.600 245.200 C 369.600 244.533,369.333 244.400,368.000 244.400 C 366.667 244.400,366.400 244.267,366.400 243.600 C 366.400 242.933,366.133 242.800,364.800 242.800 C 363.644 242.800,363.200 242.633,363.200 242.200 C 363.200 241.870,362.930 241.600,362.600 241.600 C 362.267 241.600,362.000 241.244,362.000 240.800 C 362.000 240.267,361.733 240.000,361.200 240.000 C 360.489 240.000,360.400 239.733,360.400 237.600 C 360.400 235.467,360.311 235.200,359.600 235.200 C 358.933 235.200,358.800 234.933,358.800 233.600 C 358.800 232.267,358.667 232.000,358.000 232.000 C 357.467 232.000,357.200 231.733,357.200 231.200 C 357.200 230.667,356.933 230.400,356.400 230.400 C 355.867 230.400,355.600 230.133,355.600 229.600 C 355.600 228.933,355.333 228.800,354.000 228.800 C 352.667 228.800,352.400 228.667,352.400 228.000 C 352.400 227.333,352.133 227.200,350.800 227.200 C 349.467 227.200,349.200 227.067,349.200 226.400 C 349.200 225.733,348.933 225.600,347.600 225.600 C 346.444 225.600,346.000 225.433,346.000 225.000 C 346.000 224.539,345.489 224.400,343.800 224.400 C 341.867 224.400,341.600 224.303,341.600 223.600 C 341.600 223.070,341.333 222.800,340.809 222.800 C 340.374 222.800,339.020 222.260,337.800 221.600 C 336.580 220.940,335.089 220.400,334.487 220.400 C 333.826 220.400,333.195 220.083,332.893 219.600 C 331.680 217.658,330.400 218.573,330.400 221.381 M283.600 308.553 C 283.600 308.908,281.982 309.094,281.777 308.762 C 281.654 308.563,282.013 308.400,282.576 308.400 C 283.139 308.400,283.600 308.469,283.600 308.553 M279.200 310.400 C 278.413 310.909,276.514 310.909,276.200 310.400 C 276.048 310.154,276.694 310.002,277.876 310.006 C 279.266 310.011,279.633 310.120,279.200 310.400 M274.982 311.571 C 275.219 311.955,274.748 312.149,272.473 312.608 C 271.743 312.755,270.663 313.127,270.073 313.436 C 269.483 313.744,268.370 314.102,267.600 314.232 C 266.830 314.363,265.164 314.814,263.898 315.235 C 262.633 315.656,261.176 316.000,260.662 316.000 C 260.148 316.000,258.320 316.360,256.600 316.800 C 254.880 317.240,252.854 317.600,252.098 317.600 C 251.342 317.600,249.766 317.878,248.597 318.218 C 247.427 318.558,244.609 318.993,242.335 319.185 C 240.061 319.376,236.114 319.752,233.565 320.020 C 229.012 320.499,223.389 320.264,223.792 319.613 C 223.902 319.436,226.558 319.167,229.696 319.017 C 233.108 318.853,235.889 318.522,236.617 318.192 C 237.286 317.889,239.536 317.526,241.617 317.386 C 243.698 317.246,246.210 316.889,247.200 316.593 C 248.190 316.296,250.170 315.936,251.600 315.792 C 253.030 315.648,254.920 315.296,255.800 315.010 C 256.680 314.724,258.570 314.360,260.000 314.201 C 261.430 314.041,262.815 313.737,263.077 313.525 C 263.340 313.313,264.928 313.008,266.605 312.848 C 268.283 312.688,269.778 312.360,269.928 312.119 C 270.403 311.353,274.568 310.902,274.982 311.571 M99.600 368.400 C 99.600 369.244,99.018 369.476,98.600 368.800 C 98.308 368.328,98.687 367.600,99.224 367.600 C 99.431 367.600,99.600 367.960,99.600 368.400 M105.798 370.736 C 105.689 370.844,105.600 371.275,105.600 371.694 C 105.600 372.290,105.406 372.399,104.700 372.201 C 103.995 372.003,103.930 372.039,104.400 372.368 C 104.730 372.599,105.476 372.791,106.057 372.794 C 106.643 372.797,107.222 373.079,107.354 373.425 C 107.486 373.769,107.763 373.946,107.970 373.819 C 108.176 373.691,108.458 373.770,108.596 373.993 C 109.100 374.809,111.957 374.483,111.891 373.617 C 111.859 373.187,111.756 372.910,111.664 373.003 C 111.571 373.096,111.144 372.984,110.714 372.754 C 110.122 372.437,109.765 372.489,109.234 372.969 C 108.345 373.774,107.978 373.410,108.259 372.004 C 108.467 370.964,106.555 369.978,105.798 370.736 M114.000 374.800 C 114.000 375.240,114.227 375.600,114.504 375.600 C 114.781 375.600,115.232 375.960,115.507 376.400 C 116.180 377.477,117.193 377.460,116.910 376.377 C 116.779 375.876,116.475 375.639,116.131 375.771 C 115.821 375.890,115.596 375.765,115.631 375.494 C 115.774 374.385,115.560 374.000,114.800 374.000 C 114.267 374.000,114.000 374.267,114.000 374.800 M118.933 376.295 C 118.933 376.678,119.157 377.214,119.431 377.488 C 119.705 377.762,120.010 378.214,120.110 378.493 C 120.209 378.772,120.420 378.880,120.578 378.734 C 120.736 378.588,120.632 378.048,120.348 377.534 C 120.065 377.020,119.878 376.375,119.934 376.100 C 119.989 375.825,119.787 375.600,119.484 375.600 C 119.181 375.600,118.933 375.913,118.933 376.295 M125.021 379.166 C 124.636 379.790,124.748 379.885,126.201 380.170 C 126.860 380.299,127.130 380.285,126.800 380.138 C 126.470 379.990,126.002 379.602,125.761 379.275 C 125.428 378.823,125.249 378.797,125.021 379.166 M128.110 379.600 C 128.066 380.190,128.296 380.400,128.987 380.400 C 129.728 380.400,129.881 380.232,129.716 379.600 C 129.601 379.160,129.206 378.800,128.838 378.800 C 128.457 378.800,128.144 379.143,128.110 379.600 M134.175 380.841 C 133.973 381.167,134.059 381.229,134.438 381.032 C 134.747 380.872,134.651 381.024,134.224 381.370 C 133.473 381.979,133.485 382.000,134.553 382.000 C 135.370 382.000,135.625 381.826,135.529 381.333 C 135.366 380.493,134.569 380.203,134.175 380.841 M140.400 382.413 C 140.400 382.640,139.995 382.989,139.500 383.188 C 138.800 383.469,139.108 383.555,140.880 383.575 C 142.365 383.591,143.272 383.791,143.480 384.148 C 143.656 384.449,144.216 384.825,144.725 384.983 C 145.560 385.242,145.603 385.195,145.171 384.502 C 144.908 384.080,144.131 383.568,143.446 383.363 C 142.761 383.159,142.245 382.769,142.300 382.496 C 142.358 382.207,141.983 382.000,141.400 382.000 C 140.850 382.000,140.400 382.186,140.400 382.413 M147.614 383.591 C 147.330 383.767,147.213 384.098,147.355 384.327 C 147.496 384.556,147.204 384.830,146.706 384.937 C 146.208 385.044,147.278 385.101,149.085 385.064 C 152.094 385.003,152.380 385.065,152.485 385.799 C 152.604 386.630,154.400 387.220,154.400 386.428 C 154.400 386.193,154.130 386.000,153.800 386.000 C 153.470 386.000,153.200 385.832,153.200 385.627 C 153.200 384.383,148.880 382.809,147.614 383.591 M166.800 387.449 C 166.800 387.980,166.691 388.008,166.200 387.600 C 165.870 387.326,165.600 387.034,165.600 386.951 C 165.600 386.868,165.870 386.800,166.200 386.800 C 166.530 386.800,166.800 387.092,166.800 387.449 " stroke="none" fill="#262627" fill-rule="evenodd"></path><path id="path2" d="M138.800 45.843 C 138.470 45.893,135.770 46.155,132.800 46.425 C 129.830 46.696,126.950 47.148,126.400 47.430 C 125.850 47.712,124.242 48.151,122.826 48.406 C 121.411 48.661,119.352 49.304,118.251 49.835 C 117.151 50.366,115.859 50.800,115.380 50.800 C 114.372 50.800,109.380 52.985,109.006 53.591 C 108.867 53.816,108.385 54.000,107.934 54.000 C 107.484 54.000,106.354 54.515,105.422 55.144 C 102.350 57.217,99.796 57.071,96.191 54.617 L 94.600 53.533 94.464 54.430 C 94.385 54.949,94.596 55.478,94.964 55.684 C 95.314 55.880,95.600 56.237,95.600 56.479 C 95.600 57.424,100.139 62.410,103.217 64.846 C 105.204 66.418,111.483 69.822,115.200 71.343 C 115.970 71.658,117.416 72.281,118.414 72.729 C 119.412 73.176,120.762 73.666,121.414 73.818 C 122.066 73.971,123.050 74.389,123.600 74.748 C 124.394 75.265,125.672 75.401,129.800 75.404 C 135.436 75.408,138.162 76.149,140.354 78.274 L 141.308 79.199 140.632 86.499 C 140.260 90.515,139.862 95.960,139.747 98.600 C 139.632 101.240,139.385 103.760,139.198 104.200 C 139.011 104.640,138.373 106.260,137.780 107.800 C 137.187 109.340,136.381 111.320,135.988 112.200 C 135.595 113.080,135.150 114.340,134.998 115.000 C 134.707 116.266,134.704 116.655,134.952 120.800 C 135.037 122.230,135.311 130.060,135.561 138.200 C 135.811 146.340,136.090 154.350,136.180 156.000 C 136.558 162.909,137.302 171.016,137.638 171.901 C 137.837 172.424,138.001 173.245,138.003 173.726 C 138.008 175.176,139.808 175.752,140.593 174.555 C 140.955 174.002,141.610 173.600,142.147 173.600 C 142.658 173.600,143.392 173.251,143.777 172.825 C 144.314 172.232,144.696 172.132,145.400 172.400 C 146.104 172.668,146.486 172.568,147.023 171.975 C 147.408 171.549,148.101 171.199,148.562 171.198 C 150.382 171.194,152.804 167.703,152.798 165.092 C 152.797 164.601,153.058 163.390,153.378 162.400 C 153.929 160.698,154.850 153.487,156.188 140.400 C 156.515 137.210,156.977 132.890,157.216 130.800 C 157.791 125.769,158.650 116.052,159.390 106.200 C 159.949 98.762,160.249 96.072,161.224 89.767 C 161.431 88.429,161.600 87.214,161.600 87.067 C 161.600 86.920,160.886 86.800,160.014 86.800 C 156.246 86.800,156.726 80.056,160.500 79.971 C 165.517 79.858,167.870 80.105,169.585 80.926 C 173.852 82.970,204.528 81.681,235.276 78.167 C 238.507 77.798,241.456 77.613,241.829 77.756 C 242.771 78.117,248.656 77.311,253.200 76.199 C 255.290 75.687,257.492 75.160,258.093 75.028 C 258.745 74.885,259.425 74.324,259.781 73.637 C 260.567 72.117,260.020 72.018,250.800 72.007 C 240.957 71.995,241.450 72.088,237.762 69.548 C 235.982 68.322,234.053 67.200,233.476 67.055 C 232.251 66.747,229.317 64.834,228.231 63.635 C 227.816 63.176,227.048 62.800,226.525 62.800 C 225.978 62.800,225.000 62.227,224.225 61.452 C 223.424 60.650,222.285 59.992,221.417 59.830 C 220.615 59.679,219.858 59.296,219.736 58.978 C 219.614 58.660,219.106 58.400,218.606 58.400 C 218.107 58.400,217.474 58.130,217.200 57.800 C 216.926 57.470,216.139 57.200,215.451 57.199 C 214.129 57.199,212.731 56.539,210.037 54.645 C 209.133 54.009,207.990 53.430,207.497 53.358 C 205.750 53.101,205.275 52.960,204.740 52.541 C 204.148 52.077,201.713 51.353,198.600 50.718 C 196.378 50.264,191.651 48.973,189.800 48.315 C 189.140 48.080,188.060 47.914,187.400 47.946 C 186.740 47.978,184.940 47.819,183.400 47.594 C 177.503 46.731,172.828 46.294,168.200 46.175 C 160.649 45.982,139.464 45.742,138.800 45.843 M124.453 93.900 C 124.407 95.716,124.292 96.000,123.600 96.000 C 123.012 96.000,122.800 96.267,122.800 97.009 C 122.800 97.687,122.484 98.161,121.834 98.457 C 120.744 98.954,119.821 103.607,120.751 103.917 C 121.620 104.207,121.300 107.200,120.400 107.200 C 119.782 107.200,119.600 107.467,119.600 108.372 C 119.600 109.283,119.400 109.573,118.700 109.672 C 118.205 109.742,117.800 110.070,117.800 110.400 C 117.800 110.730,118.205 111.058,118.700 111.128 C 119.798 111.284,119.819 111.511,118.837 112.574 C 117.475 114.049,117.515 117.767,118.896 117.926 C 119.498 117.996,120.246 118.416,120.558 118.861 L 121.124 119.670 121.389 118.834 C 121.535 118.375,121.994 117.817,122.410 117.595 C 122.840 117.364,123.282 116.546,123.435 115.695 C 123.583 114.873,123.884 113.973,124.104 113.697 C 124.335 113.406,124.530 109.835,124.565 105.242 C 124.608 99.699,124.773 97.114,125.110 96.708 C 125.376 96.388,125.467 96.000,125.313 95.846 C 125.159 95.692,124.915 94.719,124.770 93.683 L 124.507 91.800 124.453 93.900 M127.100 131.410 C 126.994 131.965,127.063 132.515,127.254 132.633 C 127.444 132.751,127.600 132.297,127.600 131.624 C 127.600 130.139,127.363 130.037,127.100 131.410 M125.199 134.806 C 124.941 135.881,124.495 136.955,124.208 137.193 C 123.922 137.431,123.560 138.475,123.405 139.513 C 123.251 140.551,122.849 142.030,122.512 142.800 C 121.668 144.732,121.398 156.961,122.137 159.800 C 122.758 162.186,122.912 161.808,123.601 156.200 C 123.844 154.220,124.202 151.880,124.396 151.000 C 124.589 150.120,124.951 147.690,125.200 145.600 C 125.449 143.510,125.811 141.080,126.006 140.200 C 126.807 136.574,126.933 133.337,126.283 133.087 C 125.813 132.907,125.557 133.312,125.199 134.806 M101.400 302.400 C 101.536 302.620,102.007 302.800,102.447 302.800 C 102.887 302.800,103.136 302.620,103.000 302.400 C 102.864 302.180,102.393 302.000,101.953 302.000 C 101.513 302.000,101.264 302.180,101.400 302.400 M104.181 303.969 C 104.306 304.172,104.947 304.457,105.605 304.601 C 106.262 304.745,106.800 305.007,106.800 305.183 C 106.800 305.359,107.385 305.721,108.100 305.987 C 108.815 306.253,109.899 306.738,110.509 307.063 C 111.855 307.783,118.676 310.284,121.303 311.022 C 122.349 311.316,123.413 311.684,123.666 311.841 C 123.920 311.998,125.133 312.360,126.363 312.647 C 128.796 313.214,132.538 314.153,136.000 315.066 C 137.210 315.385,139.460 315.806,141.000 316.001 C 142.540 316.196,144.786 316.541,145.991 316.768 C 148.409 317.223,151.980 316.909,150.585 316.363 C 150.153 316.194,148.625 316.044,147.189 316.028 C 145.147 316.006,144.437 315.835,143.931 315.244 C 143.491 314.731,142.471 314.394,140.752 314.194 C 139.359 314.033,137.856 313.664,137.410 313.374 C 136.965 313.085,135.610 312.723,134.400 312.571 C 133.190 312.418,132.000 312.136,131.755 311.943 C 131.510 311.751,130.250 311.398,128.955 311.160 C 127.660 310.921,126.385 310.549,126.122 310.332 C 125.858 310.115,124.688 309.693,123.522 309.393 C 122.355 309.093,120.590 308.637,119.600 308.380 C 118.610 308.122,117.030 307.572,116.089 307.156 C 115.148 306.740,113.978 306.399,113.489 306.397 C 113.000 306.396,112.060 306.037,111.400 305.600 C 110.740 305.163,109.739 304.804,109.176 304.803 C 108.614 304.801,107.804 304.536,107.376 304.213 C 106.533 303.575,103.809 303.367,104.181 303.969 " stroke="none" fill="#fbcbcb" fill-rule="evenodd"></path><path id="path3" d="M168.600 25.181 C 167.500 25.360,164.035 25.483,160.900 25.454 C 157.765 25.424,155.200 25.521,155.200 25.669 C 155.200 26.555,146.134 27.424,144.893 26.657 C 144.679 26.525,144.097 26.769,143.600 27.200 C 142.424 28.220,140.530 28.552,137.352 28.297 C 135.143 28.120,134.725 28.194,134.389 28.821 C 133.902 29.730,131.198 30.173,129.000 29.703 C 127.599 29.404,127.349 29.463,126.986 30.181 C 126.627 30.893,126.194 31.000,123.681 31.000 C 121.628 31.000,120.842 31.136,120.971 31.471 C 121.320 32.376,120.046 32.906,117.998 32.709 C 116.514 32.567,116.000 32.653,116.000 33.045 C 116.000 34.136,112.780 34.939,112.196 33.993 C 111.837 33.412,111.200 33.915,111.200 34.781 C 111.200 35.636,110.409 36.032,109.286 35.738 C 108.796 35.610,108.200 35.848,107.719 36.364 C 107.292 36.822,106.446 37.238,105.837 37.289 C 105.229 37.339,104.561 37.700,104.352 38.090 C 104.124 38.515,103.514 38.800,102.833 38.800 C 102.030 38.800,101.632 39.036,101.484 39.600 C 101.353 40.102,100.938 40.400,100.371 40.400 C 99.419 40.400,99.260 40.515,96.400 43.298 C 95.410 44.261,94.265 45.175,93.855 45.329 C 93.332 45.526,93.176 45.865,93.333 46.464 C 93.712 47.916,93.185 49.600,92.350 49.600 C 91.208 49.600,91.249 54.358,92.400 55.400 C 92.840 55.798,93.200 56.437,93.200 56.820 C 93.200 57.203,94.191 58.750,95.403 60.258 C 96.614 61.766,97.966 63.750,98.407 64.667 L 99.208 66.333 98.028 71.667 C 97.379 74.600,96.631 78.170,96.365 79.600 C 96.099 81.030,95.532 83.550,95.104 85.200 C 94.132 88.945,93.288 92.619,93.024 94.245 C 92.913 94.930,92.649 95.944,92.439 96.498 C 92.228 97.051,91.691 99.504,91.245 101.948 C 90.798 104.391,90.266 106.708,90.061 107.095 C 89.857 107.483,89.469 108.872,89.200 110.181 C 88.930 111.491,88.478 113.111,88.196 113.781 C 87.248 116.032,85.355 123.315,84.590 127.656 C 84.469 128.346,84.186 129.252,83.962 129.671 C 83.738 130.089,83.493 132.051,83.417 134.031 C 83.289 137.385,82.529 141.200,81.990 141.200 C 81.861 141.200,81.722 143.135,81.682 145.500 C 81.599 150.368,81.107 152.151,79.947 151.783 C 79.123 151.522,78.957 151.997,79.635 152.675 C 80.791 153.831,80.016 163.966,78.745 164.298 C 78.153 164.453,78.049 164.694,78.289 165.350 C 78.776 166.680,78.661 176.299,78.152 176.808 C 77.587 177.373,77.862 183.410,78.506 184.559 C 79.292 185.965,79.988 188.142,79.994 189.220 C 79.997 189.781,80.163 190.411,80.363 190.620 C 81.113 191.406,82.179 204.731,81.802 208.600 C 81.673 209.920,81.776 212.260,82.030 213.800 C 82.285 215.340,82.556 218.130,82.632 220.000 C 82.708 221.870,82.795 223.670,82.826 224.000 C 82.857 224.330,82.504 225.663,82.041 226.963 C 80.664 230.831,81.153 231.917,83.722 230.693 C 87.042 229.111,88.445 228.890,89.222 229.827 C 89.484 230.142,90.295 230.400,91.025 230.400 C 91.755 230.400,92.464 230.580,92.601 230.801 C 92.766 231.069,93.097 231.069,93.598 230.801 C 94.010 230.580,94.789 230.400,95.328 230.400 C 95.867 230.400,96.824 230.131,97.454 229.802 C 98.084 229.474,99.164 229.204,99.854 229.202 C 100.544 229.201,101.624 228.931,102.254 228.602 C 102.884 228.274,103.964 228.004,104.654 228.002 C 105.344 228.001,106.424 227.731,107.054 227.402 C 107.684 227.074,108.583 226.804,109.051 226.802 C 109.519 226.801,110.127 226.528,110.403 226.196 C 110.678 225.864,111.616 225.479,112.486 225.340 C 113.357 225.201,114.156 224.859,114.263 224.579 C 114.370 224.300,114.901 223.961,115.443 223.825 C 115.985 223.689,116.610 223.178,116.831 222.689 C 117.053 222.200,117.494 221.350,117.811 220.800 C 118.129 220.250,118.394 219.080,118.400 218.200 C 118.424 214.952,121.372 208.800,122.904 208.800 C 123.107 208.800,123.731 208.440,124.291 208.000 C 124.850 207.560,125.809 207.200,126.421 207.200 C 127.033 207.200,127.602 206.993,127.686 206.741 C 127.800 206.399,128.395 206.410,130.020 206.786 C 133.502 207.591,134.000 208.059,134.000 210.520 C 134.000 211.809,134.250 212.979,134.647 213.546 C 135.137 214.245,135.233 214.971,135.044 216.535 C 134.907 217.671,134.442 221.390,134.010 224.800 C 133.011 232.708,132.165 242.413,131.396 254.800 C 131.061 260.190,130.590 265.990,130.348 267.688 C 129.915 270.728,129.925 270.795,130.954 272.019 C 132.030 273.297,132.052 273.431,132.154 279.263 C 132.205 282.209,132.882 283.132,135.681 284.071 C 136.407 284.314,137.270 284.738,137.600 285.012 C 137.930 285.286,138.830 285.639,139.600 285.795 C 140.370 285.951,141.370 286.312,141.822 286.597 C 142.601 287.089,146.167 288.200,148.453 288.664 C 149.940 288.965,150.171 288.382,150.405 283.727 C 150.586 280.132,150.723 279.534,151.571 278.631 C 152.353 277.799,152.458 277.439,152.133 276.704 C 151.875 276.119,151.851 273.050,152.066 268.000 C 152.478 258.317,152.554 223.844,152.179 217.528 C 151.922 213.209,151.964 212.753,152.739 211.498 C 153.362 210.490,153.678 209.017,153.965 205.771 C 154.178 203.367,154.533 200.050,154.753 198.400 C 155.688 191.409,156.029 186.241,156.415 173.200 C 156.670 164.586,157.031 158.423,157.374 156.800 C 157.676 155.370,158.042 152.940,158.187 151.400 C 158.332 149.860,158.689 147.880,158.980 147.000 C 159.272 146.120,160.019 143.780,160.640 141.800 C 161.261 139.820,162.000 137.750,162.282 137.200 C 162.564 136.650,162.796 135.909,162.798 135.554 C 162.799 135.199,163.160 134.450,163.600 133.891 C 164.040 133.331,164.400 132.685,164.400 132.454 C 164.400 131.914,167.997 125.067,168.426 124.792 C 168.604 124.677,168.945 124.137,169.183 123.592 C 169.421 123.046,170.149 121.790,170.800 120.800 C 171.451 119.810,172.156 118.614,172.366 118.142 C 172.576 117.670,172.895 117.220,173.074 117.142 C 173.253 117.064,173.940 116.196,174.600 115.213 C 175.260 114.231,176.070 113.126,176.400 112.759 C 176.730 112.391,177.667 111.305,178.483 110.345 C 181.585 106.695,189.600 98.800,190.204 98.800 C 190.370 98.800,191.078 98.193,191.778 97.451 C 192.478 96.708,193.421 95.984,193.873 95.840 C 194.325 95.697,195.016 95.224,195.409 94.790 C 195.802 94.355,196.357 94.000,196.642 94.000 C 196.927 94.000,197.304 93.771,197.480 93.492 C 197.656 93.212,198.250 92.763,198.800 92.494 C 199.350 92.226,200.070 91.824,200.400 91.603 C 200.730 91.381,201.450 91.020,202.000 90.801 C 203.025 90.392,203.824 89.942,205.634 88.753 C 206.202 88.380,207.282 87.887,208.034 87.659 C 208.785 87.430,210.660 86.766,212.200 86.182 C 218.190 83.911,225.269 82.259,231.000 81.795 C 232.760 81.652,235.010 81.351,236.000 81.126 C 238.394 80.582,240.014 80.634,240.608 81.275 C 241.493 82.230,242.729 88.948,242.771 93.036 C 242.810 96.857,243.944 108.504,244.312 108.872 C 245.104 109.664,250.157 101.131,251.379 96.936 C 251.518 96.461,251.894 95.854,252.215 95.587 C 252.537 95.320,252.801 94.809,252.802 94.451 C 252.804 94.093,253.074 93.284,253.402 92.654 C 253.731 92.024,254.000 91.013,254.000 90.408 C 254.000 89.803,254.320 88.879,254.711 88.354 C 255.926 86.724,256.587 84.365,255.944 83.957 C 255.554 83.710,255.683 83.607,256.400 83.593 C 257.350 83.575,257.363 83.546,256.650 83.006 C 256.226 82.686,256.001 82.175,256.132 81.832 C 256.260 81.499,256.170 81.105,255.931 80.957 C 255.648 80.783,255.724 80.563,256.149 80.325 C 256.507 80.124,256.800 79.719,256.800 79.423 C 256.800 79.128,257.205 78.785,257.700 78.660 C 258.195 78.535,259.408 77.701,260.395 76.806 C 262.498 74.901,263.509 74.585,269.400 73.995 C 272.709 73.663,274.941 73.154,278.400 71.940 C 280.930 71.052,283.630 70.145,284.400 69.924 C 285.170 69.702,286.430 69.205,287.200 68.817 C 287.970 68.430,289.770 67.534,291.200 66.825 C 295.311 64.789,299.197 62.318,300.600 60.848 C 302.432 58.929,302.711 58.558,302.976 57.700 C 303.349 56.492,302.858 56.528,298.337 58.043 C 294.443 59.347,293.205 59.393,289.200 58.378 C 288.210 58.128,285.600 57.750,283.400 57.540 C 281.200 57.330,278.590 56.897,277.600 56.577 C 276.610 56.258,275.298 55.997,274.685 55.998 C 274.072 55.999,271.511 55.538,268.995 54.973 C 266.478 54.409,263.469 53.885,262.309 53.808 C 260.400 53.683,256.441 53.047,251.000 51.991 C 249.900 51.778,247.728 51.435,246.173 51.229 C 244.087 50.953,243.037 50.591,242.173 49.848 C 240.574 48.475,233.256 42.654,230.014 40.176 C 228.558 39.063,226.520 37.742,225.485 37.241 C 224.451 36.741,223.503 36.166,223.378 35.964 C 223.162 35.615,219.900 34.000,219.409 34.000 C 219.280 34.000,218.505 33.701,217.687 33.336 C 216.869 32.971,216.110 32.641,216.000 32.603 C 215.890 32.564,215.350 32.344,214.800 32.114 C 214.250 31.884,213.103 31.404,212.251 31.048 C 211.399 30.691,210.310 30.400,209.831 30.400 C 209.352 30.400,208.789 30.231,208.580 30.024 C 208.179 29.628,204.472 28.765,198.800 27.748 C 196.930 27.413,194.540 26.863,193.489 26.525 C 190.313 25.505,172.504 24.543,168.600 25.181 M168.200 46.175 C 172.828 46.294,177.503 46.731,183.400 47.594 C 184.940 47.819,186.740 47.978,187.400 47.946 C 188.060 47.914,189.140 48.080,189.800 48.315 C 191.651 48.973,196.378 50.264,198.600 50.718 C 201.713 51.353,204.148 52.077,204.740 52.541 C 205.275 52.960,205.750 53.101,207.497 53.358 C 207.990 53.430,209.133 54.009,210.037 54.645 C 212.731 56.539,214.129 57.199,215.451 57.199 C 216.139 57.200,216.926 57.470,217.200 57.800 C 217.474 58.130,218.107 58.400,218.606 58.400 C 219.106 58.400,219.614 58.660,219.736 58.978 C 219.858 59.296,220.615 59.679,221.417 59.830 C 222.285 59.992,223.424 60.650,224.225 61.452 C 225.000 62.227,225.978 62.800,226.525 62.800 C 227.048 62.800,227.816 63.176,228.231 63.635 C 229.317 64.834,232.251 66.747,233.476 67.055 C 234.053 67.200,235.982 68.322,237.762 69.548 C 241.450 72.088,240.957 71.995,250.800 72.007 C 260.020 72.018,260.567 72.117,259.781 73.637 C 259.425 74.324,258.745 74.885,258.093 75.028 C 257.492 75.160,255.290 75.687,253.200 76.199 C 248.656 77.311,242.771 78.117,241.829 77.756 C 241.456 77.613,238.507 77.798,235.276 78.167 C 204.528 81.681,173.852 82.970,169.585 80.926 C 167.870 80.105,165.517 79.858,160.500 79.971 C 156.726 80.056,156.246 86.800,160.014 86.800 C 160.886 86.800,161.600 86.920,161.600 87.067 C 161.600 87.214,161.431 88.429,161.224 89.767 C 160.249 96.072,159.949 98.762,159.390 106.200 C 158.650 116.052,157.791 125.769,157.216 130.800 C 156.977 132.890,156.515 137.210,156.188 140.400 C 154.850 153.487,153.929 160.698,153.378 162.400 C 153.058 163.390,152.797 164.601,152.798 165.092 C 152.804 167.703,150.382 171.194,148.562 171.198 C 148.101 171.199,147.408 171.549,147.023 171.975 C 146.486 172.568,146.104 172.668,145.400 172.400 C 144.696 172.132,144.314 172.232,143.777 172.825 C 143.392 173.251,142.658 173.600,142.147 173.600 C 141.610 173.600,140.955 174.002,140.593 174.555 C 139.808 175.752,138.008 175.176,138.003 173.726 C 138.001 173.245,137.837 172.424,137.638 171.901 C 137.302 171.016,136.558 162.909,136.180 156.000 C 136.090 154.350,135.811 146.340,135.561 138.200 C 135.311 130.060,135.037 122.230,134.952 120.800 C 134.704 116.655,134.707 116.266,134.998 115.000 C 135.150 114.340,135.595 113.080,135.988 112.200 C 136.381 111.320,137.187 109.340,137.780 107.800 C 138.373 106.260,139.011 104.640,139.198 104.200 C 139.385 103.760,139.632 101.240,139.747 98.600 C 139.862 95.960,140.260 90.515,140.632 86.499 L 141.308 79.199 140.354 78.274 C 138.162 76.149,135.436 75.408,129.800 75.404 C 125.672 75.401,124.394 75.265,123.600 74.748 C 123.050 74.389,122.066 73.971,121.414 73.818 C 120.762 73.666,119.412 73.176,118.414 72.729 C 117.416 72.281,115.970 71.658,115.200 71.343 C 111.483 69.822,105.204 66.418,103.217 64.846 C 100.139 62.410,95.600 57.424,95.600 56.479 C 95.600 56.237,95.314 55.880,94.964 55.684 C 94.596 55.478,94.385 54.949,94.464 54.430 L 94.600 53.533 96.191 54.617 C 99.796 57.071,102.350 57.217,105.422 55.144 C 106.354 54.515,107.484 54.000,107.934 54.000 C 108.385 54.000,108.867 53.816,109.006 53.591 C 109.380 52.985,114.372 50.800,115.380 50.800 C 115.859 50.800,117.151 50.366,118.251 49.835 C 119.352 49.304,121.411 48.661,122.826 48.406 C 124.242 48.151,125.850 47.712,126.400 47.430 C 126.950 47.148,129.830 46.696,132.800 46.425 C 135.770 46.155,138.470 45.893,138.800 45.843 C 139.464 45.742,160.649 45.982,168.200 46.175 M125.313 95.846 C 125.467 96.000,125.376 96.388,125.110 96.708 C 124.773 97.114,124.608 99.699,124.565 105.242 C 124.530 109.835,124.335 113.406,124.104 113.697 C 123.884 113.973,123.583 114.873,123.435 115.695 C 123.282 116.546,122.840 117.364,122.410 117.595 C 121.994 117.817,121.535 118.375,121.389 118.834 L 121.124 119.670 120.558 118.861 C 120.246 118.416,119.498 117.996,118.896 117.926 C 117.515 117.767,117.475 114.049,118.837 112.574 C 119.819 111.511,119.798 111.284,118.700 111.128 C 118.205 111.058,117.800 110.730,117.800 110.400 C 117.800 110.070,118.205 109.742,118.700 109.672 C 119.400 109.573,119.600 109.283,119.600 108.372 C 119.600 107.467,119.782 107.200,120.400 107.200 C 121.300 107.200,121.620 104.207,120.751 103.917 C 119.821 103.607,120.744 98.954,121.834 98.457 C 122.484 98.161,122.800 97.687,122.800 97.009 C 122.800 96.267,123.012 96.000,123.600 96.000 C 124.292 96.000,124.407 95.716,124.453 93.900 L 124.507 91.800 124.770 93.683 C 124.915 94.719,125.159 95.692,125.313 95.846 M247.214 121.974 C 246.986 122.399,246.800 123.131,246.800 123.600 C 246.800 124.069,246.609 124.809,246.377 125.244 C 245.234 127.380,244.064 205.098,245.165 205.778 C 245.976 206.279,247.318 205.685,249.168 204.005 C 250.140 203.122,251.220 202.404,251.568 202.408 C 253.116 202.427,257.779 203.250,258.169 203.573 C 258.864 204.148,265.375 204.607,265.035 204.057 C 264.880 203.806,264.499 203.600,264.189 203.600 C 263.878 203.600,262.944 203.257,262.112 202.838 C 261.281 202.419,259.598 201.960,258.374 201.818 C 254.057 201.319,252.843 199.909,254.736 197.591 C 257.627 194.049,261.200 189.054,261.200 188.554 C 261.200 188.249,261.351 188.000,261.536 188.000 C 261.721 188.000,262.387 186.695,263.016 185.100 C 263.644 183.505,264.393 181.845,264.679 181.411 C 265.365 180.373,265.341 176.526,264.613 170.588 C 264.290 167.955,263.846 163.550,263.627 160.800 C 262.938 152.159,261.978 144.326,261.175 140.781 C 260.749 138.900,260.400 136.903,260.400 136.343 C 260.400 135.782,260.040 134.998,259.600 134.600 C 259.160 134.202,258.800 133.454,258.800 132.938 C 258.800 132.267,258.573 132.000,258.000 132.000 C 257.546 132.000,257.200 131.733,257.200 131.384 C 257.200 131.045,256.840 130.062,256.400 129.200 C 255.960 128.338,255.600 127.203,255.600 126.678 C 255.600 125.274,254.398 124.400,252.469 124.400 C 251.067 124.400,250.800 124.272,250.800 123.600 C 250.800 123.071,250.533 122.800,250.014 122.800 C 249.582 122.800,249.035 122.440,248.800 122.000 C 248.261 120.992,247.744 120.983,247.214 121.974 M127.600 131.624 C 127.600 132.297,127.444 132.751,127.254 132.633 C 126.931 132.434,127.107 130.400,127.447 130.400 C 127.531 130.400,127.600 130.951,127.600 131.624 M126.629 135.962 C 126.480 137.413,126.200 139.320,126.006 140.200 C 125.811 141.080,125.449 143.510,125.200 145.600 C 124.951 147.690,124.589 150.120,124.396 151.000 C 124.202 151.880,123.844 154.220,123.601 156.200 C 122.912 161.808,122.758 162.186,122.137 159.800 C 121.398 156.961,121.668 144.732,122.512 142.800 C 122.849 142.030,123.251 140.551,123.405 139.513 C 123.560 138.475,123.922 137.431,124.208 137.193 C 124.495 136.955,124.941 135.881,125.199 134.806 C 125.955 131.651,126.984 132.482,126.629 135.962 M214.600 140.071 C 210.760 141.495,208.186 145.463,208.290 149.800 C 208.327 151.340,208.503 162.860,208.680 175.400 L 209.003 198.200 210.118 200.200 C 213.501 206.268,215.988 207.460,216.010 203.024 C 216.020 200.878,217.101 197.133,218.190 195.472 C 218.776 194.577,218.798 193.758,218.401 187.537 C 217.261 169.658,217.176 151.934,218.217 149.000 C 218.374 148.560,219.110 146.644,219.854 144.742 C 221.327 140.978,221.286 140.002,219.657 139.996 C 219.076 139.993,217.970 139.909,217.200 139.809 C 216.430 139.709,215.260 139.827,214.600 140.071 M237.082 151.730 C 236.379 153.563,236.846 198.000,237.568 198.000 C 237.979 198.000,238.429 197.702,238.569 197.337 C 238.890 196.500,238.874 152.659,238.552 151.820 C 238.261 151.061,237.360 151.006,237.082 151.730 M126.831 188.692 C 127.254 188.803,127.600 189.108,127.600 189.371 C 127.600 189.634,128.112 190.228,128.739 190.691 C 129.365 191.154,130.204 192.223,130.603 193.067 C 131.002 193.910,131.667 195.059,132.081 195.621 C 132.573 196.288,132.917 197.640,133.075 199.528 L 133.317 202.414 131.759 203.790 C 130.901 204.547,129.810 205.174,129.333 205.183 C 128.028 205.208,127.200 205.620,127.200 206.243 C 127.200 206.919,123.054 207.029,121.392 206.397 C 120.137 205.920,120.239 200.733,121.541 198.844 C 122.607 197.297,122.668 197.138,123.402 194.000 C 123.787 192.350,124.432 190.347,124.834 189.550 C 125.237 188.752,125.461 187.995,125.333 187.867 C 125.206 187.739,125.248 187.312,125.427 186.917 C 125.698 186.320,125.778 186.392,125.907 187.346 C 126.003 188.057,126.353 188.567,126.831 188.692 M217.299 216.861 C 216.208 217.952,216.696 219.600,218.300 220.238 C 219.125 220.567,220.160 220.996,220.600 221.193 C 221.040 221.389,221.805 221.663,222.300 221.802 C 224.342 222.374,223.283 223.200,220.500 223.206 C 216.574 223.215,215.315 225.364,218.751 226.192 C 222.426 227.077,222.800 227.246,222.800 228.015 C 222.800 228.725,222.514 228.800,219.800 228.800 C 215.826 228.800,215.482 229.966,218.940 231.716 C 222.489 233.514,223.228 233.278,223.689 230.200 C 223.764 229.695,224.175 229.349,224.804 229.262 C 225.352 229.185,225.944 228.870,226.120 228.562 C 226.296 228.253,227.050 228.000,227.796 228.000 C 228.542 228.000,229.264 227.820,229.400 227.600 C 229.555 227.350,228.703 227.198,227.124 227.194 C 223.993 227.186,223.504 226.898,223.670 225.161 C 223.765 224.174,224.017 223.770,224.600 223.673 C 228.714 222.986,229.164 222.275,225.838 221.721 C 224.344 221.472,223.848 221.209,223.762 220.621 C 223.475 218.666,223.111 217.975,222.094 217.455 C 220.405 216.590,217.882 216.278,217.299 216.861 M159.875 222.658 C 159.505 223.028,159.534 232.882,159.906 233.442 C 160.068 233.685,160.872 234.103,161.694 234.371 C 162.516 234.639,163.292 235.025,163.418 235.229 C 163.544 235.433,163.972 235.600,164.370 235.600 C 165.797 235.600,167.200 237.147,167.205 238.729 C 167.208 239.538,167.309 240.566,167.429 241.013 C 167.661 241.874,170.917 243.600,172.308 243.600 C 172.745 243.600,173.326 243.870,173.600 244.200 C 173.901 244.562,174.776 244.800,175.809 244.800 L 177.519 244.800 177.787 239.700 C 177.935 236.895,178.226 233.589,178.436 232.353 C 178.840 229.963,178.634 228.800,177.806 228.800 C 177.527 228.800,177.061 228.515,176.772 228.166 C 176.482 227.817,175.560 227.257,174.723 226.922 C 173.885 226.587,173.200 226.153,173.200 225.957 C 173.200 225.760,172.992 225.600,172.739 225.600 C 172.485 225.600,171.298 225.137,170.102 224.571 C 168.147 223.646,167.859 223.603,167.258 224.147 C 166.488 224.844,163.311 224.085,160.375 222.505 C 160.251 222.438,160.026 222.507,159.875 222.658 M111.532 233.700 C 111.494 234.635,111.449 235.785,111.432 236.256 C 111.414 236.726,111.085 237.460,110.700 237.887 C 110.313 238.316,110.000 239.292,110.000 240.070 C 110.000 240.951,109.712 241.737,109.228 242.175 C 108.686 242.665,108.373 243.667,108.179 245.537 C 107.798 249.212,106.240 250.220,104.588 247.862 C 104.010 247.037,104.000 247.042,104.000 248.140 C 104.000 248.754,104.270 249.527,104.600 249.857 C 104.930 250.187,105.200 250.885,105.200 251.409 C 105.200 251.932,105.425 252.504,105.700 252.680 C 105.975 252.856,106.380 253.288,106.600 253.640 C 108.881 257.291,112.578 261.200,113.750 261.200 C 114.071 261.200,114.414 261.425,114.512 261.700 C 115.076 263.280,115.205 261.241,114.662 259.308 C 114.156 257.504,114.094 256.467,114.380 254.597 C 115.588 246.713,115.325 233.600,113.959 233.600 C 113.467 233.600,113.200 233.319,113.200 232.800 C 113.200 231.005,111.605 231.865,111.532 233.700 M223.707 233.700 C 223.928 234.334,228.266 234.294,228.908 233.652 C 229.244 233.316,228.611 233.200,226.447 233.200 C 224.290 233.200,223.579 233.330,223.707 233.700 M217.500 234.832 C 216.594 235.360,216.617 235.817,217.600 236.800 C 219.104 238.304,223.200 237.619,223.200 235.864 C 223.200 234.593,219.164 233.863,217.500 234.832 M97.366 300.454 C 97.248 300.645,97.658 300.989,98.276 301.219 C 98.894 301.448,99.580 301.865,99.800 302.144 C 100.314 302.797,110.687 307.865,112.230 308.217 C 113.456 308.496,110.616 306.976,108.100 306.005 C 107.385 305.729,106.800 305.359,106.800 305.183 C 106.800 305.007,106.262 304.745,105.605 304.601 C 104.947 304.457,104.306 304.172,104.181 303.969 C 103.809 303.367,106.533 303.575,107.376 304.213 C 107.804 304.536,108.614 304.792,109.176 304.782 C 110.203 304.765,109.315 304.328,106.000 303.221 C 105.450 303.037,104.460 302.599,103.800 302.246 C 103.140 301.893,102.325 301.604,101.989 301.602 C 101.653 301.601,101.023 301.356,100.589 301.058 C 99.580 300.365,97.645 300.003,97.366 300.454 M103.000 302.400 C 103.136 302.620,102.887 302.800,102.447 302.800 C 102.007 302.800,101.536 302.620,101.400 302.400 C 101.264 302.180,101.513 302.000,101.953 302.000 C 102.393 302.000,102.864 302.180,103.000 302.400 M111.400 305.555 C 112.060 306.017,113.050 306.388,113.600 306.380 C 114.639 306.364,114.606 306.347,111.000 305.012 C 110.560 304.849,110.740 305.093,111.400 305.555 M116.000 307.200 C 116.770 307.622,117.850 307.956,118.400 307.942 C 119.303 307.920,119.284 307.890,118.200 307.629 C 117.540 307.469,116.607 307.128,116.126 306.869 C 115.646 306.611,115.106 306.408,114.926 306.417 C 114.747 306.426,115.230 306.778,116.000 307.200 M120.746 308.616 C 121.486 308.937,122.206 309.194,122.346 309.186 C 122.866 309.157,120.576 308.028,120.000 308.030 C 119.670 308.031,120.006 308.294,120.746 308.616 M113.755 308.689 C 114.276 309.210,120.575 311.446,123.800 312.254 C 125.489 312.678,123.230 311.564,121.291 311.017 C 120.251 310.723,118.140 310.018,116.600 309.450 C 113.532 308.318,113.331 308.264,113.755 308.689 M125.824 310.187 C 126.251 310.510,126.870 310.774,127.200 310.773 C 127.548 310.772,127.380 310.532,126.800 310.200 C 125.485 309.448,124.836 309.440,125.824 310.187 M126.400 312.962 C 127.390 313.260,128.707 313.705,129.326 313.952 C 129.945 314.198,130.845 314.394,131.326 314.387 C 132.504 314.369,128.212 312.900,126.200 312.633 L 124.600 312.420 126.400 312.962 M137.424 313.387 C 137.851 313.710,138.650 313.972,139.200 313.970 C 139.994 313.966,139.871 313.846,138.600 313.388 C 136.587 312.663,136.466 312.663,137.424 313.387 M133.600 314.878 C 136.492 315.696,147.888 317.567,150.076 317.583 C 153.143 317.606,153.920 316.621,151.171 316.197 C 150.206 316.047,150.032 316.086,150.585 316.328 C 151.921 316.911,148.495 317.239,145.991 316.768 C 144.786 316.542,142.450 316.185,140.800 315.975 C 139.150 315.766,137.003 315.326,136.029 314.997 C 135.055 314.669,133.795 314.418,133.229 314.441 C 132.334 314.477,132.383 314.534,133.600 314.878 M143.893 315.200 C 144.448 315.849,145.034 315.991,146.989 315.950 C 149.256 315.903,149.304 315.882,147.800 315.609 C 146.920 315.449,145.693 315.111,145.074 314.859 C 143.446 314.196,143.115 314.291,143.893 315.200 M153.400 318.000 C 154.554 318.496,160.107 318.496,159.800 318.000 C 159.664 317.779,157.995 317.613,156.076 317.628 C 153.762 317.647,152.867 317.771,153.400 318.000 " stroke="none" fill="#f08e8e" fill-rule="evenodd"></path><path id="path4" d="M233.427 217.300 C 233.581 217.795,233.859 218.298,234.044 218.417 C 234.229 218.537,234.434 218.987,234.499 219.417 C 234.742 221.005,235.404 220.349,235.521 218.405 C 235.642 216.401,235.641 216.400,234.394 216.400 C 233.283 216.400,233.177 216.499,233.427 217.300 M211.600 219.400 C 211.600 219.791,211.983 219.996,212.700 219.987 C 213.754 219.975,213.767 219.950,213.024 219.387 C 212.034 218.639,211.600 218.643,211.600 219.400 M234.543 224.300 C 234.680 225.125,234.814 226.160,234.842 226.600 C 234.869 227.040,235.027 226.698,235.193 225.840 C 235.528 224.102,235.317 222.800,234.701 222.800 C 234.455 222.800,234.393 223.390,234.543 224.300 M69.774 224.893 C 69.915 225.543,69.685 226.916,69.206 228.279 C 68.611 229.972,68.395 231.623,68.382 234.586 C 68.371 237.114,68.145 239.192,67.770 240.200 C 67.061 242.106,66.447 251.146,66.684 256.200 C 66.857 259.903,67.251 260.957,71.241 268.374 C 74.303 274.067,89.555 288.000,92.726 288.000 C 92.987 288.000,93.200 288.178,93.200 288.395 C 93.200 288.612,93.785 289.063,94.500 289.397 C 95.215 289.732,97.627 290.949,99.861 292.103 C 102.094 293.256,104.614 294.506,105.461 294.880 C 109.988 296.878,110.810 297.200,111.392 297.200 C 111.742 297.200,112.427 297.452,112.914 297.761 C 113.401 298.069,114.430 298.452,115.200 298.612 C 115.970 298.772,116.955 299.149,117.389 299.451 C 117.823 299.753,118.633 299.996,119.189 299.991 C 120.425 299.980,117.800 298.681,115.554 298.192 C 114.809 298.030,113.845 297.651,113.411 297.349 C 112.977 297.047,112.374 296.800,112.071 296.800 C 111.769 296.800,110.864 296.506,110.060 296.147 C 109.257 295.788,107.790 295.137,106.800 294.700 C 104.149 293.532,97.243 290.057,95.400 288.965 C 94.520 288.443,93.530 287.889,93.200 287.733 C 92.870 287.577,91.790 286.885,90.800 286.194 C 89.810 285.504,87.847 284.153,86.438 283.192 C 84.236 281.690,75.781 273.681,74.600 271.977 C 72.450 268.875,70.798 266.323,70.787 266.087 C 70.767 265.615,68.516 261.222,67.937 260.524 C 67.076 259.485,67.196 246.241,68.100 242.521 C 68.485 240.938,68.800 238.566,68.800 237.250 C 68.800 235.935,69.160 233.032,69.600 230.800 C 70.509 226.188,70.562 225.246,69.962 224.400 C 69.633 223.937,69.590 224.050,69.774 224.893 M211.552 225.900 C 211.399 231.261,211.490 232.383,212.014 231.600 C 212.235 231.270,212.380 229.950,212.337 228.667 C 212.281 227.014,212.424 226.230,212.829 225.974 C 213.354 225.641,213.061 225.425,212.270 225.563 C 212.089 225.594,212.032 225.472,212.144 225.291 C 212.256 225.110,212.182 224.700,211.980 224.381 C 211.726 223.980,211.594 224.452,211.552 225.900 M56.608 256.304 C 56.454 257.127,56.159 258.005,55.951 258.256 C 55.691 258.572,55.939 258.840,56.754 259.124 C 57.826 259.498,57.960 259.750,58.215 261.868 C 58.369 263.150,58.720 264.470,58.994 264.800 C 59.268 265.130,59.621 265.938,59.778 266.596 C 59.935 267.254,60.188 267.884,60.341 267.996 C 60.494 268.108,61.094 269.132,61.675 270.270 C 65.222 277.224,77.733 290.220,88.600 298.237 C 89.040 298.562,90.055 299.316,90.855 299.914 C 91.655 300.511,92.714 301.270,93.208 301.600 C 94.575 302.513,96.020 304.094,96.431 305.126 C 96.644 305.661,96.800 318.088,96.800 334.546 C 96.800 364.818,96.822 365.190,98.654 365.197 C 99.124 365.199,99.803 365.650,100.163 366.200 C 100.524 366.750,101.168 367.200,101.595 367.200 C 102.022 367.200,102.557 367.545,102.783 367.967 C 103.009 368.390,103.735 368.854,104.397 368.999 C 105.814 369.311,105.927 369.942,104.746 370.954 C 104.053 371.547,103.996 371.752,104.446 372.037 C 105.300 372.578,105.534 372.476,105.672 371.500 C 105.778 370.757,106.009 370.624,107.000 370.739 C 108.573 370.921,108.642 371.023,108.125 372.392 C 107.554 373.906,107.917 374.217,109.033 373.169 C 109.739 372.505,110.088 372.419,110.710 372.752 C 111.141 372.983,111.571 373.096,111.664 373.003 C 111.756 372.910,111.860 373.201,111.894 373.649 C 112.022 375.350,114.000 376.430,114.000 374.800 C 114.000 374.267,114.267 374.000,114.800 374.000 C 115.560 374.000,115.774 374.385,115.631 375.494 C 115.596 375.765,115.821 375.890,116.131 375.771 C 116.462 375.644,116.774 375.857,116.887 376.288 C 117.240 377.638,119.065 377.277,118.847 375.900 C 118.821 375.735,119.078 375.600,119.418 375.600 C 119.757 375.600,119.996 375.825,119.948 376.100 C 119.637 377.893,121.713 379.329,123.100 378.280 C 123.439 378.023,123.613 378.078,123.640 378.451 C 123.662 378.753,123.824 378.550,124.000 378.000 C 124.288 377.101,124.324 377.086,124.360 377.851 C 124.382 378.319,124.705 378.949,125.077 379.251 C 125.659 379.724,125.711 379.717,125.447 379.200 C 125.217 378.749,125.273 378.760,125.672 379.242 C 126.832 380.643,128.277 380.557,128.047 379.100 C 128.021 378.935,128.360 378.800,128.800 378.800 C 129.240 378.800,129.600 378.996,129.600 379.236 C 129.600 381.040,132.806 382.520,134.224 381.370 C 134.651 381.024,134.730 380.870,134.400 381.029 C 133.933 381.253,133.903 381.205,134.265 380.814 C 134.807 380.226,135.600 380.589,135.600 381.424 C 135.600 381.748,135.979 382.000,136.467 382.000 C 136.943 382.000,137.215 382.118,137.070 382.263 C 136.925 382.408,136.996 382.754,137.227 383.032 C 137.745 383.657,139.641 383.375,140.244 382.583 C 140.774 381.888,142.443 381.797,142.300 382.471 C 142.245 382.730,142.740 383.134,143.400 383.368 C 144.060 383.602,144.819 384.086,145.086 384.444 C 145.612 385.148,147.783 385.019,147.344 384.310 C 146.967 383.700,147.981 383.258,149.445 383.394 C 150.787 383.519,153.200 384.954,153.200 385.627 C 153.200 385.832,153.455 386.000,153.767 386.000 C 154.078 386.000,154.403 386.209,154.488 386.464 C 154.577 386.732,155.186 386.395,155.935 385.664 C 156.646 384.969,157.446 384.399,157.714 384.398 C 157.981 384.397,158.875 384.208,159.700 383.979 L 161.200 383.562 161.200 353.028 L 161.200 322.493 162.300 322.218 C 162.905 322.067,170.330 321.793,178.800 321.610 C 187.270 321.428,194.290 321.257,194.400 321.230 C 195.560 320.953,190.213 319.481,187.003 319.195 C 181.337 318.689,175.734 318.076,170.400 317.380 C 167.870 317.050,164.360 316.594,162.600 316.368 C 142.786 313.814,116.526 306.150,100.400 298.214 C 96.574 296.331,91.599 293.649,90.000 292.607 C 89.230 292.106,87.304 290.864,85.721 289.847 C 73.759 282.170,64.622 272.233,60.398 262.306 C 59.717 260.708,58.810 258.660,58.380 257.756 C 57.951 256.852,57.600 255.918,57.600 255.680 C 57.600 254.519,56.854 254.989,56.608 256.304 M100.589 301.058 C 101.023 301.356,101.653 301.601,101.989 301.602 C 102.325 301.604,103.140 301.888,103.800 302.235 C 104.978 302.853,106.617 303.496,109.800 304.586 C 110.680 304.887,112.660 305.608,114.200 306.189 C 115.740 306.769,117.900 307.486,119.000 307.781 C 120.972 308.311,121.448 308.460,125.400 309.788 C 126.500 310.158,128.120 310.615,129.000 310.804 C 129.880 310.993,131.269 311.429,132.087 311.774 C 132.905 312.118,134.081 312.400,134.701 312.400 C 135.321 312.400,136.852 312.760,138.104 313.200 C 139.356 313.640,140.705 314.000,141.103 314.000 C 141.500 314.000,142.810 314.279,144.013 314.620 C 145.216 314.962,147.613 315.490,149.341 315.795 C 152.718 316.390,153.021 316.518,152.616 317.173 C 151.898 318.336,135.466 315.891,127.800 313.480 C 126.700 313.134,124.450 312.462,122.800 311.987 C 120.066 311.198,115.815 309.695,113.800 308.804 C 113.360 308.609,112.550 308.327,112.000 308.175 C 110.426 307.742,100.245 302.709,99.800 302.144 C 99.580 301.865,98.894 301.448,98.276 301.219 C 97.658 300.989,97.248 300.645,97.366 300.454 C 97.645 300.003,99.580 300.365,100.589 301.058 M122.000 300.714 C 125.871 302.343,131.381 303.986,136.400 305.009 C 139.544 305.650,142.209 306.256,145.373 307.049 C 146.678 307.376,149.558 307.813,151.773 308.019 C 153.988 308.225,156.520 308.571,157.400 308.788 C 158.280 309.004,159.540 309.163,160.200 309.140 C 161.716 309.089,159.837 308.681,155.000 308.010 C 149.096 307.191,141.177 305.623,134.600 303.971 C 133.720 303.750,132.010 303.322,130.800 303.020 C 128.706 302.496,126.026 301.672,123.400 300.743 C 121.204 299.967,120.173 299.945,122.000 300.714 M281.777 308.762 C 281.900 308.962,282.361 309.031,282.800 308.916 C 283.901 308.628,283.802 308.400,282.576 308.400 C 282.013 308.400,281.654 308.563,281.777 308.762 M165.000 309.574 C 170.480 310.325,171.823 310.427,170.905 310.023 C 170.413 309.807,168.343 309.543,166.305 309.437 C 163.246 309.278,163.018 309.302,165.000 309.574 M228.600 310.000 C 227.581 310.438,228.632 310.438,230.000 310.000 C 230.804 309.743,230.843 309.677,230.200 309.668 C 229.760 309.662,229.040 309.811,228.600 310.000 M276.200 310.400 C 276.514 310.909,278.413 310.909,279.200 310.400 C 279.633 310.120,279.266 310.011,277.876 310.006 C 276.694 310.002,276.048 310.154,276.200 310.400 M173.300 310.687 C 173.905 310.778,174.895 310.778,175.500 310.687 C 176.105 310.595,175.610 310.520,174.400 310.520 C 173.190 310.520,172.695 310.595,173.300 310.687 M223.505 310.683 C 224.002 310.779,224.722 310.775,225.105 310.675 C 225.487 310.575,225.080 310.496,224.200 310.501 C 223.320 310.505,223.007 310.587,223.505 310.683 M187.000 311.201 C 194.033 311.520,207.431 311.687,207.167 311.452 C 207.075 311.370,201.060 311.215,193.800 311.107 C 185.619 310.986,183.033 311.021,187.000 311.201 M209.500 311.095 C 210.655 311.176,212.545 311.176,213.700 311.095 C 214.855 311.014,213.910 310.948,211.600 310.948 C 209.290 310.948,208.345 311.014,209.500 311.095 M271.200 311.495 C 270.650 311.597,270.078 311.878,269.928 312.119 C 269.778 312.360,268.283 312.688,266.605 312.848 C 264.928 313.008,263.340 313.313,263.077 313.525 C 262.815 313.737,261.430 314.041,260.000 314.201 C 258.570 314.360,256.680 314.724,255.800 315.010 C 254.920 315.296,253.030 315.648,251.600 315.792 C 250.170 315.936,248.190 316.296,247.200 316.593 C 246.210 316.889,243.698 317.246,241.617 317.386 C 239.536 317.526,237.286 317.889,236.617 318.192 C 235.889 318.522,233.108 318.853,229.696 319.017 C 226.558 319.167,223.902 319.436,223.792 319.613 C 223.389 320.264,229.012 320.499,233.565 320.020 C 236.114 319.752,240.061 319.376,242.335 319.185 C 244.609 318.993,247.427 318.558,248.597 318.218 C 249.766 317.878,251.342 317.600,252.098 317.600 C 252.854 317.600,254.880 317.240,256.600 316.800 C 258.320 316.360,260.148 316.000,260.662 316.000 C 261.176 316.000,262.633 315.656,263.898 315.235 C 265.164 314.814,266.830 314.363,267.600 314.232 C 268.370 314.102,269.483 313.744,270.073 313.436 C 270.663 313.127,271.743 312.755,272.473 312.608 C 274.748 312.149,275.219 311.955,274.982 311.571 C 274.749 311.194,273.009 311.158,271.200 311.495 M159.800 318.000 C 160.107 318.496,154.554 318.496,153.400 318.000 C 152.867 317.771,153.762 317.647,156.076 317.628 C 157.995 317.613,159.664 317.779,159.800 318.000 M98.600 368.000 C 98.308 368.472,98.687 369.200,99.224 369.200 C 99.431 369.200,99.600 368.840,99.600 368.400 C 99.600 367.556,99.018 367.324,98.600 368.000 M101.467 369.467 C 100.916 370.017,101.229 370.800,102.000 370.800 C 102.533 370.800,102.800 370.533,102.800 370.000 C 102.800 369.229,102.017 368.916,101.467 369.467 M165.600 386.951 C 165.600 387.034,165.870 387.326,166.200 387.600 C 166.691 388.008,166.800 387.980,166.800 387.449 C 166.800 387.092,166.530 386.800,166.200 386.800 C 165.870 386.800,165.600 386.868,165.600 386.951 " stroke="none" fill="#686061" fill-rule="evenodd"></path></g></svg>