<?xml version="1.0" standalone="no"?>
<!DOCTYPE svg PUBLIC "-//W3C//DTD SVG 20010904//EN"
 "http://www.w3.org/TR/2001/REC-SVG-20010904/DTD/svg10.dtd">
<svg version="1.0" xmlns="http://www.w3.org/2000/svg"
 width="32.000000pt" height="32.000000pt" viewBox="0 0 32.000000 32.000000"
 preserveAspectRatio="xMidYMid meet">

<g transform="translate(0.000000,32.000000) scale(0.100000,-0.100000)"
fill="#000000" stroke="none">
<path d="M10 165 l0 -145 145 0 145 0 0 145 0 145 -145 0 -145 0 0 -145z m275
0 l0 -130 -130 0 -130 0 -3 119 c-1 66 0 126 2 133 4 11 34 13 133 11 l128 -3
0 -130z"/>
<path d="M83 233 c-9 -3 -10 -10 -4 -22 6 -10 6 -23 0 -32 -12 -19 -11 -89 1
-89 17 0 11 -18 -7 -23 -14 -4 -12 -5 5 -6 21 -1 22 2 22 89 0 50 -1 90 -2 89
-2 0 -9 -3 -15 -6z"/>
<path d="M162 231 c-11 -7 -11 -11 2 -24 14 -13 14 -16 1 -27 -18 -15 -20 -86
-2 -93 9 -4 8 -8 -3 -17 -13 -9 -12 -11 5 -8 18 3 20 12 23 82 3 81 -3 101
-26 87z"/>
<path d="M244 211 c15 -16 15 -19 1 -31 -22 -18 -20 -90 3 -90 15 -1 15 -2 -2
-15 -19 -15 -19 -15 2 -15 21 0 22 4 22 85 0 80 -1 85 -22 85 -20 0 -20 -1 -4
-19z"/>
</g>
</svg>
