<?xml version="1.0" standalone="no"?>
<!DOCTYPE svg PUBLIC "-//W3C//DTD SVG 20010904//EN"
 "http://www.w3.org/TR/2001/REC-SVG-20010904/DTD/svg10.dtd">
<svg version="1.0" xmlns="http://www.w3.org/2000/svg"
 width="120.000000pt" height="105.000000pt" viewBox="0 0 120.000000 105.000000"
 preserveAspectRatio="xMidYMid meet">
<metadata>
Created by potrace 1.15, written by Peter Selinger 2001-2017
</metadata>
<g transform="translate(0.000000,105.000000) scale(0.100000,-0.100000)"
fill="#000000" stroke="none">
<path d="M289 558 c-200 -347 -284 -502 -284 -523 l0 -30 595 0 595 0 0 30 c0
21 -84 176 -285 523 -260 451 -286 492 -310 492 -24 0 -50 -41 -311 -492z
m567 -50 l250 -433 -253 -3 c-139 -1 -367 -1 -506 0 l-254 3 251 432 c138 238
253 433 256 433 3 0 118 -195 256 -432z"/>
<path d="M548 693 c-8 -10 -17 -25 -20 -33 -9 -25 20 -330 33 -346 15 -18 63
-18 78 0 13 15 42 321 33 346 -11 33 -36 50 -72 50 -23 0 -43 -7 -52 -17z"/>
<path d="M549 231 c-35 -36 -37 -61 -6 -97 17 -20 33 -27 57 -27 37 0 80 40
80 74 0 27 -53 79 -80 79 -12 0 -35 -13 -51 -29z"/>
</g>
</svg>
