<svg id="svg" version="1.1" xmlns="http://www.w3.org/2000/svg" xmlns:xlink="http://www.w3.org/1999/xlink" width="400" height="400" viewBox="0, 0, 400,400"><g id="svgg"><path id="path0" d="M167.680 52.080 C 167.416 52.344,167.200 53.064,167.200 53.680 L 167.200 54.800 160.500 54.805 C 152.386 54.812,152.098 54.873,151.765 56.644 L 151.511 58.000 147.588 58.000 C 142.735 58.000,142.400 58.118,142.400 59.830 L 142.400 61.174 137.900 61.287 L 133.400 61.400 133.276 62.900 L 133.152 64.400 129.976 64.400 L 126.800 64.400 126.800 65.783 L 126.800 67.166 123.700 67.283 L 120.600 67.400 120.477 68.883 L 120.354 70.366 117.477 70.483 L 114.600 70.600 114.476 72.100 L 114.352 73.600 111.419 73.600 C 108.288 73.600,108.000 73.788,108.000 75.833 C 108.000 76.745,107.867 76.800,105.676 76.800 C 103.087 76.800,102.119 77.316,101.928 78.800 C 101.821 79.639,101.558 79.820,100.300 79.924 C 98.845 80.045,98.800 80.095,98.800 81.607 L 98.800 83.165 95.900 83.282 C 93.009 83.400,92.999 83.404,92.617 84.700 C 92.334 85.662,92.003 86.000,91.346 86.000 C 90.178 86.000,89.200 87.016,89.200 88.229 C 89.200 89.026,88.999 89.200,88.080 89.200 C 86.659 89.200,86.000 89.859,86.000 91.280 C 86.000 92.293,85.867 92.400,84.600 92.400 C 83.233 92.400,83.200 92.438,83.200 94.000 L 83.200 95.600 81.600 95.600 L 80.000 95.600 80.000 97.200 L 80.000 98.800 78.400 98.800 C 76.843 98.800,76.800 98.837,76.800 100.176 C 76.800 101.477,76.719 101.558,75.300 101.676 C 73.886 101.793,73.793 101.885,73.677 103.277 C 73.562 104.665,73.465 104.762,72.077 104.877 C 70.689 104.993,70.593 105.089,70.477 106.477 C 70.362 107.865,70.265 107.962,68.877 108.077 C 67.485 108.193,67.393 108.286,67.276 109.700 C 67.158 111.119,67.077 111.200,65.776 111.200 C 64.441 111.200,64.400 111.247,64.400 112.776 C 64.400 114.308,64.358 114.355,62.900 114.476 C 61.522 114.590,61.384 114.714,61.200 115.997 C 61.031 117.176,60.813 117.426,59.800 117.597 C 58.639 117.794,58.588 117.895,58.232 120.700 C 57.897 123.335,57.781 123.600,56.961 123.600 C 55.527 123.600,54.800 124.646,54.800 126.709 C 54.800 128.149,54.907 128.453,55.280 128.080 C 56.119 127.241,57.851 127.513,58.560 128.595 C 58.918 129.142,59.884 129.935,60.706 130.356 C 62.892 131.477,63.738 132.646,64.789 136.000 C 65.387 137.908,66.215 139.546,67.063 140.499 L 68.396 141.998 66.998 143.830 C 66.229 144.837,65.600 145.861,65.600 146.105 C 65.600 146.349,65.263 146.920,64.850 147.374 C 64.438 147.828,63.789 149.190,63.409 150.400 C 62.961 151.823,62.273 152.978,61.459 153.671 L 60.200 154.742 60.147 160.271 C 60.117 163.312,59.893 166.970,59.650 168.400 C 59.406 169.830,59.205 172.367,59.203 174.038 C 59.200 177.488,58.761 178.189,56.400 178.512 C 53.440 178.918,52.741 179.534,53.033 181.481 C 53.291 183.199,53.264 183.250,50.900 185.535 C 49.583 186.808,48.029 188.603,47.448 189.525 C 46.866 190.446,46.214 191.200,46.000 191.200 C 45.786 191.200,45.142 191.941,44.571 192.846 C 43.999 193.752,43.186 194.583,42.765 194.693 C 42.321 194.809,41.865 195.421,41.682 196.147 C 41.465 197.007,40.972 197.576,40.112 197.960 C 38.413 198.718,38.335 199.478,38.199 216.551 C 38.090 230.209,37.541 237.880,36.378 242.000 C 36.161 242.770,35.812 249.250,35.604 256.400 C 34.952 278.736,35.088 277.996,31.549 278.562 C 27.242 279.250,26.794 277.791,26.404 261.800 C 26.204 253.593,25.846 247.011,25.459 244.400 C 24.778 239.813,24.000 225.459,24.000 217.492 C 24.000 210.953,24.128 211.200,20.747 211.200 C 17.552 211.200,17.200 211.600,17.200 215.226 L 17.200 217.200 14.700 217.206 C 13.325 217.209,11.974 217.356,11.698 217.531 C 11.300 217.784,11.218 227.389,11.298 264.225 L 11.400 310.600 12.854 310.721 C 14.115 310.827,14.341 311.004,14.551 312.055 C 14.723 312.913,15.133 313.395,15.956 313.706 C 17.056 314.121,17.126 314.288,17.271 316.851 C 17.469 320.358,17.089 320.165,24.332 320.424 C 27.779 320.547,29.535 320.682,28.233 320.724 C 24.129 320.856,20.859 321.602,19.546 322.707 C 18.591 323.510,17.692 323.789,15.268 324.032 C 10.519 324.509,9.216 324.842,8.587 325.740 C 8.196 326.298,7.186 326.735,5.503 327.075 C 3.691 327.441,2.775 327.859,2.185 328.590 C 1.737 329.146,1.062 329.600,0.685 329.600 C 0.063 329.600,0.000 330.290,0.000 337.154 L 0.000 344.708 2.235 344.987 C 3.983 345.206,4.703 345.519,5.535 346.425 C 6.398 347.364,7.130 347.665,9.399 348.015 C 11.029 348.267,12.533 348.751,12.999 349.174 C 14.094 350.168,15.956 350.695,20.194 351.210 C 22.170 351.450,24.060 351.881,24.394 352.168 C 25.782 353.363,29.140 354.041,35.494 354.411 C 41.101 354.737,42.096 354.896,42.771 355.571 C 44.054 356.854,46.160 357.190,55.200 357.558 C 62.777 357.866,64.032 358.013,65.751 358.795 C 67.941 359.791,67.986 359.795,85.915 360.427 C 97.887 360.849,98.055 360.867,100.098 361.927 L 102.166 363.000 127.183 363.376 C 159.446 363.862,237.917 363.863,270.000 363.378 L 295.000 363.000 297.200 361.923 C 300.318 360.395,300.478 360.379,315.676 360.049 C 328.878 359.762,329.476 359.715,331.400 358.820 C 333.119 358.020,334.354 357.843,340.200 357.559 C 350.625 357.051,353.002 356.726,354.147 355.650 C 355.007 354.842,355.720 354.695,360.260 354.393 C 367.052 353.940,370.707 353.329,372.334 352.372 C 373.191 351.867,374.996 351.449,377.387 351.201 C 381.601 350.764,383.136 350.297,384.000 349.189 C 384.429 348.639,385.453 348.303,387.600 348.011 C 390.133 347.665,390.756 347.423,391.600 346.455 C 392.248 345.713,393.164 345.214,394.200 345.039 C 396.600 344.632,397.946 344.001,398.214 343.157 C 398.346 342.741,398.802 342.400,399.227 342.400 C 399.955 342.400,400.000 342.067,400.000 336.664 L 400.000 330.928 397.758 330.390 C 396.148 330.004,395.402 329.603,395.114 328.970 C 394.628 327.904,393.294 327.252,390.933 326.929 C 389.812 326.775,389.025 326.420,388.777 325.957 C 388.286 325.039,385.950 324.401,381.644 324.008 C 379.272 323.792,378.187 323.520,377.943 323.083 C 377.368 322.056,374.308 321.144,370.347 320.820 C 366.678 320.520,366.730 320.513,372.800 320.455 C 382.500 320.362,382.800 320.174,382.800 314.174 L 382.800 310.800 385.124 310.800 C 389.448 310.800,389.000 316.186,389.000 264.247 C 389.000 212.767,389.392 217.775,385.334 217.351 L 382.890 217.095 382.711 214.927 C 382.477 212.108,381.830 211.497,378.850 211.281 L 376.477 211.109 376.252 214.055 C 376.129 215.675,375.933 221.230,375.816 226.400 C 375.700 231.570,375.320 238.410,374.972 241.600 C 374.155 249.106,373.671 258.101,373.631 266.523 C 373.586 276.299,372.917 278.027,369.000 278.486 C 364.691 278.989,364.478 278.212,364.029 260.400 C 363.796 251.167,363.455 244.871,363.054 242.400 C 362.006 235.950,361.607 228.328,361.614 214.912 C 361.622 200.301,361.643 200.470,359.547 198.395 C 358.696 197.552,358.000 196.599,358.000 196.277 C 358.000 195.955,357.535 195.387,356.967 195.015 C 356.398 194.642,355.676 193.722,355.361 192.969 C 355.047 192.216,354.525 191.600,354.201 191.600 C 353.878 191.600,353.157 190.700,352.600 189.600 C 352.043 188.500,351.414 187.600,351.204 187.600 C 350.993 187.600,350.553 187.082,350.225 186.448 C 349.897 185.815,348.970 184.907,348.165 184.432 C 346.669 183.549,346.489 182.620,347.381 180.371 C 347.726 179.504,346.051 178.800,343.643 178.800 C 340.786 178.800,340.401 178.179,340.398 173.569 C 340.396 171.496,340.208 168.720,339.980 167.400 C 339.752 166.080,339.564 162.888,339.563 160.308 C 339.561 155.937,339.495 155.537,338.599 154.472 C 338.070 153.843,337.257 152.313,336.792 151.072 C 336.328 149.831,335.770 148.705,335.553 148.571 C 335.335 148.436,334.742 147.398,334.233 146.263 C 333.725 145.128,332.835 143.796,332.255 143.303 C 330.831 142.092,331.685 140.320,334.100 139.471 C 334.485 139.336,334.800 138.825,334.800 138.337 C 334.800 134.431,337.330 130.000,339.559 130.000 C 341.206 130.000,342.000 128.118,342.000 124.218 L 342.000 120.400 340.657 120.400 L 339.314 120.400 339.056 117.900 C 338.790 115.327,338.172 114.400,336.724 114.400 C 336.259 114.400,336.000 114.104,336.000 113.574 C 336.000 112.088,335.247 111.200,333.986 111.200 C 332.904 111.200,332.800 111.081,332.800 109.843 C 332.800 108.414,332.303 108.000,330.591 108.000 C 329.790 108.000,329.630 107.774,329.524 106.500 C 329.407 105.086,329.315 104.993,327.923 104.877 C 326.535 104.762,326.438 104.665,326.323 103.277 C 326.212 101.939,326.080 101.788,324.924 101.676 C 323.812 101.569,323.631 101.388,323.524 100.276 C 323.412 99.120,323.261 98.988,321.923 98.877 C 320.535 98.762,320.438 98.665,320.323 97.277 C 320.207 95.889,320.111 95.793,318.723 95.677 C 317.335 95.562,317.238 95.465,317.123 94.077 C 317.007 92.685,316.914 92.593,315.500 92.476 C 314.092 92.359,314.000 92.270,314.000 91.019 C 314.000 89.611,313.496 89.200,311.767 89.200 C 311.101 89.200,310.800 88.975,310.800 88.476 C 310.800 87.028,309.873 86.410,307.300 86.144 L 304.800 85.886 304.800 84.543 C 304.800 83.243,304.749 83.200,303.200 83.200 C 301.774 83.200,301.600 83.095,301.600 82.233 C 301.600 80.185,301.314 80.000,298.157 80.000 L 295.200 80.000 295.200 78.400 L 295.200 76.800 293.600 76.800 C 292.093 76.800,292.000 76.731,292.000 75.614 C 292.000 74.089,291.084 73.600,288.226 73.600 C 286.055 73.600,286.000 73.573,286.000 72.480 C 286.000 70.783,285.327 70.400,282.344 70.400 L 279.648 70.400 279.524 68.900 L 279.400 67.400 276.500 67.282 C 273.814 67.174,273.600 67.100,273.594 66.282 C 273.583 64.715,273.084 64.443,269.988 64.319 L 267.000 64.200 266.864 63.001 C 266.675 61.340,266.325 61.213,261.900 61.206 C 258.126 61.200,258.000 61.171,257.994 60.300 C 257.981 58.420,257.497 58.208,252.889 58.067 L 248.547 57.933 248.173 56.667 C 247.692 55.032,247.067 54.907,239.100 54.847 L 232.800 54.800 232.800 53.443 C 232.800 52.574,232.572 51.998,232.167 51.843 C 230.859 51.341,168.189 51.571,167.680 52.080 M218.482 60.087 C 219.632 60.746,221.655 61.302,224.600 61.768 C 233.813 63.228,234.789 63.513,235.791 65.042 C 236.457 66.058,238.599 66.794,240.900 66.798 C 241.725 66.799,242.400 66.980,242.400 67.200 C 242.400 67.749,159.898 68.271,157.900 67.734 C 156.565 67.376,157.211 66.911,159.351 66.690 C 161.695 66.448,163.090 65.777,163.421 64.733 C 163.703 63.846,166.680 62.866,169.955 62.582 C 172.603 62.352,177.420 61.241,180.800 60.080 C 183.685 59.089,188.113 58.871,202.882 58.991 L 216.765 59.103 218.482 60.087 M224.449 96.368 C 225.031 98.039,225.431 98.127,233.285 98.311 C 239.431 98.455,240.399 98.565,240.584 99.139 C 241.045 100.564,243.222 101.285,247.732 101.505 C 251.832 101.705,252.083 101.767,252.425 102.665 C 252.900 103.916,254.304 104.404,258.223 104.681 C 261.010 104.877,261.509 105.026,261.829 105.753 C 262.375 106.994,264.149 107.675,267.561 107.953 C 270.171 108.166,270.611 108.311,270.739 109.000 C 271.013 110.488,271.622 110.800,274.249 110.800 C 276.533 110.800,276.800 110.884,276.800 111.600 C 276.800 113.165,278.191 114.000,280.800 114.000 C 283.020 114.000,283.200 114.067,283.206 114.900 C 283.216 116.403,283.689 116.705,286.501 117.005 C 289.095 117.282,289.214 117.342,289.523 118.533 C 289.785 119.545,290.136 119.848,291.434 120.186 C 292.309 120.414,293.411 120.960,293.884 121.400 C 295.590 122.989,296.046 123.258,297.412 123.479 C 298.500 123.656,298.800 123.892,298.800 124.572 C 298.800 125.730,299.532 126.400,300.797 126.400 C 301.622 126.400,301.913 126.666,302.217 127.700 C 302.542 128.802,302.858 129.057,304.300 129.377 C 305.235 129.584,306.000 129.909,306.000 130.099 C 306.000 130.972,308.633 132.800,309.889 132.800 C 311.076 132.800,311.200 132.913,311.200 133.986 C 311.200 135.239,312.087 136.000,313.548 136.000 C 314.160 136.000,314.379 136.308,314.475 137.300 C 314.577 138.361,314.827 138.667,315.835 138.965 C 316.726 139.227,317.173 139.674,317.435 140.565 C 317.768 141.691,317.966 141.811,319.680 141.921 C 321.129 142.014,321.616 142.221,321.807 142.822 C 321.943 143.250,322.396 143.784,322.814 144.007 C 323.231 144.231,323.769 145.144,324.010 146.036 C 324.346 147.287,324.716 147.752,325.623 148.068 C 326.461 148.360,326.800 148.741,326.800 149.390 C 326.800 150.454,327.371 150.987,328.900 151.352 C 329.821 151.573,330.000 151.827,330.000 152.918 C 330.000 154.221,331.845 156.800,332.777 156.800 C 333.064 156.800,333.200 160.407,333.200 168.017 C 333.200 179.985,333.122 179.490,335.333 181.546 C 337.392 183.460,342.800 188.894,342.800 189.048 C 342.800 189.132,341.270 189.200,339.400 189.200 L 336.000 189.200 336.000 188.080 C 336.000 186.666,335.342 186.000,333.945 186.000 C 333.003 186.000,332.833 185.819,332.725 184.700 L 332.600 183.400 325.653 183.290 C 318.251 183.174,317.600 183.316,317.600 185.049 L 317.600 186.000 308.300 186.023 C 297.669 186.048,296.434 186.274,295.856 188.300 C 295.589 189.234,295.247 189.602,294.642 189.606 C 292.458 189.622,292.609 185.327,292.496 250.785 L 292.392 311.200 281.736 311.200 L 271.080 311.200 268.841 310.104 C 265.807 308.620,259.322 308.469,198.600 308.467 C 138.161 308.465,130.869 308.636,128.015 310.116 L 125.926 311.200 116.963 311.200 L 108.000 311.200 107.969 252.500 C 107.936 188.776,108.017 191.056,105.744 190.050 C 105.057 189.745,104.255 188.951,103.950 188.275 C 103.071 186.320,101.689 186.065,91.783 186.030 L 82.965 186.000 82.583 184.700 L 82.200 183.400 74.920 183.291 L 67.640 183.182 67.379 184.569 C 67.155 185.764,66.946 185.972,65.860 186.078 C 64.644 186.196,64.596 186.272,64.481 188.257 L 64.361 190.313 66.599 191.017 C 69.500 191.930,69.769 192.478,69.443 196.807 C 69.131 200.931,68.679 202.681,67.685 203.607 C 67.097 204.155,66.838 205.449,66.396 210.043 C 65.914 215.050,65.727 215.910,64.944 216.692 C 64.012 217.624,63.921 218.251,62.448 233.914 C 62.212 236.426,61.883 237.866,61.432 238.365 C 60.154 239.777,59.338 273.705,60.424 280.331 C 60.628 281.579,60.796 283.972,60.798 285.649 C 60.799 287.748,61.035 289.244,61.555 290.449 C 62.060 291.619,62.395 293.660,62.567 296.600 C 63.006 304.104,63.623 308.853,64.435 310.968 C 64.863 312.086,65.398 314.710,65.622 316.800 C 66.309 323.192,66.771 325.937,67.561 328.318 C 68.728 331.832,69.021 335.403,68.241 336.593 C 66.773 338.835,61.488 338.882,60.190 336.664 C 59.176 334.932,58.500 334.496,56.364 334.198 C 53.858 333.849,50.634 330.329,49.965 327.213 C 49.656 325.769,49.129 324.782,48.177 323.856 C 47.091 322.802,46.698 321.958,46.168 319.548 C 45.661 317.239,45.314 316.465,44.655 316.175 C 43.964 315.872,43.740 315.302,43.486 313.200 C 43.314 311.770,42.821 308.530,42.391 306.000 C 41.040 298.053,40.892 295.110,40.808 274.545 C 40.736 257.089,40.812 254.102,41.392 251.494 C 41.932 249.065,41.977 248.058,41.629 246.175 C 41.051 243.049,41.092 241.617,41.797 240.264 C 42.229 239.437,42.278 238.920,41.980 238.363 C 41.160 236.831,40.911 229.719,41.625 228.250 C 42.371 226.718,43.609 217.491,43.603 213.508 C 43.600 210.982,43.661 210.800,44.581 210.569 C 45.794 210.265,46.385 207.421,45.656 205.403 C 45.405 204.710,45.221 203.256,45.247 202.172 C 45.281 200.763,45.367 200.487,45.547 201.205 C 45.792 202.178,46.042 202.260,48.100 202.049 C 48.375 202.020,48.923 201.210,49.319 200.249 C 49.772 199.147,50.750 197.928,51.965 196.950 C 53.026 196.098,54.052 195.045,54.247 194.610 C 54.633 193.747,55.462 193.485,60.063 192.773 L 63.126 192.300 63.273 190.750 L 63.421 189.200 59.811 189.154 C 57.825 189.128,56.509 189.026,56.887 188.927 C 57.282 188.823,57.677 188.195,57.818 187.447 C 58.010 186.424,58.330 186.069,59.331 185.774 C 60.375 185.466,60.622 185.170,60.725 184.100 C 60.839 182.920,60.973 182.800,62.177 182.800 C 63.174 182.800,63.897 182.418,65.086 181.264 L 66.669 179.728 66.933 171.564 C 67.079 167.074,67.198 161.470,67.199 159.111 L 67.200 154.823 68.490 154.488 C 69.547 154.215,69.844 153.887,70.130 152.677 C 70.350 151.749,70.713 151.200,71.108 151.200 C 71.982 151.200,73.200 150.019,73.200 149.172 C 73.200 147.620,78.769 142.000,80.306 142.000 C 81.767 142.000,82.709 141.266,82.872 140.003 C 82.969 139.248,83.292 138.955,84.200 138.800 C 85.104 138.645,85.434 138.349,85.538 137.597 C 85.728 136.232,86.267 135.670,87.527 135.524 C 88.364 135.427,88.640 135.139,88.800 134.200 C 88.966 133.222,89.225 132.975,90.201 132.864 C 91.589 132.706,91.985 132.227,91.994 130.700 C 91.999 129.718,92.145 129.600,93.352 129.600 C 94.387 129.600,95.089 129.226,96.352 128.000 C 97.356 127.026,98.381 126.400,98.972 126.400 C 100.117 126.400,101.200 125.439,101.200 124.423 C 101.200 123.894,101.618 123.635,102.772 123.451 C 103.787 123.288,104.868 122.705,105.827 121.800 C 106.643 121.031,107.992 120.217,108.825 119.993 C 110.022 119.671,110.392 119.346,110.591 118.442 C 110.825 117.376,111.009 117.280,113.317 117.019 C 116.103 116.703,116.800 116.301,116.800 115.007 C 116.800 114.215,117.056 114.085,119.028 113.882 C 121.433 113.634,122.288 113.147,122.832 111.716 C 123.142 110.901,123.446 110.800,125.590 110.800 C 128.094 110.800,129.600 109.974,129.600 108.600 C 129.600 108.158,130.061 108.000,131.350 108.000 C 134.202 108.000,135.583 107.563,137.025 106.202 C 138.233 105.063,138.721 104.891,141.308 104.696 C 144.227 104.475,146.888 103.391,147.328 102.243 C 147.467 101.881,148.877 101.652,151.991 101.488 C 156.713 101.239,157.600 100.901,157.600 99.351 L 157.600 98.400 164.592 98.400 C 172.300 98.400,174.319 97.975,175.137 96.178 L 175.583 95.200 199.812 95.200 L 224.042 95.200 224.449 96.368 M344.300 127.533 C 345.098 128.369,345.409 128.321,345.062 127.417 C 344.932 127.078,344.549 126.800,344.213 126.800 C 343.694 126.800,343.708 126.913,344.300 127.533 M52.721 130.500 C 52.373 130.775,51.965 131.720,51.813 132.600 C 51.590 133.895,51.635 134.105,52.049 133.700 C 52.330 133.425,53.064 133.200,53.680 133.200 C 54.720 133.200,54.800 133.086,54.800 131.600 C 54.800 129.877,54.026 129.467,52.721 130.500 M49.067 136.267 C 48.079 137.254,48.831 139.200,50.200 139.200 C 51.567 139.200,51.600 139.162,51.600 137.600 C 51.600 136.038,50.090 135.243,49.067 136.267 M348.400 137.637 C 348.400 139.157,348.439 139.200,349.800 139.200 C 352.098 139.200,351.699 136.882,349.300 136.295 C 348.483 136.095,348.400 136.218,348.400 137.637 M358.736 174.850 C 359.412 175.640,359.807 175.859,359.417 175.228 C 359.291 175.023,359.354 174.752,359.558 174.626 C 359.763 174.499,359.883 174.821,359.826 175.340 C 359.767 175.883,360.010 176.464,360.399 176.707 C 360.983 177.071,361.049 176.983,360.884 176.065 C 360.621 174.602,360.150 174.100,359.039 174.100 C 358.153 174.100,358.134 174.147,358.736 174.850 M362.432 177.051 C 362.391 177.634,363.540 178.593,363.876 178.257 C 364.018 178.116,363.913 178.000,363.643 178.000 C 363.373 178.000,363.281 177.792,363.438 177.538 C 363.607 177.265,363.549 177.184,363.296 177.341 C 363.061 177.486,362.777 177.379,362.666 177.102 C 362.540 176.789,362.451 176.770,362.432 177.051 M365.200 180.200 C 365.200 180.310,365.548 180.748,365.973 181.173 C 366.716 181.916,366.744 181.917,366.690 181.201 C 366.659 180.791,366.491 180.544,366.317 180.651 C 366.143 180.759,366.000 180.657,366.000 180.424 C 366.000 180.191,365.820 180.000,365.600 180.000 C 365.380 180.000,365.200 180.090,365.200 180.200 M366.901 183.035 C 367.058 183.191,367.594 183.523,368.093 183.771 C 368.592 184.020,369.240 184.724,369.533 185.335 C 369.826 185.947,370.514 186.651,371.061 186.900 C 371.607 187.150,372.305 187.814,372.611 188.377 L 373.168 189.400 373.184 188.380 C 373.204 187.114,372.527 186.400,371.307 186.400 C 370.439 186.400,369.452 185.015,369.843 184.345 C 369.924 184.205,369.723 183.868,369.396 183.596 C 369.068 183.324,368.800 183.210,368.800 183.341 C 368.800 183.473,368.309 183.393,367.708 183.165 C 367.108 182.937,366.745 182.878,366.901 183.035 M29.236 186.369 C 28.926 186.565,28.435 186.635,28.146 186.524 C 27.844 186.408,27.416 186.767,27.144 187.362 C 26.532 188.707,27.032 189.217,27.837 188.069 C 28.177 187.584,28.650 187.307,28.889 187.455 C 29.168 187.628,29.207 187.534,28.996 187.194 C 28.758 186.809,28.851 186.734,29.334 186.919 C 29.769 187.086,30.000 186.971,30.000 186.587 C 30.000 185.904,29.980 185.898,29.236 186.369 M335.217 191.834 C 335.556 192.131,337.626 192.573,339.817 192.817 C 342.008 193.061,344.169 193.331,344.619 193.417 C 345.078 193.506,346.114 194.603,346.976 195.912 C 347.821 197.198,348.999 198.529,349.594 198.870 C 350.467 199.371,350.767 199.963,351.157 201.945 C 351.633 204.364,351.660 204.400,352.974 204.400 L 354.307 204.400 354.467 208.393 C 354.595 211.574,354.767 212.489,355.313 212.893 C 356.000 213.401,356.137 214.177,357.771 226.800 C 358.070 229.110,358.487 231.443,358.698 231.984 C 358.965 232.672,358.900 233.635,358.482 235.184 C 357.712 238.035,357.664 244.437,358.294 260.000 C 359.391 287.069,358.193 308.363,355.222 314.600 C 354.803 315.480,354.341 316.920,354.196 317.800 C 353.736 320.593,353.173 321.955,352.375 322.208 C 351.407 322.515,351.040 323.218,350.396 326.000 C 350.064 327.434,349.427 328.714,348.566 329.676 C 347.840 330.488,346.965 331.695,346.622 332.357 C 346.024 333.515,344.172 334.392,342.315 334.398 C 341.938 334.399,340.948 335.108,340.115 335.974 C 337.533 338.656,334.214 339.056,331.975 336.956 L 330.950 335.994 331.477 331.373 C 331.767 328.831,332.269 326.241,332.592 325.616 C 333.220 324.401,333.704 321.520,334.407 314.800 C 334.649 312.490,335.268 309.340,335.784 307.800 C 336.695 305.079,337.061 301.772,337.960 288.145 C 338.132 285.544,338.435 283.839,338.806 283.393 C 339.795 282.201,339.828 247.821,338.843 245.276 C 338.334 243.961,337.965 241.187,337.611 236.000 C 336.849 224.822,336.250 220.650,335.266 219.666 C 334.339 218.739,334.223 218.147,333.626 211.318 C 333.253 207.054,333.080 206.317,332.265 205.502 C 331.316 204.552,331.323 204.588,330.046 194.200 L 329.800 192.200 331.400 191.546 C 333.086 190.857,334.195 190.941,335.217 191.834 M382.050 222.000 C 384.982 222.000,385.385 229.981,383.450 249.735 C 383.101 253.294,383.034 256.750,383.242 260.400 C 384.289 278.706,384.485 284.659,384.292 292.185 C 384.050 301.624,383.845 302.526,381.575 304.100 C 378.169 306.463,378.271 307.202,377.955 278.000 C 377.806 264.250,377.476 246.467,377.221 238.481 C 376.674 221.334,376.691 221.239,380.150 221.810 C 380.783 221.915,381.638 222.000,382.050 222.000 M22.830 222.856 C 23.316 223.764,23.152 231.781,22.345 246.600 C 22.117 250.780,21.795 264.910,21.629 278.000 C 21.290 304.751,21.376 304.000,18.674 304.000 C 15.617 304.000,14.900 298.424,15.593 280.043 C 15.814 274.189,16.113 266.334,16.256 262.586 C 16.417 258.387,16.311 252.247,15.980 246.586 C 15.146 232.292,15.210 223.899,16.162 222.844 C 17.297 221.587,22.155 221.595,22.830 222.856 " stroke="none" fill="#383838" fill-rule="evenodd"></path><path id="path1" d="M57.395 136.100 C 57.178 136.595,56.358 137.301,55.574 137.668 C 54.790 138.036,53.662 139.071,53.069 139.968 C 51.779 141.917,50.838 142.037,49.481 140.423 C 48.536 139.300,48.356 139.250,45.545 139.323 L 42.600 139.400 42.476 140.900 C 42.359 142.308,42.270 142.400,41.019 142.400 C 40.285 142.400,39.597 142.630,39.490 142.911 C 39.146 143.807,39.182 156.579,39.530 157.114 C 40.319 158.326,41.939 158.069,43.363 156.507 C 44.907 154.813,49.280 153.120,50.070 153.910 C 50.704 154.544,50.168 155.079,48.608 155.372 C 46.250 155.814,46.159 158.528,48.475 159.354 C 49.756 159.811,54.385 159.308,55.328 158.610 C 56.316 157.878,55.316 155.816,53.788 155.433 C 52.839 155.195,51.600 153.262,51.600 152.021 C 51.600 151.503,54.527 150.000,55.535 150.000 C 56.619 150.000,57.043 149.317,57.521 146.800 C 57.750 145.590,58.153 143.837,58.416 142.905 C 58.899 141.194,58.623 135.200,58.061 135.200 C 57.912 135.200,57.612 135.605,57.395 136.100 M341.867 135.867 C 341.359 136.374,341.591 143.160,342.168 144.692 C 342.481 145.521,342.845 146.857,342.979 147.660 C 343.279 149.465,343.711 149.834,346.216 150.428 C 349.514 151.210,350.000 151.488,350.000 152.591 C 350.000 153.214,350.226 153.600,350.590 153.600 C 350.915 153.600,351.770 153.959,352.490 154.399 C 353.247 154.860,354.507 155.198,355.476 155.199 C 357.273 155.200,357.766 155.620,357.825 157.200 C 357.946 160.397,357.963 160.448,358.747 160.028 C 359.158 159.808,359.637 159.757,359.812 159.914 C 359.986 160.071,360.010 159.994,359.866 159.742 C 359.722 159.490,359.881 159.178,360.220 159.048 C 360.703 158.862,360.742 158.640,360.403 158.006 C 360.112 157.461,360.106 157.200,360.386 157.200 C 360.614 157.200,360.800 156.911,360.800 156.557 C 360.800 156.138,360.582 155.998,360.174 156.155 C 359.682 156.343,359.602 156.202,359.800 155.497 C 359.987 154.832,359.950 154.748,359.657 155.174 C 358.433 156.951,358.000 154.920,358.000 147.400 C 358.000 138.966,358.116 139.227,354.386 139.283 C 350.911 139.335,350.478 139.632,350.233 142.132 C 350.030 144.200,347.778 143.435,347.395 141.168 C 347.158 139.770,346.905 139.475,345.264 138.691 C 344.240 138.201,343.204 137.392,342.961 136.893 C 342.393 135.726,342.194 135.540,341.867 135.867 M348.175 154.041 C 348.025 154.283,347.298 154.734,346.559 155.043 C 342.198 156.865,343.905 159.592,349.411 159.598 C 353.229 159.602,354.853 156.486,351.600 155.398 C 350.830 155.140,350.142 154.630,350.071 154.265 C 349.926 153.519,348.594 153.362,348.175 154.041 M358.000 161.774 C 358.000 164.077,355.362 165.211,353.286 163.800 C 351.664 162.698,348.292 162.436,345.600 163.204 C 342.012 164.227,342.412 167.134,346.403 169.040 C 349.265 170.408,349.463 170.761,349.553 174.671 C 349.605 176.960,350.547 178.105,352.781 178.596 C 355.740 179.246,361.200 188.918,361.200 193.509 C 361.200 194.300,361.551 195.679,361.981 196.574 C 362.453 197.557,363.082 200.573,363.571 204.200 C 364.015 207.500,364.569 211.226,364.801 212.480 C 365.271 215.019,366.198 226.257,366.784 236.527 C 367.187 243.574,367.496 244.696,369.552 246.557 C 370.492 247.407,370.370 248.379,371.805 228.543 C 372.911 213.247,373.154 211.990,375.116 211.413 L 376.432 211.026 376.316 200.213 L 376.200 189.400 373.100 189.283 L 370.000 189.166 370.000 187.971 C 370.000 186.743,369.731 186.513,368.000 186.267 C 367.207 186.154,366.959 185.842,366.800 184.762 C 366.630 183.602,366.422 183.379,365.400 183.261 C 363.917 183.089,364.049 183.255,363.905 181.380 C 363.826 180.352,363.588 179.800,363.225 179.800 C 362.918 179.800,362.593 179.530,362.503 179.200 C 362.357 178.667,362.386 178.667,362.763 179.200 C 363.141 179.733,363.189 179.733,363.200 179.200 C 363.211 178.667,363.255 178.667,363.600 179.200 C 363.931 179.713,363.989 179.698,363.994 179.100 C 363.997 178.715,363.713 178.400,363.363 178.400 C 363.012 178.400,362.637 178.061,362.528 177.647 C 362.365 177.023,361.978 176.903,360.266 176.947 L 358.200 177.000 358.088 172.100 C 358.002 168.342,358.095 167.190,358.488 167.157 C 358.769 167.134,359.360 167.089,359.800 167.057 C 360.726 166.991,361.108 162.557,360.252 161.800 C 359.525 161.156,358.000 161.139,358.000 161.774 M46.756 163.715 C 45.420 164.617,45.373 164.620,43.600 163.937 C 39.495 162.356,39.200 162.805,39.200 170.629 C 39.200 177.184,39.232 177.081,37.300 176.830 C 37.025 176.794,36.800 177.043,36.800 177.382 C 36.800 177.722,36.617 178.000,36.394 178.000 C 36.169 178.000,36.077 178.501,36.187 179.127 C 36.376 180.201,36.321 180.248,34.979 180.142 C 34.205 180.081,33.671 180.192,33.793 180.388 C 33.914 180.584,33.819 180.864,33.583 181.011 C 33.346 181.157,33.208 181.747,33.276 182.321 C 33.386 183.251,33.258 183.370,32.118 183.399 C 30.786 183.432,30.080 183.813,30.524 184.257 C 30.665 184.398,31.100 184.263,31.490 183.957 C 32.136 183.451,32.150 183.463,31.651 184.100 C 31.349 184.485,30.841 184.800,30.522 184.800 C 30.166 184.800,29.971 185.147,30.016 185.700 C 30.284 189.011,30.172 189.196,27.900 189.198 C 26.745 189.199,25.350 189.245,24.800 189.300 L 23.800 189.400 23.694 200.300 C 23.591 210.790,23.616 211.200,24.349 211.200 C 27.141 211.200,27.854 215.670,29.473 243.351 L 29.728 247.701 31.453 240.951 C 32.592 236.494,33.183 233.316,33.192 231.600 C 33.214 227.437,34.339 213.931,34.791 212.400 C 35.019 211.630,35.322 208.930,35.465 206.400 C 35.659 202.956,35.972 201.147,36.709 199.200 C 39.161 192.724,40.000 190.294,39.999 189.671 C 39.996 188.712,43.867 181.044,44.762 180.234 C 45.174 179.861,46.656 178.981,48.056 178.278 L 50.600 177.000 51.000 173.600 L 51.400 170.200 53.244 169.200 C 56.175 167.611,56.454 167.269,56.320 165.435 C 56.124 162.765,49.838 161.635,46.756 163.715 M60.729 194.378 C 58.127 194.597,57.486 194.802,56.529 195.721 C 54.305 197.859,52.993 199.137,52.540 199.605 C 52.287 199.866,51.731 200.393,51.304 200.776 C 50.767 201.258,50.447 202.244,50.266 203.971 C 50.118 205.384,49.681 206.932,49.258 207.535 C 47.890 209.485,47.635 211.323,47.206 222.292 C 46.763 233.654,46.699 234.200,45.769 234.557 C 45.372 234.709,45.200 235.443,45.200 236.987 L 45.200 239.200 47.000 239.200 C 48.543 239.200,48.800 239.316,48.800 240.013 C 48.800 241.284,49.882 243.560,51.199 245.060 C 51.861 245.813,52.854 247.323,53.407 248.415 C 54.487 250.544,54.949 250.817,55.557 249.681 C 56.387 248.130,57.646 242.144,58.040 237.882 C 58.584 231.986,58.653 231.711,59.894 230.469 C 60.917 229.446,60.974 229.149,61.440 222.404 C 61.933 215.272,62.281 213.620,63.591 212.200 C 64.115 211.632,64.466 210.242,64.802 207.400 C 65.389 202.438,65.870 200.491,66.805 199.302 C 67.774 198.071,68.225 195.353,67.589 194.586 C 67.073 193.965,66.031 193.934,60.729 194.378 M332.408 194.590 C 331.679 195.469,332.269 198.981,333.621 201.803 C 334.503 203.645,334.903 205.332,335.332 209.031 C 335.803 213.084,336.071 214.124,337.004 215.535 C 338.175 217.304,338.315 218.137,339.139 228.251 C 339.440 231.939,339.646 232.846,340.341 233.541 C 341.271 234.471,341.388 234.879,341.967 239.200 C 342.512 243.263,343.877 249.003,344.659 250.515 C 345.485 252.111,345.951 251.550,347.387 247.238 C 348.011 245.366,348.723 243.991,349.234 243.671 C 352.778 241.458,354.315 214.298,351.139 210.003 C 350.262 208.817,349.667 206.237,349.624 203.439 C 349.605 202.188,349.302 201.575,348.100 200.360 C 347.275 199.525,346.240 198.465,345.800 198.004 C 343.758 195.864,342.033 194.791,340.346 194.612 C 334.721 194.015,332.890 194.010,332.408 194.590 M379.600 228.038 L 379.600 233.067 381.400 232.234 L 383.199 231.400 383.200 228.527 C 383.200 225.990,383.105 225.624,382.388 225.396 C 381.941 225.254,381.131 224.659,380.588 224.073 L 379.600 223.008 379.600 228.038 M17.094 224.639 C 16.705 225.029,16.791 232.323,17.200 233.600 C 17.376 234.150,17.538 234.510,17.561 234.400 C 17.957 232.440,18.799 227.235,18.799 226.744 C 18.800 225.892,17.476 224.258,17.094 224.639 M44.891 270.900 C 43.991 285.678,44.295 300.524,45.622 306.600 C 46.777 311.887,48.453 317.014,49.336 317.961 C 49.869 318.532,50.567 319.516,50.888 320.147 L 51.472 321.294 56.468 321.454 C 63.296 321.672,63.696 321.176,62.487 314.000 C 62.246 312.570,61.845 308.539,61.594 305.043 C 61.205 299.610,61.015 298.517,60.283 297.527 C 58.988 295.776,58.267 285.810,58.039 266.500 L 58.000 263.200 51.680 263.200 L 45.359 263.200 44.891 270.900 M341.851 273.700 C 341.457 288.631,341.115 292.214,339.964 293.439 C 339.121 294.336,339.007 295.008,338.564 301.708 C 338.005 310.172,337.479 313.440,336.317 315.669 C 335.595 317.054,335.530 317.580,335.841 319.536 L 336.200 321.800 342.465 321.800 L 348.730 321.800 349.194 320.200 C 349.448 319.320,350.193 317.839,350.848 316.908 C 351.547 315.914,352.258 314.164,352.571 312.668 C 352.865 311.267,353.302 309.509,353.544 308.761 C 355.133 303.842,355.908 282.739,355.030 268.300 L 354.719 263.200 348.424 263.200 L 342.128 263.200 341.851 273.700 M17.114 287.900 C 17.008 288.725,17.051 290.300,17.208 291.400 C 17.462 293.180,17.499 293.015,17.547 289.900 C 17.603 286.200,17.432 285.409,17.114 287.900 " stroke="none" fill="#cbcaca" fill-rule="evenodd"></path><path id="path2" d="M56.196 129.207 C 56.058 129.430,55.790 129.517,55.600 129.400 C 55.410 129.283,55.140 129.374,54.998 129.603 C 54.827 129.880,55.285 129.932,56.371 129.758 C 57.571 129.566,58.000 129.634,58.000 130.016 C 58.000 130.300,58.094 130.439,58.209 130.324 C 58.325 130.209,58.305 129.819,58.167 129.457 C 57.888 128.732,56.591 128.567,56.196 129.207 M341.284 131.039 C 341.001 131.348,340.438 131.600,340.033 131.600 C 338.569 131.600,338.202 132.722,338.151 137.367 C 338.124 139.805,338.087 142.970,338.070 144.400 C 338.013 149.057,338.609 151.568,340.152 153.172 C 341.186 154.248,341.643 155.193,342.004 157.000 C 342.555 159.757,343.290 160.782,344.762 160.844 C 345.424 160.872,345.148 161.015,344.000 161.239 C 341.119 161.802,340.186 163.776,341.558 166.408 C 342.021 167.297,342.400 168.283,342.400 168.598 C 342.400 169.283,343.619 170.000,344.784 170.000 C 345.881 170.000,346.400 171.416,346.400 174.412 C 346.400 176.454,346.521 176.835,347.300 177.239 C 350.070 178.675,351.959 180.182,352.200 181.147 C 352.470 182.229,353.717 184.443,354.546 185.311 C 354.803 185.580,355.363 187.226,355.791 188.969 C 356.219 190.713,356.955 192.603,357.428 193.169 C 357.901 193.736,358.582 194.774,358.941 195.476 C 359.301 196.177,359.966 197.011,360.420 197.329 C 360.873 197.646,361.399 198.422,361.588 199.053 C 361.876 200.014,361.937 200.056,361.966 199.314 C 361.985 198.827,361.489 197.837,360.863 197.114 C 359.632 195.691,357.600 191.524,357.600 190.423 C 357.600 189.010,356.247 185.736,354.972 184.065 C 354.244 183.111,353.533 181.805,353.392 181.162 C 353.250 180.519,352.745 179.795,352.267 179.552 C 348.460 177.613,347.623 176.695,347.570 174.400 C 347.491 170.910,347.192 170.293,345.244 169.607 C 343.460 168.978,340.971 165.061,341.493 163.702 C 342.285 161.638,350.464 160.478,353.344 162.021 C 355.969 163.428,357.654 161.511,356.336 158.619 C 355.901 157.663,354.400 157.160,354.400 157.969 C 354.400 159.423,352.278 160.800,350.064 160.783 C 344.260 160.738,342.555 159.626,342.987 156.166 C 343.230 154.222,343.176 154.051,342.022 153.080 C 340.272 151.607,340.058 150.743,339.592 143.286 C 339.363 139.609,339.030 135.746,338.852 134.703 C 338.480 132.527,338.545 132.400,340.018 132.400 C 341.117 132.400,342.190 131.536,341.938 130.853 C 341.862 130.647,341.568 130.731,341.284 131.039 M58.477 131.241 C 58.578 131.548,59.223 131.986,59.911 132.214 C 61.719 132.813,61.761 132.925,61.191 135.688 C 60.906 137.070,60.638 140.540,60.595 143.400 C 60.491 150.268,60.240 151.360,58.324 153.276 C 56.877 154.723,56.775 154.971,56.984 156.521 C 57.601 161.089,47.023 162.868,45.548 158.445 C 45.416 158.047,45.005 158.084,43.686 158.612 C 42.755 158.985,41.454 159.211,40.796 159.114 C 39.981 158.994,39.600 159.107,39.600 159.469 C 39.600 159.761,39.825 160.012,40.100 160.027 C 41.143 160.083,43.453 160.393,44.800 160.656 L 46.200 160.930 44.600 161.242 C 43.720 161.414,42.235 161.564,41.300 161.577 C 40.365 161.590,39.600 161.780,39.600 162.000 C 39.600 162.633,45.636 162.465,46.800 161.800 C 48.957 160.567,55.690 161.508,57.474 163.293 L 58.449 164.267 57.485 166.445 C 56.699 168.223,56.223 168.758,54.896 169.357 C 53.057 170.186,52.814 170.750,52.805 174.200 C 52.798 176.803,52.472 177.161,48.100 179.365 C 47.385 179.726,46.800 180.200,46.800 180.419 C 46.800 180.638,46.353 181.493,45.806 182.320 C 45.259 183.146,44.197 185.527,43.446 187.611 C 41.670 192.539,40.404 195.204,39.109 196.744 C 37.734 198.377,36.940 201.321,36.613 206.000 C 36.466 208.090,36.101 210.790,35.801 212.000 C 35.501 213.210,35.054 217.620,34.808 221.800 C 34.562 225.980,34.099 232.728,33.780 236.796 C 33.461 240.864,33.200 245.332,33.200 246.725 C 33.200 249.224,31.904 255.585,30.467 260.135 L 29.730 262.470 29.247 255.335 C 26.875 220.321,26.271 214.227,25.007 212.582 C 24.478 211.892,24.479 212.010,25.014 213.580 C 25.821 215.947,28.378 247.910,29.558 270.400 C 29.832 275.602,30.506 275.701,30.916 270.600 C 31.040 269.060,31.580 266.270,32.116 264.400 C 32.891 261.695,33.142 259.650,33.345 254.400 C 33.485 250.770,33.876 244.200,34.213 239.800 C 34.550 235.400,35.063 227.564,35.352 222.388 C 35.668 216.728,36.073 212.610,36.368 212.059 C 36.638 211.555,36.955 209.131,37.072 206.672 C 37.332 201.205,38.064 198.385,39.597 196.938 C 40.228 196.343,41.054 195.168,41.432 194.328 C 41.811 193.488,42.250 192.800,42.406 192.800 C 42.737 192.800,44.800 188.333,44.800 187.617 C 44.800 187.351,45.520 185.680,46.400 183.903 C 47.280 182.127,48.000 180.444,48.000 180.164 C 48.000 179.883,48.405 179.530,48.900 179.378 C 49.395 179.226,50.745 178.542,51.900 177.857 L 54.000 176.613 54.000 173.486 L 54.000 170.359 55.373 169.786 C 56.930 169.135,57.074 168.957,58.262 166.208 C 59.561 163.204,58.276 161.289,54.874 161.159 C 53.917 161.123,53.950 161.083,55.180 160.793 C 56.936 160.380,57.391 159.735,57.957 156.855 C 58.259 155.323,58.748 154.213,59.385 153.614 C 61.384 151.736,63.431 143.154,62.243 141.633 C 61.983 141.300,61.800 139.324,61.800 136.845 L 61.800 132.624 60.047 131.653 C 58.864 130.998,58.353 130.863,58.477 131.241 M55.222 132.700 C 55.155 133.195,55.055 133.780,55.000 134.000 C 54.945 134.220,54.877 134.782,54.850 135.250 C 54.807 135.978,54.625 136.065,53.580 135.856 C 52.895 135.719,52.458 135.770,52.583 135.972 C 52.705 136.170,52.648 136.392,52.456 136.466 C 52.264 136.540,52.251 136.960,52.426 137.400 C 52.695 138.078,52.748 138.094,52.772 137.500 C 52.790 137.037,53.123 136.800,53.751 136.800 C 55.164 136.800,55.666 135.916,55.495 133.731 C 55.412 132.669,55.289 132.205,55.222 132.700 M344.667 133.067 C 343.470 134.263,344.735 137.200,346.447 137.200 C 347.268 137.200,347.631 137.469,347.935 138.300 C 348.156 138.905,348.351 139.163,348.368 138.874 C 348.430 137.843,347.558 136.800,346.635 136.800 C 345.265 136.800,344.662 135.859,344.973 134.204 C 345.236 132.803,345.171 132.562,344.667 133.067 M50.000 139.982 C 50.330 140.205,50.945 140.391,51.367 140.394 C 52.390 140.402,52.071 140.173,50.600 139.844 C 49.724 139.648,49.562 139.685,50.000 139.982 M348.406 140.500 C 348.411 141.163,348.504 141.256,348.759 140.853 C 348.950 140.552,349.352 140.150,349.653 139.959 C 350.056 139.704,349.963 139.611,349.300 139.606 C 348.630 139.602,348.402 139.830,348.406 140.500 M355.485 160.364 C 356.019 161.220,355.313 161.772,354.219 161.352 C 353.666 161.140,354.177 159.600,354.800 159.600 C 354.914 159.600,355.222 159.944,355.485 160.364 M367.200 185.400 C 367.200 185.730,367.492 186.000,367.849 186.000 C 368.380 186.000,368.408 185.891,368.000 185.400 C 367.726 185.070,367.434 184.800,367.351 184.800 C 367.268 184.800,367.200 185.070,367.200 185.400 M63.800 193.212 C 62.667 193.418,62.974 193.453,64.850 193.332 C 67.069 193.189,67.542 193.271,67.759 193.838 C 67.902 194.210,68.130 194.403,68.266 194.267 C 69.329 193.205,66.937 192.640,63.800 193.212 M332.000 193.600 C 331.560 194.040,331.205 194.625,331.212 194.900 C 331.219 195.184,331.397 195.104,331.624 194.714 C 331.844 194.337,332.418 193.752,332.901 193.414 C 333.383 193.076,333.558 192.800,333.289 192.800 C 333.020 192.800,332.440 193.160,332.000 193.600 M334.705 193.483 C 335.202 193.579,335.922 193.575,336.305 193.475 C 336.687 193.375,336.280 193.296,335.400 193.301 C 334.520 193.305,334.207 193.387,334.705 193.483 M338.700 193.882 C 339.195 193.978,340.005 193.978,340.500 193.882 C 340.995 193.787,340.590 193.709,339.600 193.709 C 338.610 193.709,338.205 193.787,338.700 193.882 M55.681 195.100 C 55.050 195.705,53.503 197.165,52.244 198.344 C 50.985 199.523,50.031 200.564,50.124 200.658 C 50.218 200.751,51.083 200.034,52.047 199.065 C 53.011 198.096,54.666 196.560,55.724 195.652 C 56.783 194.743,57.464 194.000,57.238 194.000 C 57.012 194.000,56.311 194.495,55.681 195.100 M342.600 194.391 C 343.549 194.796,346.735 197.781,347.732 199.200 C 348.371 200.110,348.370 200.080,347.717 198.870 C 346.797 197.165,343.369 193.992,342.481 194.025 C 341.922 194.046,341.943 194.112,342.600 194.391 M331.652 198.800 C 331.643 199.350,331.911 200.520,332.249 201.400 C 332.586 202.280,333.213 203.990,333.642 205.200 C 334.339 207.167,334.395 207.232,334.176 205.814 C 334.042 204.941,333.645 203.681,333.294 203.014 C 332.943 202.346,332.434 200.900,332.162 199.800 C 331.881 198.662,331.661 198.231,331.652 198.800 M66.846 200.905 C 66.381 201.866,66.019 203.001,66.042 203.426 C 66.067 203.898,66.264 203.653,66.546 202.800 C 66.800 202.030,67.246 200.980,67.536 200.466 C 67.827 199.952,67.981 199.448,67.878 199.345 C 67.776 199.242,67.311 199.944,66.846 200.905 M49.404 203.168 C 49.201 204.650,48.867 205.376,48.150 205.898 C 47.043 206.704,46.265 209.523,45.816 214.351 C 45.665 215.974,45.360 217.774,45.138 218.351 C 44.224 220.729,43.578 230.980,43.675 241.545 C 43.755 250.144,43.603 253.909,42.890 261.058 C 41.367 276.336,42.061 300.980,44.240 309.000 C 45.643 314.163,48.032 320.541,48.881 321.390 C 49.389 321.898,50.163 323.368,50.601 324.656 C 51.089 326.091,51.955 327.555,52.841 328.441 C 53.635 329.235,54.415 330.404,54.574 331.040 C 55.031 332.859,55.537 333.200,57.777 333.200 C 59.505 333.200,60.005 333.372,60.739 334.216 C 61.226 334.775,61.798 335.125,62.012 334.993 C 62.225 334.861,62.400 334.973,62.400 335.243 C 62.400 335.513,62.509 335.625,62.641 335.492 C 62.774 335.360,63.314 335.415,63.841 335.616 C 64.506 335.868,64.800 335.840,64.800 335.523 C 64.800 335.272,64.917 335.183,65.059 335.326 C 66.031 336.297,67.002 333.481,66.147 332.175 C 65.672 331.450,65.424 329.786,65.241 326.089 L 64.988 321.000 64.724 324.937 C 64.399 329.775,64.659 329.564,60.877 328.055 C 59.147 327.365,57.207 326.797,56.566 326.794 C 54.876 326.785,51.888 325.815,51.537 325.162 C 51.371 324.853,50.874 323.790,50.431 322.800 C 49.988 321.810,49.242 320.528,48.773 319.951 C 48.304 319.374,47.406 317.214,46.777 315.151 C 46.148 313.088,45.358 310.638,45.021 309.708 C 43.852 306.475,42.880 295.633,43.003 287.200 C 43.065 282.910,42.953 278.741,42.752 277.936 C 42.528 277.035,42.542 275.036,42.789 272.736 C 43.874 262.600,44.515 250.725,44.576 239.600 C 44.644 227.317,44.758 225.420,45.795 219.200 C 46.106 217.330,46.456 214.428,46.571 212.751 C 46.810 209.286,47.222 207.965,48.562 206.373 C 49.412 205.362,50.337 201.804,49.871 201.338 C 49.767 201.234,49.557 202.057,49.404 203.168 M350.101 202.600 C 350.105 203.480,350.187 203.793,350.283 203.295 C 350.379 202.798,350.375 202.078,350.275 201.695 C 350.175 201.313,350.096 201.720,350.101 202.600 M362.463 207.003 C 362.428 208.984,362.587 211.234,362.816 212.003 C 363.650 214.801,367.200 262.701,367.200 271.155 L 367.200 273.562 368.678 273.970 C 370.621 274.507,370.526 274.739,370.849 268.683 C 371.904 248.858,373.872 221.331,374.643 215.600 C 374.777 214.610,375.241 213.170,375.674 212.400 L 376.463 211.000 375.640 211.803 C 374.013 213.389,372.993 222.891,370.974 255.280 C 370.827 257.634,370.593 260.118,370.454 260.799 L 370.200 262.039 368.665 260.467 L 367.130 258.895 366.757 251.547 C 366.168 239.957,364.057 214.343,363.564 212.800 C 363.317 212.030,362.983 209.600,362.821 207.400 L 362.525 203.400 362.463 207.003 M65.701 205.800 C 65.705 206.680,65.787 206.993,65.883 206.495 C 65.979 205.998,65.975 205.278,65.875 204.895 C 65.775 204.513,65.696 204.920,65.701 205.800 M350.436 204.874 C 350.377 205.982,351.184 207.742,352.179 208.676 C 353.144 209.580,353.145 209.587,353.824 218.600 C 353.923 219.920,354.177 222.260,354.388 223.800 C 356.651 240.353,356.819 304.028,354.613 309.308 C 354.293 310.072,353.757 312.015,353.421 313.626 C 353.021 315.547,352.342 317.260,351.448 318.607 C 350.698 319.736,349.763 321.681,349.370 322.930 C 348.836 324.621,348.464 325.200,347.909 325.200 C 347.499 325.200,346.759 325.605,346.264 326.100 C 345.491 326.873,344.941 327.000,342.372 327.000 C 339.875 327.000,339.191 327.149,338.236 327.900 C 335.755 329.852,335.461 328.988,335.133 318.800 C 335.095 317.590,334.958 318.971,334.830 321.868 C 334.626 326.489,334.487 327.286,333.699 328.352 C 332.478 330.004,332.409 333.422,333.590 333.797 C 334.024 333.935,334.729 334.493,335.158 335.037 C 335.928 336.016,335.942 336.018,336.500 335.221 C 337.236 334.171,339.598 333.200,341.419 333.200 C 342.953 333.200,346.000 330.630,346.000 329.336 C 346.000 329.007,346.711 328.033,347.580 327.173 C 348.909 325.857,349.989 323.660,349.998 322.254 C 349.999 322.063,350.661 321.006,351.470 319.905 C 352.612 318.349,353.133 317.042,353.811 314.035 C 354.290 311.907,354.913 309.736,355.195 309.210 C 356.527 306.720,357.688 271.511,356.632 265.600 C 356.495 264.830,356.218 255.163,356.018 244.119 C 355.728 228.203,355.527 223.598,355.045 221.919 C 354.711 220.753,354.229 217.182,353.974 213.982 C 353.515 208.208,353.503 208.159,352.375 207.511 C 351.701 207.125,351.082 206.318,350.855 205.530 C 350.645 204.798,350.456 204.503,350.436 204.874 M334.509 209.200 C 334.509 210.190,334.587 210.595,334.682 210.100 C 334.778 209.605,334.778 208.795,334.682 208.300 C 334.587 207.805,334.509 208.210,334.509 209.200 M64.842 211.200 C 64.805 211.750,64.241 213.275,63.587 214.590 C 62.743 216.289,62.416 217.503,62.456 218.790 L 62.513 220.600 62.792 218.600 C 62.946 217.500,63.563 215.566,64.164 214.303 C 64.765 213.039,65.178 211.599,65.083 211.103 C 64.918 210.247,64.905 210.252,64.842 211.200 M335.001 213.557 C 335.103 214.815,335.614 216.553,336.228 217.726 C 336.819 218.857,337.427 220.888,337.617 222.369 L 337.956 225.000 337.833 222.130 C 337.738 219.898,337.477 218.860,336.657 217.461 C 336.077 216.471,335.428 214.703,335.214 213.531 L 334.826 211.400 335.001 213.557 M62.120 222.800 C 62.120 224.010,62.195 224.505,62.287 223.900 C 62.378 223.295,62.378 222.305,62.287 221.700 C 62.195 221.095,62.120 221.590,62.120 222.800 M17.300 223.076 C 17.685 223.176,18.315 223.176,18.700 223.076 C 19.085 222.975,18.770 222.893,18.000 222.893 C 17.230 222.893,16.915 222.975,17.300 223.076 M378.526 223.450 C 378.231 224.217,378.661 240.116,379.201 248.400 C 379.408 251.590,379.518 260.680,379.446 268.600 C 379.357 278.262,379.397 280.368,379.569 275.000 C 379.710 270.600,379.864 267.692,379.913 268.537 C 380.052 270.993,381.526 277.738,382.295 279.440 L 383.000 281.000 383.118 278.307 C 383.192 276.630,383.003 274.925,382.617 273.790 C 379.687 265.158,379.531 252.616,382.253 244.432 C 382.808 242.763,383.181 240.837,383.104 240.032 L 382.969 238.600 381.896 240.811 C 381.306 242.027,380.581 244.454,380.286 246.204 L 379.748 249.385 379.270 239.593 C 378.650 226.900,378.657 223.324,379.300 223.065 C 379.692 222.907,379.689 222.856,379.287 222.832 C 379.006 222.814,378.663 223.092,378.526 223.450 M19.900 223.465 C 21.157 223.972,19.699 237.594,17.896 242.188 L 17.430 243.375 17.155 242.388 C 16.795 241.097,16.797 245.752,17.157 247.400 L 17.419 248.600 18.294 246.800 C 19.719 243.869,20.336 240.257,20.811 232.065 C 21.286 223.851,21.233 223.182,20.113 223.232 C 19.694 223.250,19.606 223.346,19.900 223.465 M383.481 227.000 C 383.722 230.658,383.936 231.216,383.940 228.200 C 383.942 226.880,383.798 225.440,383.620 225.000 C 383.432 224.535,383.374 225.373,383.481 227.000 M61.594 228.065 C 61.450 230.210,61.176 231.363,60.682 231.909 C 59.997 232.666,59.544 234.602,58.790 240.000 C 58.590 241.430,58.453 249.530,58.486 258.000 L 58.545 273.400 58.811 256.400 C 59.035 242.114,59.182 239.113,59.733 237.600 C 60.093 236.610,60.391 235.328,60.394 234.751 C 60.397 234.174,60.769 232.868,61.219 231.850 C 61.825 230.481,62.007 229.347,61.919 227.499 L 61.800 225.000 61.594 228.065 M16.131 228.200 C 16.133 229.740,16.205 230.321,16.292 229.491 C 16.379 228.661,16.377 227.401,16.289 226.691 C 16.200 225.981,16.129 226.660,16.131 228.200 M338.120 227.600 C 338.120 228.810,338.195 229.305,338.287 228.700 C 338.378 228.095,338.378 227.105,338.287 226.500 C 338.195 225.895,338.120 226.390,338.120 227.600 M338.465 232.000 C 338.436 232.990,338.694 234.880,339.038 236.200 C 339.382 237.520,339.800 239.500,339.968 240.600 C 340.136 241.700,340.503 243.680,340.784 245.000 C 341.562 248.659,340.832 282.893,339.938 284.600 C 339.577 285.292,339.216 287.324,339.087 289.400 C 338.836 293.452,339.466 292.814,339.849 288.628 C 339.972 287.293,340.315 285.390,340.611 284.400 C 341.010 283.073,341.224 277.856,341.428 264.527 C 341.722 245.268,341.550 242.163,339.909 237.200 C 339.437 235.770,338.930 233.610,338.784 232.400 L 338.518 230.200 338.465 232.000 M383.324 233.800 C 383.326 235.120,383.401 235.612,383.490 234.893 C 383.579 234.174,383.577 233.094,383.486 232.493 C 383.395 231.892,383.322 232.480,383.324 233.800 M16.534 235.200 C 16.534 236.850,16.605 237.525,16.691 236.700 C 16.778 235.875,16.778 234.525,16.691 233.700 C 16.605 232.875,16.534 233.550,16.534 235.200 M17.068 268.427 C 16.716 271.359,16.807 277.267,17.169 275.000 C 17.703 271.660,19.505 288.444,19.015 292.200 C 18.481 296.305,17.509 299.858,17.156 299.000 C 16.926 298.440,16.853 298.739,16.913 300.000 C 17.010 302.002,17.542 302.317,18.267 300.800 C 20.102 296.962,20.252 281.674,18.554 271.621 C 17.665 266.358,17.388 265.762,17.068 268.427 M59.104 283.400 C 59.231 287.458,59.504 290.294,59.852 291.149 C 60.153 291.891,60.400 293.185,60.400 294.025 C 60.400 294.865,60.580 295.664,60.800 295.800 C 61.529 296.250,61.226 292.621,60.400 291.000 C 59.802 289.828,59.587 288.567,59.550 286.015 C 59.523 284.137,59.367 281.340,59.203 279.800 C 59.024 278.116,58.985 279.552,59.104 283.400 M16.565 288.600 C 16.566 292.560,16.626 294.126,16.698 292.080 C 16.771 290.034,16.771 286.794,16.698 284.880 C 16.624 282.966,16.565 284.640,16.565 288.600 M383.354 289.200 C 383.354 291.950,383.418 293.075,383.496 291.700 C 383.574 290.325,383.574 288.075,383.496 286.700 C 383.418 285.325,383.354 286.450,383.354 289.200 M378.942 289.000 C 378.941 290.980,379.008 291.840,379.092 290.912 C 379.176 289.984,379.177 288.364,379.095 287.312 C 379.012 286.260,378.943 287.020,378.942 289.000 M379.284 297.200 C 379.167 303.287,379.730 303.878,382.192 300.250 C 383.194 298.774,383.596 296.000,382.808 296.000 C 382.307 296.000,380.034 299.943,379.925 301.000 C 379.880 301.440,379.734 299.910,379.600 297.600 L 379.357 293.400 379.284 297.200 M338.131 297.800 C 338.133 299.340,338.205 299.921,338.292 299.091 C 338.379 298.261,338.377 297.001,338.289 296.291 C 338.200 295.581,338.129 296.260,338.131 297.800 M61.701 299.800 C 61.705 300.680,61.787 300.993,61.883 300.495 C 61.979 299.998,61.975 299.278,61.875 298.895 C 61.775 298.513,61.696 298.920,61.701 299.800 M337.724 303.400 C 337.726 304.720,337.801 305.212,337.890 304.493 C 337.979 303.774,337.977 302.694,337.886 302.093 C 337.795 301.492,337.722 302.080,337.724 303.400 M62.114 304.600 C 62.117 305.700,62.195 306.103,62.287 305.495 C 62.379 304.886,62.377 303.986,62.282 303.495 C 62.187 303.003,62.111 303.500,62.114 304.600 M337.249 307.000 C 337.217 307.440,336.832 308.941,336.395 310.336 C 335.958 311.730,335.613 313.260,335.629 313.736 C 335.644 314.211,336.095 313.070,336.630 311.200 C 337.165 309.330,337.537 307.440,337.456 307.000 L 337.309 306.200 337.249 307.000 M62.493 308.800 C 62.493 309.570,62.575 309.885,62.676 309.500 C 62.776 309.115,62.776 308.485,62.676 308.100 C 62.575 307.715,62.493 308.030,62.493 308.800 M62.846 311.058 C 62.821 311.530,63.149 313.060,63.576 314.458 C 64.003 315.856,64.424 317.630,64.512 318.400 L 64.672 319.800 64.736 318.342 C 64.771 317.540,64.454 315.740,64.032 314.342 C 63.610 312.944,63.181 311.440,63.079 311.000 C 62.904 310.248,62.890 310.252,62.846 311.058 " stroke="none" fill="#949494" fill-rule="evenodd"></path><path id="path3" d="M342.000 129.520 C 342.000 131.695,341.507 132.400,339.987 132.400 C 338.548 132.400,338.481 132.534,338.852 134.703 C 339.030 135.746,339.363 139.609,339.592 143.286 C 340.058 150.743,340.272 151.607,342.022 153.080 C 343.176 154.051,343.230 154.222,342.987 156.166 C 342.555 159.626,344.260 160.738,350.064 160.783 C 352.278 160.800,354.400 159.423,354.400 157.969 C 354.400 157.160,355.901 157.663,356.336 158.619 C 357.654 161.511,355.969 163.428,353.344 162.021 C 350.464 160.478,342.285 161.638,341.493 163.702 C 340.971 165.061,343.460 168.978,345.244 169.607 C 347.192 170.293,347.491 170.910,347.570 174.400 C 347.623 176.695,348.460 177.613,352.267 179.552 C 352.745 179.795,353.250 180.519,353.392 181.162 C 353.533 181.805,354.244 183.111,354.972 184.065 C 356.247 185.736,357.600 189.010,357.600 190.423 C 357.600 191.502,359.613 195.697,360.686 196.855 C 361.938 198.207,362.339 199.959,362.639 205.400 C 362.773 207.820,363.133 210.790,363.441 212.000 C 364.039 214.357,366.142 239.429,366.757 251.547 L 367.130 258.895 368.665 260.467 L 370.200 262.039 370.454 260.799 C 370.593 260.118,370.827 257.634,370.974 255.280 C 372.921 224.047,374.010 213.536,375.463 211.930 C 376.205 211.110,375.637 210.938,374.391 211.605 C 373.158 212.264,372.846 214.321,371.807 228.600 C 370.366 248.398,370.491 247.406,369.552 246.557 C 367.496 244.696,367.187 243.574,366.784 236.527 C 366.198 226.257,365.271 215.019,364.801 212.480 C 364.569 211.226,364.015 207.500,363.571 204.200 C 363.082 200.573,362.453 197.557,361.981 196.574 C 361.551 195.679,361.200 194.300,361.200 193.509 C 361.200 188.918,355.740 179.246,352.781 178.596 C 350.547 178.105,349.605 176.960,349.553 174.671 C 349.463 170.761,349.265 170.408,346.403 169.040 C 342.412 167.134,342.012 164.227,345.600 163.204 C 348.292 162.436,351.664 162.698,353.286 163.800 C 355.346 165.200,358.000 164.081,358.000 161.812 C 358.000 161.501,358.410 161.308,359.000 161.342 C 359.550 161.374,360.000 161.535,360.000 161.700 C 360.000 161.865,360.181 162.000,360.402 162.000 C 360.633 162.000,360.781 160.977,360.750 159.600 C 360.720 158.280,360.564 157.200,360.403 157.200 C 360.242 157.200,360.159 157.650,360.220 158.200 C 360.280 158.750,360.155 159.200,359.941 159.200 C 359.728 159.200,359.682 159.425,359.841 159.700 C 359.999 159.975,359.986 160.071,359.812 159.914 C 359.637 159.757,359.158 159.808,358.747 160.028 C 357.963 160.448,357.946 160.397,357.825 157.200 C 357.766 155.620,357.273 155.200,355.476 155.199 C 354.507 155.198,353.247 154.860,352.490 154.399 C 351.770 153.959,350.915 153.600,350.590 153.600 C 350.226 153.600,350.000 153.214,350.000 152.591 C 350.000 151.488,349.514 151.210,346.216 150.428 C 343.711 149.834,343.279 149.465,342.979 147.660 C 342.845 146.857,342.481 145.521,342.168 144.692 C 341.528 142.994,341.380 136.183,341.974 135.816 C 342.180 135.689,342.585 136.083,342.874 136.692 C 343.190 137.357,344.145 138.156,345.263 138.691 C 346.905 139.475,347.158 139.770,347.395 141.168 C 347.775 143.422,350.096 144.215,350.220 142.132 C 350.266 141.345,350.944 139.776,351.354 139.506 C 351.641 139.317,351.571 139.210,351.158 139.206 C 350.806 139.203,350.041 139.641,349.458 140.181 C 348.535 141.037,348.400 141.070,348.400 140.441 C 348.400 138.624,347.539 137.200,346.441 137.200 C 344.708 137.200,343.478 134.256,344.700 133.033 C 345.105 132.628,345.122 130.000,344.720 130.000 C 344.544 130.000,344.400 129.640,344.400 129.200 C 344.400 128.760,344.175 128.445,343.900 128.500 C 343.625 128.555,343.445 128.375,343.500 128.100 C 343.555 127.825,343.240 127.600,342.800 127.600 C 342.111 127.600,342.000 127.867,342.000 129.520 M55.845 129.672 C 55.956 129.853,55.889 130.000,55.695 130.000 C 55.502 130.000,55.416 131.268,55.505 132.819 C 55.682 135.903,55.298 136.800,53.799 136.800 C 53.058 136.800,52.811 137.133,52.431 138.643 C 51.942 140.586,51.678 140.686,49.400 139.787 C 48.693 139.508,48.712 139.595,49.570 140.536 C 50.919 142.017,51.808 141.872,53.069 139.968 C 53.662 139.071,54.790 138.036,55.574 137.668 C 56.358 137.301,57.178 136.595,57.395 136.100 C 57.612 135.605,57.912 135.200,58.061 135.200 C 58.623 135.200,58.899 141.194,58.416 142.905 C 58.153 143.837,57.750 145.590,57.521 146.800 C 57.043 149.317,56.619 150.000,55.535 150.000 C 54.527 150.000,51.600 151.503,51.600 152.021 C 51.600 153.262,52.839 155.195,53.788 155.433 C 55.316 155.816,56.316 157.878,55.328 158.610 C 54.385 159.308,49.756 159.811,48.475 159.354 C 46.159 158.528,46.250 155.814,48.608 155.372 C 50.168 155.079,50.704 154.544,50.070 153.910 C 49.280 153.120,44.907 154.813,43.363 156.507 C 41.940 158.069,40.308 158.328,39.539 157.114 C 39.034 156.320,39.100 157.466,39.614 158.426 C 40.127 159.384,41.740 159.435,43.837 158.559 C 45.058 158.049,45.408 158.023,45.545 158.436 C 46.186 160.357,47.567 160.921,51.027 160.677 C 56.002 160.326,57.369 159.372,56.984 156.521 C 56.775 154.971,56.877 154.723,58.324 153.276 C 60.243 151.357,60.481 150.308,60.609 143.200 C 60.662 140.230,60.924 136.848,61.190 135.684 C 61.784 133.083,61.612 132.582,60.016 132.263 C 59.102 132.080,58.653 131.697,58.357 130.848 C 58.061 130.000,57.637 129.638,56.797 129.514 C 56.162 129.421,55.733 129.492,55.845 129.672 M350.071 154.265 C 350.142 154.630,350.830 155.140,351.600 155.398 C 354.853 156.486,353.229 159.602,349.411 159.598 C 343.905 159.592,342.198 156.865,346.559 155.043 C 347.298 154.734,348.025 154.283,348.175 154.041 C 348.594 153.362,349.926 153.519,350.071 154.265 M357.600 155.297 C 357.600 155.511,357.865 155.584,358.188 155.460 C 358.512 155.336,359.023 155.480,359.324 155.781 C 359.676 156.134,360.070 156.201,360.435 155.970 C 360.746 155.773,360.865 155.587,360.700 155.556 C 360.077 155.440,359.597 155.297,359.500 155.199 C 359.192 154.888,357.600 154.971,357.600 155.297 M46.800 161.800 C 46.181 162.154,44.635 162.377,42.743 162.386 C 40.333 162.397,39.634 162.534,39.443 163.033 C 39.018 164.141,39.180 164.477,39.829 163.829 C 40.615 163.042,41.330 163.063,43.600 163.937 C 45.373 164.620,45.420 164.617,46.756 163.715 C 49.838 161.635,56.124 162.765,56.320 165.435 C 56.454 167.269,56.175 167.611,53.244 169.200 L 51.400 170.200 51.000 173.600 L 50.600 177.000 48.056 178.278 C 46.656 178.981,45.174 179.861,44.762 180.234 C 43.867 181.044,39.996 188.712,39.999 189.671 C 40.000 190.294,39.161 192.724,36.709 199.200 C 35.972 201.147,35.659 202.956,35.465 206.400 C 35.322 208.930,35.019 211.630,34.791 212.400 C 34.339 213.931,33.214 227.437,33.192 231.600 C 33.183 233.316,32.592 236.494,31.453 240.951 L 29.728 247.701 29.473 243.351 C 28.187 221.366,27.248 212.967,25.958 211.900 C 24.581 210.761,23.780 210.994,24.765 212.246 C 26.291 214.186,26.775 218.839,29.247 255.335 L 29.730 262.470 30.467 260.135 C 31.904 255.585,33.200 249.224,33.200 246.725 C 33.200 245.332,33.461 240.864,33.780 236.796 C 34.099 232.728,34.562 225.980,34.808 221.800 C 35.054 217.620,35.501 213.210,35.801 212.000 C 36.101 210.790,36.466 208.090,36.613 206.000 C 36.940 201.321,37.734 198.377,39.109 196.744 C 40.404 195.204,41.670 192.539,43.446 187.611 C 44.197 185.527,45.259 183.146,45.806 182.320 C 46.353 181.493,46.800 180.638,46.800 180.419 C 46.800 180.200,47.385 179.726,48.100 179.365 C 52.472 177.161,52.798 176.803,52.805 174.200 C 52.814 170.750,53.057 170.186,54.896 169.357 C 56.223 168.758,56.699 168.223,57.485 166.445 L 58.449 164.267 57.474 163.293 C 55.690 161.508,48.957 160.567,46.800 161.800 M364.098 180.666 C 363.821 180.777,363.709 181.052,363.848 181.277 C 364.008 181.536,364.220 181.491,364.428 181.154 C 364.609 180.862,364.865 180.732,364.997 180.864 C 365.130 180.996,364.960 181.383,364.619 181.724 C 364.279 182.064,364.000 182.536,364.000 182.771 C 364.000 183.394,364.761 183.296,365.476 182.581 C 365.817 182.240,366.204 182.070,366.336 182.203 C 366.468 182.335,366.338 182.591,366.046 182.772 C 365.718 182.974,365.668 183.195,365.915 183.348 C 366.423 183.662,366.850 182.597,366.540 181.789 C 366.339 181.263,365.102 180.338,364.726 180.432 C 364.657 180.449,364.374 180.554,364.098 180.666 M366.816 184.476 C 366.807 185.288,366.963 186.054,367.163 186.177 C 367.362 186.300,367.421 185.996,367.293 185.501 C 367.087 184.701,367.136 184.661,367.726 185.145 C 368.092 185.445,368.301 185.837,368.190 186.017 C 368.079 186.196,368.396 186.401,368.894 186.471 C 369.578 186.568,369.861 186.943,370.047 188.000 L 370.295 189.400 370.347 187.910 C 370.392 186.638,370.227 186.331,369.210 185.805 C 368.556 185.467,367.753 184.697,367.426 184.095 L 366.832 183.000 366.816 184.476 M62.000 193.648 C 57.160 194.135,57.342 194.048,53.534 197.688 C 50.231 200.845,50.055 201.099,49.794 203.117 C 49.621 204.456,49.172 205.648,48.571 206.361 C 47.222 207.965,46.810 209.280,46.571 212.751 C 46.456 214.428,46.106 217.330,45.795 219.200 C 44.758 225.420,44.644 227.317,44.576 239.600 C 44.515 250.725,43.874 262.600,42.789 272.736 C 42.542 275.036,42.528 277.035,42.752 277.936 C 42.953 278.741,43.065 282.910,43.003 287.200 C 42.880 295.633,43.852 306.475,45.021 309.708 C 45.358 310.638,46.148 313.088,46.777 315.151 C 47.406 317.214,48.304 319.374,48.773 319.951 C 49.242 320.528,49.988 321.810,50.431 322.800 C 50.874 323.790,51.371 324.853,51.537 325.162 C 51.888 325.815,54.876 326.785,56.566 326.794 C 57.207 326.797,59.147 327.365,60.877 328.055 C 62.607 328.746,64.153 329.180,64.311 329.022 C 65.035 328.297,64.571 317.439,63.700 314.724 C 63.227 313.252,62.644 310.102,62.404 307.724 C 61.372 297.515,61.201 296.241,60.811 295.851 C 60.585 295.625,60.400 294.744,60.400 293.894 C 60.400 293.043,60.179 291.954,59.909 291.474 C 59.610 290.941,59.237 287.161,58.954 281.800 L 58.490 273.000 58.611 282.200 C 58.752 292.862,59.084 295.905,60.283 297.527 C 61.015 298.517,61.205 299.610,61.594 305.043 C 61.845 308.539,62.246 312.570,62.487 314.000 C 63.696 321.176,63.296 321.672,56.468 321.454 L 51.472 321.294 50.888 320.147 C 50.567 319.516,49.869 318.532,49.336 317.961 C 48.453 317.014,46.777 311.887,45.622 306.600 C 44.295 300.524,43.991 285.678,44.891 270.900 L 45.359 263.200 51.667 263.200 L 57.975 263.200 58.101 268.100 C 58.170 270.795,58.272 266.160,58.327 257.800 C 58.381 249.440,58.590 241.430,58.790 240.000 C 59.538 234.651,59.995 232.669,60.647 231.949 C 61.166 231.375,61.447 229.605,61.892 224.104 C 62.398 217.853,62.601 216.712,63.588 214.600 C 64.624 212.383,65.164 209.940,65.823 204.485 C 65.964 203.322,66.498 201.583,67.010 200.620 C 68.230 198.325,68.665 195.442,67.983 194.168 C 67.412 193.102,67.425 193.103,62.000 193.648 M332.068 194.205 C 331.162 195.357,331.778 200.012,333.208 202.815 C 333.953 204.277,334.407 206.494,335.196 212.533 C 335.467 214.609,335.955 216.263,336.642 217.435 C 337.571 219.021,337.736 219.941,338.232 226.302 C 338.638 231.501,339.051 234.256,339.776 236.600 C 341.578 242.427,341.726 244.976,341.405 264.703 C 341.178 278.607,340.975 283.336,340.554 284.531 C 340.249 285.394,340.000 286.759,340.000 287.563 C 340.000 288.368,339.726 290.010,339.390 291.213 C 339.055 292.416,338.526 296.550,338.214 300.400 C 337.805 305.445,337.305 308.720,336.423 312.127 C 335.144 317.069,335.038 318.487,335.462 324.900 C 335.751 329.257,336.071 329.603,338.236 327.900 C 339.191 327.149,339.875 327.000,342.372 327.000 C 344.941 327.000,345.491 326.873,346.264 326.100 C 346.759 325.605,347.499 325.200,347.909 325.200 C 348.464 325.200,348.836 324.621,349.370 322.930 C 349.763 321.681,350.698 319.736,351.448 318.607 C 352.342 317.260,353.021 315.547,353.421 313.626 C 353.757 312.015,354.293 310.072,354.613 309.308 C 356.819 304.028,356.651 240.353,354.388 223.800 C 354.177 222.260,353.923 219.920,353.824 218.600 C 353.135 209.454,353.178 209.696,351.997 208.460 C 350.930 207.344,350.231 205.109,349.915 201.803 C 349.836 200.977,349.482 200.454,348.775 200.117 C 348.212 199.848,347.509 199.177,347.213 198.624 C 345.839 196.057,342.966 194.328,339.472 193.966 C 337.672 193.779,335.444 193.536,334.521 193.424 C 333.082 193.250,332.731 193.362,332.068 194.205 M67.589 194.586 C 68.225 195.353,67.774 198.071,66.805 199.302 C 65.870 200.491,65.389 202.438,64.802 207.400 C 64.466 210.242,64.115 211.632,63.591 212.200 C 62.281 213.620,61.933 215.272,61.440 222.404 C 60.974 229.149,60.917 229.446,59.894 230.469 C 58.653 231.711,58.584 231.986,58.040 237.882 C 57.646 242.144,56.387 248.130,55.557 249.681 C 54.949 250.817,54.487 250.544,53.407 248.415 C 52.854 247.323,51.861 245.813,51.199 245.060 C 49.882 243.560,48.800 241.284,48.800 240.013 C 48.800 239.316,48.543 239.200,47.000 239.200 L 45.200 239.200 45.200 236.987 C 45.200 235.443,45.372 234.709,45.769 234.557 C 46.699 234.200,46.763 233.654,47.206 222.292 C 47.635 211.323,47.890 209.485,49.258 207.535 C 49.681 206.932,50.118 205.384,50.266 203.971 C 50.447 202.244,50.767 201.258,51.304 200.776 C 51.731 200.393,52.287 199.866,52.540 199.605 C 52.993 199.137,54.305 197.859,56.529 195.721 C 58.060 194.249,66.583 193.374,67.589 194.586 M340.346 194.612 C 342.033 194.791,343.758 195.864,345.800 198.004 C 346.240 198.465,347.275 199.525,348.100 200.360 C 349.302 201.575,349.605 202.188,349.624 203.439 C 349.667 206.237,350.262 208.817,351.139 210.003 C 354.315 214.298,352.778 241.458,349.234 243.671 C 348.723 243.991,348.011 245.366,347.387 247.238 C 345.951 251.550,345.485 252.111,344.659 250.515 C 343.877 249.003,342.512 243.263,341.967 239.200 C 341.388 234.879,341.271 234.471,340.341 233.541 C 339.646 232.846,339.440 231.939,339.139 228.251 C 338.315 218.137,338.175 217.304,337.004 215.535 C 336.071 214.124,335.803 213.084,335.332 209.031 C 334.903 205.332,334.503 203.645,333.621 201.803 C 330.211 194.682,331.186 193.640,340.346 194.612 M379.300 223.069 C 378.657 223.323,378.650 226.898,379.270 239.593 L 379.748 249.385 380.279 246.193 C 380.571 244.437,381.327 241.920,381.960 240.600 C 383.174 238.068,384.038 228.942,383.391 225.491 C 383.079 223.831,380.794 222.478,379.300 223.069 M16.800 224.024 C 16.800 224.477,16.972 224.741,17.182 224.611 C 18.758 223.637,19.016 228.172,17.693 233.600 L 17.450 234.600 17.165 233.600 C 17.008 233.050,16.880 234.580,16.880 237.000 C 16.880 239.420,17.004 241.844,17.155 242.388 L 17.430 243.375 17.896 242.188 C 19.824 237.276,21.152 223.974,19.767 223.443 C 18.301 222.880,16.800 223.174,16.800 224.024 M382.388 225.396 C 383.105 225.624,383.200 225.990,383.200 228.527 L 383.199 231.400 381.400 232.234 L 379.600 233.067 379.600 228.038 L 379.600 223.008 380.588 224.073 C 381.131 224.659,381.941 225.254,382.388 225.396 M16.544 228.800 C 16.544 230.890,16.612 231.745,16.694 230.700 C 16.776 229.655,16.776 227.945,16.694 226.900 C 16.612 225.855,16.544 226.710,16.544 228.800 M355.030 268.300 C 355.908 282.739,355.133 303.842,353.544 308.761 C 353.302 309.509,352.865 311.267,352.571 312.668 C 352.258 314.164,351.547 315.914,350.848 316.908 C 350.193 317.839,349.448 319.320,349.194 320.200 L 348.730 321.800 342.465 321.800 L 336.200 321.800 335.841 319.536 C 335.530 317.580,335.595 317.054,336.317 315.669 C 337.479 313.440,338.005 310.172,338.564 301.708 C 339.007 295.008,339.121 294.336,339.964 293.439 C 341.115 292.214,341.457 288.631,341.851 273.700 L 342.128 263.200 348.424 263.200 L 354.719 263.200 355.030 268.300 M379.522 279.600 C 379.326 289.625,379.618 304.669,379.938 301.000 C 380.029 299.957,382.300 296.000,382.808 296.000 C 383.617 296.000,383.294 281.546,382.445 279.775 C 381.576 277.964,380.505 273.377,380.068 269.600 C 379.859 267.785,379.694 270.806,379.522 279.600 M17.060 275.690 C 16.703 278.668,16.828 289.367,17.200 287.600 C 17.407 286.617,17.492 287.273,17.487 289.800 C 17.481 292.637,17.421 293.019,17.200 291.600 C 16.991 290.256,16.912 290.864,16.888 294.000 C 16.844 299.837,17.284 300.680,18.246 296.600 C 19.174 292.661,19.165 286.043,18.221 278.819 C 17.467 273.046,17.400 272.864,17.060 275.690 " stroke="none" fill="#9c9c9c" fill-rule="evenodd"></path><path id="path4" d="M185.800 59.170 C 184.040 59.330,181.790 59.740,180.800 60.080 C 177.420 61.241,172.603 62.352,169.955 62.582 C 166.680 62.866,163.703 63.846,163.421 64.733 C 163.090 65.777,161.695 66.448,159.351 66.690 C 157.211 66.911,156.565 67.376,157.900 67.734 C 159.898 68.271,242.400 67.749,242.400 67.200 C 242.400 66.980,241.725 66.799,240.900 66.798 C 238.599 66.794,236.457 66.058,235.791 65.042 C 234.789 63.513,233.813 63.228,224.600 61.768 C 221.655 61.302,219.632 60.746,218.482 60.087 L 216.765 59.103 202.882 58.991 C 195.247 58.929,187.560 59.009,185.800 59.170 M342.800 126.995 C 342.800 127.215,344.785 129.200,345.005 129.200 C 345.098 129.200,345.030 128.810,344.854 128.333 C 344.588 127.615,342.800 126.449,342.800 126.995 M55.280 128.080 C 54.383 128.977,54.698 129.619,55.826 129.190 C 57.422 128.583,57.964 128.719,58.234 129.793 C 58.387 130.403,59.122 131.140,60.142 131.705 L 61.800 132.624 61.800 136.845 C 61.800 139.324,61.983 141.300,62.243 141.633 C 63.431 143.154,61.384 151.736,59.385 153.614 C 58.748 154.213,58.259 155.323,57.957 156.855 C 57.391 159.735,56.936 160.380,55.180 160.793 C 53.950 161.083,53.917 161.123,54.874 161.159 C 58.276 161.289,59.561 163.204,58.262 166.208 C 57.074 168.957,56.930 169.135,55.373 169.786 L 54.000 170.359 54.000 173.486 L 54.000 176.613 51.900 177.857 C 50.745 178.542,49.395 179.226,48.900 179.378 C 48.405 179.530,48.000 179.883,48.000 180.164 C 48.000 180.444,47.280 182.127,46.400 183.903 C 45.520 185.680,44.800 187.351,44.800 187.617 C 44.800 188.333,42.737 192.800,42.406 192.800 C 42.250 192.800,41.811 193.488,41.432 194.328 C 41.054 195.168,40.228 196.343,39.597 196.938 C 38.064 198.385,37.332 201.205,37.072 206.672 C 36.955 209.131,36.638 211.555,36.368 212.059 C 36.073 212.610,35.668 216.728,35.352 222.388 C 35.063 227.564,34.550 235.400,34.213 239.800 C 33.876 244.200,33.485 250.770,33.345 254.400 C 33.142 259.650,32.891 261.695,32.116 264.400 C 31.580 266.270,31.040 269.060,30.916 270.600 C 30.506 275.701,29.832 275.602,29.558 270.400 C 29.083 261.349,27.355 236.424,26.397 224.800 C 25.699 216.337,24.938 211.981,24.063 211.438 C 23.479 211.076,24.695 239.814,25.466 244.600 C 25.816 246.771,26.181 253.517,26.387 261.600 C 26.800 277.818,27.236 279.251,31.549 278.562 C 35.088 277.996,34.952 278.736,35.604 256.400 C 35.812 249.250,36.161 242.770,36.378 242.000 C 37.541 237.880,38.090 230.209,38.199 216.551 C 38.335 199.478,38.413 198.718,40.112 197.960 C 40.972 197.576,41.465 197.007,41.682 196.147 C 41.865 195.421,42.321 194.809,42.765 194.693 C 43.186 194.583,43.999 193.752,44.571 192.846 C 45.142 191.941,45.786 191.200,46.000 191.200 C 46.214 191.200,46.866 190.446,47.448 189.525 C 48.029 188.603,49.583 186.808,50.900 185.535 C 53.264 183.250,53.291 183.199,53.033 181.481 C 52.741 179.534,53.440 178.918,56.400 178.512 C 58.761 178.189,59.200 177.488,59.203 174.038 C 59.205 172.367,59.406 169.830,59.650 168.400 C 59.893 166.970,60.117 163.312,60.147 160.271 L 60.200 154.742 61.459 153.671 C 62.273 152.978,62.961 151.823,63.409 150.400 C 63.789 149.190,64.438 147.828,64.850 147.374 C 65.263 146.920,65.600 146.349,65.600 146.105 C 65.600 145.861,66.229 144.837,66.998 143.830 L 68.396 141.998 67.063 140.499 C 66.215 139.546,65.387 137.908,64.789 136.000 C 63.738 132.646,62.892 131.477,60.706 130.356 C 59.884 129.935,58.918 129.142,58.560 128.595 C 57.851 127.513,56.119 127.241,55.280 128.080 M341.499 128.503 C 341.347 128.890,340.722 129.420,340.111 129.681 C 336.591 131.184,334.800 134.103,334.800 138.337 C 334.800 138.825,334.485 139.336,334.100 139.471 C 331.685 140.320,330.831 142.092,332.255 143.303 C 332.835 143.796,333.725 145.128,334.233 146.263 C 334.742 147.398,335.335 148.436,335.553 148.571 C 335.770 148.705,336.328 149.831,336.792 151.072 C 337.257 152.313,338.070 153.843,338.599 154.472 C 339.495 155.537,339.561 155.937,339.563 160.308 C 339.564 162.888,339.752 166.080,339.980 167.400 C 340.208 168.720,340.396 171.527,340.398 173.638 C 340.400 178.204,340.783 178.800,343.713 178.800 C 346.058 178.800,347.722 179.513,347.381 180.371 C 346.489 182.620,346.669 183.549,348.165 184.432 C 348.970 184.907,349.897 185.815,350.225 186.448 C 350.553 187.082,350.993 187.600,351.204 187.600 C 351.414 187.600,352.043 188.500,352.600 189.600 C 353.157 190.700,353.878 191.600,354.201 191.600 C 354.525 191.600,355.047 192.216,355.361 192.969 C 355.676 193.722,356.398 194.642,356.967 195.015 C 357.535 195.387,358.000 195.955,358.000 196.277 C 358.000 196.599,358.696 197.552,359.547 198.395 C 361.643 200.470,361.622 200.301,361.614 214.912 C 361.607 228.328,362.006 235.950,363.054 242.400 C 363.455 244.871,363.796 251.167,364.029 260.400 C 364.478 278.212,364.691 278.989,369.000 278.486 C 372.917 278.027,373.586 276.299,373.631 266.523 C 373.671 258.082,374.152 249.141,374.985 241.400 C 375.533 236.305,376.498 212.074,376.169 211.663 C 375.899 211.325,374.880 213.970,374.652 215.600 C 373.893 221.034,371.917 248.611,370.849 268.683 C 370.526 274.739,370.621 274.507,368.678 273.970 L 367.200 273.562 367.200 271.155 C 367.200 262.701,363.650 214.801,362.816 212.003 C 362.587 211.234,362.398 208.714,362.395 206.403 C 362.390 201.609,361.646 198.187,360.422 197.330 C 359.967 197.012,359.301 196.177,358.941 195.476 C 358.582 194.774,357.901 193.736,357.428 193.169 C 356.955 192.603,356.219 190.713,355.791 188.969 C 355.363 187.226,354.803 185.580,354.546 185.311 C 353.717 184.443,352.470 182.229,352.200 181.147 C 351.959 180.182,350.070 178.675,347.300 177.239 C 346.521 176.835,346.400 176.454,346.400 174.412 C 346.400 171.416,345.881 170.000,344.784 170.000 C 343.619 170.000,342.400 169.283,342.400 168.598 C 342.400 168.283,342.021 167.297,341.558 166.408 C 340.186 163.776,341.119 161.802,344.000 161.239 C 345.148 161.015,345.424 160.872,344.762 160.844 C 343.290 160.782,342.555 159.757,342.004 157.000 C 341.643 155.193,341.186 154.248,340.152 153.172 C 338.609 151.568,338.013 149.057,338.070 144.400 C 338.087 142.970,338.124 139.805,338.151 137.367 C 338.205 132.521,338.460 131.848,340.398 131.460 C 341.617 131.217,342.228 130.044,341.924 128.532 C 341.785 127.844,341.760 127.843,341.499 128.503 M54.800 131.600 C 54.800 133.086,54.720 133.200,53.680 133.200 C 52.007 133.200,51.600 133.881,51.600 136.680 L 51.600 139.200 50.300 139.241 L 49.000 139.282 50.335 139.709 C 51.952 140.226,52.493 139.671,52.293 137.700 C 52.220 136.985,52.315 136.400,52.504 136.400 C 52.693 136.400,52.738 136.223,52.604 136.006 C 52.453 135.762,52.824 135.705,53.580 135.856 C 54.251 135.990,54.805 136.032,54.811 135.950 C 54.817 135.868,54.931 134.495,55.063 132.900 C 55.196 131.305,55.191 130.000,55.052 130.000 C 54.914 130.000,54.800 130.720,54.800 131.600 M344.949 134.262 C 344.614 135.596,345.198 136.562,346.441 136.728 C 346.968 136.799,347.625 137.148,347.900 137.505 C 348.320 138.049,348.400 137.833,348.400 136.156 C 348.400 133.182,345.605 131.648,344.949 134.262 M39.314 160.600 C 39.311 162.140,39.387 162.995,39.482 162.500 C 39.628 161.743,39.921 161.596,41.328 161.577 C 42.248 161.564,43.720 161.414,44.600 161.242 L 46.200 160.930 44.800 160.656 C 43.477 160.397,41.168 160.086,40.127 160.027 C 39.866 160.012,39.578 159.505,39.487 158.900 C 39.395 158.295,39.317 159.060,39.314 160.600 M354.115 160.364 C 353.581 161.220,354.287 161.772,355.381 161.352 C 355.934 161.140,355.423 159.600,354.800 159.600 C 354.686 159.600,354.378 159.944,354.115 160.364 M358.000 175.551 C 358.000 176.700,358.104 176.797,359.300 176.768 C 360.015 176.751,360.374 176.646,360.098 176.534 C 359.821 176.423,359.697 176.167,359.821 175.966 C 359.945 175.765,359.846 175.600,359.600 175.600 C 359.354 175.600,359.282 175.375,359.441 175.100 C 359.599 174.825,359.581 174.733,359.401 174.897 C 359.221 175.060,358.832 174.993,358.537 174.748 C 358.107 174.391,358.000 174.552,358.000 175.551 M28.800 187.565 C 28.382 188.037,28.314 188.054,28.578 187.621 C 28.887 187.114,28.823 187.121,28.231 187.662 C 27.340 188.474,27.714 189.200,29.024 189.200 C 29.792 189.200,30.000 188.992,30.000 188.224 C 30.000 186.961,29.553 186.715,28.800 187.565 M370.400 188.000 C 370.400 189.067,370.533 189.200,371.600 189.200 C 373.043 189.200,373.092 188.890,371.837 187.700 C 370.594 186.522,370.400 186.563,370.400 188.000 M63.467 189.467 C 63.320 189.613,63.200 190.308,63.200 191.010 L 63.200 192.287 60.100 192.767 C 55.458 193.486,54.634 193.746,54.247 194.610 C 54.052 195.045,53.026 196.098,51.965 196.950 C 50.750 197.928,49.772 199.147,49.319 200.249 C 48.923 201.210,48.375 202.020,48.100 202.049 C 47.825 202.077,47.195 202.126,46.700 202.157 C 45.862 202.210,45.806 202.379,45.891 204.607 C 46.049 208.728,45.706 210.287,44.581 210.569 C 43.661 210.800,43.600 210.982,43.603 213.508 C 43.609 217.491,42.371 226.718,41.625 228.250 C 40.911 229.719,41.160 236.831,41.980 238.363 C 42.278 238.920,42.229 239.437,41.797 240.264 C 41.092 241.617,41.051 243.049,41.629 246.175 C 41.977 248.058,41.932 249.065,41.392 251.494 C 40.812 254.102,40.736 257.089,40.808 274.545 C 40.892 295.110,41.040 298.053,42.391 306.000 C 42.821 308.530,43.314 311.770,43.486 313.200 C 43.740 315.302,43.964 315.872,44.655 316.175 C 45.314 316.465,45.661 317.239,46.168 319.548 C 46.698 321.958,47.091 322.802,48.177 323.856 C 49.129 324.782,49.656 325.769,49.965 327.213 C 50.634 330.329,53.858 333.849,56.364 334.198 C 58.500 334.496,59.176 334.932,60.190 336.664 C 61.488 338.882,66.773 338.835,68.241 336.593 C 69.021 335.403,68.728 331.832,67.561 328.318 C 66.771 325.937,66.309 323.192,65.622 316.800 C 65.398 314.710,64.863 312.086,64.435 310.968 C 63.623 308.853,63.006 304.104,62.567 296.600 C 62.395 293.660,62.060 291.619,61.555 290.449 C 61.035 289.244,60.799 287.748,60.798 285.649 C 60.796 283.972,60.628 281.579,60.424 280.331 C 59.338 273.705,60.154 239.777,61.432 238.365 C 61.883 237.866,62.212 236.426,62.448 233.914 C 63.921 218.251,64.012 217.624,64.944 216.692 C 65.727 215.910,65.914 215.050,66.396 210.043 C 66.838 205.449,67.097 204.155,67.685 203.607 C 68.679 202.681,69.131 200.931,69.443 196.807 C 69.769 192.484,69.498 191.929,66.618 191.023 C 65.309 190.611,64.400 190.095,64.400 189.763 C 64.400 189.170,63.917 189.017,63.467 189.467 M331.400 191.546 L 329.800 192.200 330.046 194.200 C 331.323 204.588,331.316 204.552,332.265 205.502 C 333.080 206.317,333.253 207.054,333.626 211.318 C 334.223 218.147,334.339 218.739,335.266 219.666 C 336.250 220.650,336.849 224.822,337.611 236.000 C 337.965 241.187,338.334 243.961,338.843 245.276 C 339.828 247.821,339.795 282.201,338.806 283.393 C 338.435 283.839,338.132 285.544,337.960 288.145 C 337.061 301.772,336.695 305.079,335.784 307.800 C 335.268 309.340,334.649 312.490,334.407 314.800 C 333.704 321.520,333.220 324.401,332.592 325.616 C 332.269 326.241,331.767 328.831,331.477 331.373 L 330.950 335.994 331.975 336.956 C 334.214 339.056,337.533 338.656,340.115 335.974 C 340.948 335.108,341.938 334.399,342.315 334.398 C 344.172 334.392,346.024 333.515,346.622 332.357 C 346.965 331.695,347.840 330.488,348.566 329.676 C 349.427 328.714,350.064 327.434,350.396 326.000 C 351.040 323.218,351.407 322.515,352.375 322.208 C 353.173 321.955,353.736 320.593,354.196 317.800 C 354.341 316.920,354.803 315.480,355.222 314.600 C 358.193 308.363,359.391 287.069,358.294 260.000 C 357.664 244.437,357.712 238.035,358.482 235.184 C 358.900 233.635,358.965 232.672,358.698 231.984 C 358.487 231.443,358.070 229.110,357.771 226.800 C 356.137 214.177,356.000 213.401,355.313 212.893 C 354.767 212.489,354.595 211.574,354.467 208.393 L 354.307 204.400 352.974 204.400 C 351.660 204.400,351.633 204.364,351.157 201.945 C 350.767 199.963,350.467 199.371,349.594 198.870 C 348.999 198.529,347.821 197.198,346.976 195.912 C 346.114 194.603,345.078 193.506,344.619 193.417 C 344.169 193.331,342.008 193.061,339.817 192.817 C 337.626 192.573,335.556 192.131,335.217 191.834 C 334.195 190.941,333.086 190.857,331.400 191.546 M68.051 193.463 C 68.847 194.424,68.649 198.022,67.689 200.073 C 66.525 202.557,66.135 204.116,65.607 208.400 C 65.293 210.945,64.762 213.021,63.998 214.684 C 62.998 216.861,62.800 217.952,62.397 223.484 C 62.082 227.813,61.695 230.432,61.169 231.808 C 60.746 232.912,60.397 234.262,60.394 234.808 C 60.391 235.353,60.088 236.610,59.721 237.600 C 58.274 241.504,58.870 287.611,60.411 291.000 C 60.811 291.880,61.220 293.500,61.319 294.600 C 62.485 307.551,62.881 310.443,64.026 314.400 C 64.531 316.146,64.903 319.339,65.158 324.122 C 65.441 329.437,65.697 331.489,66.169 332.208 C 67.006 333.486,66.012 336.279,65.059 335.326 C 64.917 335.183,64.800 335.272,64.800 335.523 C 64.800 335.840,64.506 335.868,63.841 335.616 C 63.314 335.415,62.774 335.360,62.641 335.492 C 62.509 335.625,62.400 335.513,62.400 335.243 C 62.400 334.973,62.225 334.861,62.012 334.993 C 61.798 335.125,61.226 334.775,60.739 334.216 C 60.005 333.372,59.505 333.200,57.777 333.200 C 55.537 333.200,55.031 332.859,54.574 331.040 C 54.415 330.404,53.635 329.235,52.841 328.441 C 51.955 327.555,51.089 326.091,50.601 324.656 C 50.163 323.368,49.389 321.898,48.881 321.390 C 48.032 320.541,45.643 314.163,44.240 309.000 C 42.061 300.980,41.367 276.336,42.890 261.058 C 43.603 253.909,43.755 250.144,43.675 241.545 C 43.578 230.980,44.224 220.729,45.138 218.351 C 45.360 217.774,45.665 215.974,45.816 214.351 C 46.253 209.647,47.037 206.767,48.134 205.830 C 48.798 205.263,49.240 204.286,49.531 202.744 C 49.908 200.741,50.214 200.246,52.245 198.344 C 53.504 197.165,55.050 195.705,55.681 195.100 C 56.311 194.495,57.136 193.985,57.514 193.966 C 57.891 193.947,59.820 193.699,61.800 193.416 C 66.788 192.702,67.425 192.707,68.051 193.463 M338.737 193.596 C 341.013 193.817,343.083 194.123,343.337 194.275 C 344.371 194.891,346.901 197.482,347.658 198.700 C 348.102 199.415,348.714 200.000,349.019 200.000 C 349.745 200.000,350.399 201.264,350.402 202.674 C 350.407 204.864,351.218 206.848,352.384 207.517 C 353.500 208.157,353.516 208.221,353.974 213.982 C 354.229 217.182,354.711 220.753,355.045 221.919 C 355.527 223.598,355.728 228.203,356.018 244.119 C 356.218 255.163,356.495 264.830,356.632 265.600 C 357.688 271.511,356.527 306.720,355.195 309.210 C 354.913 309.736,354.290 311.907,353.811 314.035 C 353.133 317.042,352.612 318.349,351.470 319.905 C 350.661 321.006,349.999 322.063,349.998 322.254 C 349.989 323.660,348.909 325.857,347.580 327.173 C 346.711 328.033,346.000 329.007,346.000 329.336 C 346.000 330.630,342.953 333.200,341.419 333.200 C 339.598 333.200,337.236 334.171,336.500 335.221 C 335.942 336.018,335.928 336.016,335.158 335.037 C 334.729 334.493,334.024 333.935,333.590 333.797 C 332.422 333.426,332.477 330.005,333.676 328.383 C 334.444 327.344,334.589 326.468,334.848 321.299 C 335.124 315.817,335.524 313.317,336.946 308.200 C 337.251 307.100,337.626 303.950,337.778 301.200 C 337.930 298.450,338.312 294.785,338.627 293.056 C 338.942 291.327,339.200 289.023,339.200 287.936 C 339.200 286.839,339.504 285.391,339.883 284.680 C 340.828 282.910,341.601 248.841,340.784 245.000 C 340.503 243.680,340.132 241.700,339.960 240.600 C 339.788 239.500,339.370 237.340,339.032 235.800 C 338.694 234.260,338.169 230.030,337.865 226.400 C 337.384 220.648,337.176 219.537,336.245 217.757 C 335.425 216.190,335.044 214.588,334.609 210.878 C 334.238 207.714,333.684 205.146,333.005 203.449 C 332.026 201.001,331.207 197.302,331.202 195.300 C 331.199 194.032,332.600 192.740,333.706 192.990 C 334.198 193.101,336.462 193.374,338.737 193.596 M378.135 221.984 C 376.766 222.560,376.733 223.164,377.221 238.481 C 377.476 246.467,377.806 264.250,377.955 278.000 C 378.227 303.130,378.357 305.200,379.659 305.200 C 380.501 305.200,383.209 302.875,383.619 301.800 C 383.880 301.116,384.169 296.981,384.292 292.185 C 384.485 284.659,384.289 278.706,383.242 260.400 C 383.034 256.750,383.101 253.294,383.450 249.735 C 385.385 229.981,384.982 222.000,382.050 222.000 C 381.638 222.000,380.783 221.915,380.150 221.810 C 379.518 221.706,378.611 221.784,378.135 221.984 M16.162 222.844 C 15.210 223.899,15.146 232.292,15.980 246.586 C 16.311 252.247,16.417 258.387,16.256 262.586 C 16.113 266.334,15.814 274.189,15.593 280.043 C 14.900 298.424,15.617 304.000,18.674 304.000 C 21.376 304.000,21.290 304.751,21.629 278.000 C 21.795 264.910,22.117 250.780,22.345 246.600 C 23.152 231.781,23.316 223.764,22.830 222.856 C 22.155 221.595,17.297 221.587,16.162 222.844 M20.920 223.560 C 22.204 224.844,19.818 244.516,18.038 247.328 L 17.274 248.534 17.054 246.367 C 16.350 239.418,15.981 226.431,16.437 224.620 L 16.918 222.707 18.743 222.958 C 19.747 223.095,20.726 223.366,20.920 223.560 M382.135 223.175 C 384.371 224.025,384.416 237.314,382.206 244.400 C 379.525 252.997,379.706 265.214,382.641 273.861 C 383.167 275.409,383.294 277.839,383.337 287.177 L 383.389 298.600 382.286 300.168 C 381.316 301.548,379.689 303.066,379.550 302.723 C 379.133 301.692,378.998 287.551,379.269 273.200 C 379.490 261.473,379.468 252.724,379.208 248.600 C 378.645 239.665,378.225 224.232,378.525 223.451 C 378.806 222.718,380.578 222.583,382.135 223.175 M18.554 271.621 C 20.568 283.544,19.846 302.282,17.395 301.707 C 16.692 301.543,16.381 294.055,16.601 282.600 C 16.933 265.372,17.223 263.742,18.554 271.621 " stroke="none" fill="#7f7f7f" fill-rule="evenodd"></path></g></svg>