<svg id="svg" version="1.1" xmlns="http://www.w3.org/2000/svg" xmlns:xlink="http://www.w3.org/1999/xlink" width="400" height="400" viewBox="0, 0, 400,400"><g id="svgg"><path id="path0" d="M192.800 168.000 C 192.800 168.220,192.080 168.400,191.200 168.400 C 190.320 168.400,189.600 168.580,189.600 168.800 C 189.600 169.020,189.060 169.200,188.400 169.200 C 187.740 169.200,187.200 169.380,187.200 169.600 C 187.200 169.820,186.840 170.000,186.400 170.000 C 185.960 170.000,185.600 170.180,185.600 170.400 C 185.600 170.620,185.240 170.800,184.800 170.800 C 184.360 170.800,184.000 170.980,184.000 171.200 C 184.000 171.420,183.640 171.600,183.200 171.600 C 182.760 171.600,182.400 171.750,182.400 171.932 C 182.400 172.115,181.910 172.520,181.311 172.832 C 179.268 173.897,173.897 179.268,172.832 181.311 C 172.520 181.910,172.115 182.400,171.932 182.400 C 171.750 182.400,171.600 182.760,171.600 183.200 C 171.600 183.640,171.420 184.000,171.200 184.000 C 170.980 184.000,170.800 184.360,170.800 184.800 C 170.800 185.240,170.620 185.600,170.400 185.600 C 170.180 185.600,170.000 185.960,170.000 186.400 C 170.000 186.840,169.820 187.200,169.600 187.200 C 169.380 187.200,169.200 187.740,169.200 188.400 C 169.200 189.060,169.020 189.600,168.800 189.600 C 168.580 189.600,168.400 190.320,168.400 191.200 C 168.400 192.080,168.220 192.800,168.000 192.800 C 167.749 192.800,167.600 195.267,167.600 199.400 C 167.600 203.533,167.749 206.000,168.000 206.000 C 168.220 206.000,168.400 206.630,168.400 207.400 C 168.400 208.170,168.580 208.800,168.800 208.800 C 169.020 208.800,169.200 209.340,169.200 210.000 C 169.200 210.660,169.380 211.200,169.600 211.200 C 169.820 211.200,170.000 211.453,170.000 211.762 C 170.000 212.428,171.668 215.741,172.100 215.933 C 172.265 216.007,172.400 216.372,172.400 216.745 C 172.400 217.118,172.760 217.683,173.200 218.000 C 173.640 218.317,174.000 218.807,174.000 219.088 C 174.000 219.370,174.180 219.600,174.400 219.600 C 174.620 219.600,174.800 219.772,174.800 219.983 C 174.800 220.582,179.300 225.200,179.885 225.200 C 180.172 225.200,180.972 225.740,181.663 226.400 C 182.354 227.060,183.162 227.600,183.459 227.600 C 183.757 227.600,184.000 227.780,184.000 228.000 C 184.000 228.220,184.360 228.400,184.800 228.400 C 185.240 228.400,185.600 228.580,185.600 228.800 C 185.600 229.020,185.960 229.200,186.400 229.200 C 186.840 229.200,187.200 229.380,187.200 229.600 C 187.200 229.820,187.740 230.000,188.400 230.000 C 189.060 230.000,189.600 230.180,189.600 230.400 C 189.600 230.620,190.140 230.800,190.800 230.800 C 191.460 230.800,192.000 230.980,192.000 231.200 C 192.000 231.420,192.889 231.600,193.976 231.600 C 195.063 231.600,196.064 231.780,196.200 232.000 C 196.336 232.221,198.130 232.400,200.200 232.400 C 202.270 232.400,204.064 232.221,204.200 232.000 C 204.336 231.780,205.337 231.600,206.424 231.600 C 207.511 231.600,208.400 231.420,208.400 231.200 C 208.400 230.980,209.030 230.800,209.800 230.800 C 210.570 230.800,211.200 230.620,211.200 230.400 C 211.200 230.180,211.560 230.000,212.000 230.000 C 212.440 230.000,212.800 229.820,212.800 229.600 C 212.800 229.380,213.034 229.200,213.320 229.200 C 214.056 229.200,215.993 228.259,215.997 227.900 C 215.999 227.735,216.360 227.600,216.800 227.600 C 217.240 227.600,217.600 227.420,217.600 227.200 C 217.600 226.980,217.870 226.800,218.200 226.800 C 218.530 226.800,218.800 226.620,218.800 226.400 C 218.800 226.180,218.979 226.000,219.197 226.000 C 220.142 226.000,226.000 220.142,226.000 219.197 C 226.000 218.979,226.180 218.800,226.400 218.800 C 226.620 218.800,226.800 218.530,226.800 218.200 C 226.800 217.870,226.980 217.600,227.200 217.600 C 227.420 217.600,227.600 217.240,227.600 216.800 C 227.600 216.360,227.735 215.999,227.900 215.997 C 228.259 215.993,229.200 214.056,229.200 213.320 C 229.200 213.034,229.380 212.800,229.600 212.800 C 229.820 212.800,230.000 212.440,230.000 212.000 C 230.000 211.560,230.180 211.200,230.400 211.200 C 230.620 211.200,230.800 210.570,230.800 209.800 C 230.800 209.030,230.980 208.400,231.200 208.400 C 231.420 208.400,231.600 207.410,231.600 206.200 C 231.600 204.990,231.780 204.000,232.000 204.000 C 232.237 204.000,232.400 202.541,232.400 200.424 C 232.400 198.457,232.220 196.736,232.000 196.600 C 231.780 196.464,231.600 195.373,231.600 194.176 C 231.600 192.979,231.420 192.000,231.200 192.000 C 230.980 192.000,230.800 191.460,230.800 190.800 C 230.800 190.140,230.620 189.600,230.400 189.600 C 230.180 189.600,230.000 189.060,230.000 188.400 C 230.000 187.740,229.820 187.200,229.600 187.200 C 229.380 187.200,229.200 186.840,229.200 186.400 C 229.200 185.960,229.020 185.600,228.800 185.600 C 228.580 185.600,228.400 185.240,228.400 184.800 C 228.400 184.360,228.220 184.000,228.000 184.000 C 227.780 184.000,227.600 183.730,227.600 183.400 C 227.600 183.070,227.420 182.800,227.200 182.800 C 226.980 182.800,226.800 182.570,226.800 182.288 C 226.800 182.007,226.440 181.517,226.000 181.200 C 225.560 180.883,225.200 180.340,225.200 179.993 C 225.200 179.332,220.647 174.800,219.983 174.800 C 219.772 174.800,219.600 174.620,219.600 174.400 C 219.600 174.180,219.370 174.000,219.088 174.000 C 218.807 174.000,218.317 173.640,218.000 173.200 C 217.683 172.760,217.118 172.400,216.745 172.400 C 216.372 172.400,216.007 172.265,215.933 172.100 C 215.741 171.668,212.428 170.000,211.762 170.000 C 211.453 170.000,211.200 169.820,211.200 169.600 C 211.200 169.380,210.660 169.200,210.000 169.200 C 209.340 169.200,208.800 169.020,208.800 168.800 C 208.800 168.580,208.170 168.400,207.400 168.400 C 206.630 168.400,206.000 168.220,206.000 168.000 C 206.000 167.749,203.533 167.600,199.400 167.600 C 195.267 167.600,192.800 167.749,192.800 168.000 " stroke="none" fill="#2775ab" fill-rule="evenodd"></path><path id="path1" d="M229.720 64.123 C 229.544 64.411,228.770 64.892,228.000 65.191 C 225.887 66.011,223.144 67.933,221.800 69.533 C 221.140 70.319,219.925 71.618,219.100 72.420 C 217.992 73.496,217.600 74.207,217.600 75.139 C 217.600 75.832,217.420 76.400,217.200 76.400 C 216.965 76.400,216.800 77.800,216.800 79.800 C 216.800 81.800,216.965 83.200,217.200 83.200 C 217.420 83.200,217.600 83.830,217.600 84.600 C 217.600 85.370,217.780 86.000,218.000 86.000 C 218.220 86.000,218.400 86.283,218.400 86.628 C 218.400 87.306,220.722 90.906,221.314 91.146 C 221.512 91.226,222.643 92.261,223.828 93.446 C 225.013 94.631,226.257 95.600,226.591 95.600 C 226.926 95.600,227.201 95.735,227.203 95.900 C 227.205 96.065,227.655 96.408,228.204 96.663 C 228.752 96.917,229.100 96.962,228.977 96.763 C 228.619 96.184,230.022 96.363,232.400 97.200 C 233.610 97.626,234.994 97.980,235.476 97.987 C 235.958 97.994,236.464 98.180,236.600 98.400 C 237.116 99.234,242.800 98.889,242.800 98.024 C 242.800 97.597,242.628 97.141,242.417 97.011 C 241.807 96.634,242.412 95.600,243.243 95.600 C 243.659 95.600,244.000 95.420,244.000 95.200 C 244.000 94.980,244.235 94.800,244.522 94.800 C 245.181 94.800,248.000 92.244,248.000 91.646 C 248.000 91.401,248.180 91.200,248.400 91.200 C 248.620 91.200,248.800 90.930,248.800 90.600 C 248.800 90.270,248.935 89.999,249.100 89.997 C 249.501 89.993,250.400 88.019,250.400 87.144 C 250.400 86.761,250.580 86.336,250.800 86.200 C 251.027 86.060,251.200 84.063,251.200 81.576 C 251.200 78.925,251.042 77.200,250.800 77.200 C 250.580 77.200,250.400 76.660,250.400 76.000 C 250.400 75.340,250.220 74.800,250.000 74.800 C 249.780 74.800,249.600 74.440,249.600 74.000 C 249.600 73.560,249.420 73.200,249.200 73.200 C 248.980 73.200,248.800 72.948,248.800 72.641 C 248.800 71.975,243.051 66.000,242.411 66.000 C 242.166 66.000,241.580 65.640,241.108 65.200 C 240.636 64.760,239.934 64.400,239.548 64.400 C 239.163 64.400,238.736 64.220,238.600 64.000 C 238.212 63.372,230.110 63.484,229.720 64.123 M74.000 220.400 C 74.000 220.620,73.460 220.800,72.800 220.800 C 72.140 220.800,71.600 220.980,71.600 221.200 C 71.600 221.420,71.240 221.600,70.800 221.600 C 70.360 221.600,70.000 221.750,70.000 221.932 C 70.000 222.115,69.506 222.520,68.903 222.832 C 66.426 224.114,62.800 228.861,62.800 230.822 C 62.800 231.224,62.620 231.664,62.400 231.800 C 62.175 231.939,62.000 233.863,62.000 236.200 C 62.000 238.537,62.175 240.461,62.400 240.600 C 62.620 240.736,62.800 241.180,62.800 241.586 C 62.800 242.852,64.513 245.613,65.443 245.847 C 65.928 245.968,67.124 247.098,68.102 248.357 C 69.789 250.529,73.817 253.200,75.406 253.200 C 76.193 253.200,77.250 254.389,76.945 254.932 C 76.774 255.237,76.870 255.226,77.221 254.900 C 77.562 254.584,78.973 254.400,81.056 254.400 C 82.869 254.400,84.464 254.220,84.600 254.000 C 84.736 253.780,85.180 253.600,85.586 253.600 C 86.475 253.600,89.600 251.985,89.600 251.526 C 89.600 251.347,89.786 251.200,90.013 251.200 C 90.612 251.200,93.200 248.521,93.200 247.902 C 93.200 247.613,93.560 247.117,94.000 246.800 C 94.440 246.483,94.800 245.824,94.800 245.335 C 94.800 244.847,94.980 244.336,95.200 244.200 C 95.420 244.064,95.600 243.423,95.600 242.776 C 95.600 242.129,95.780 241.600,96.000 241.600 C 96.237 241.600,96.400 240.141,96.400 238.024 C 96.400 236.057,96.220 234.336,96.000 234.200 C 95.780 234.064,95.600 233.423,95.600 232.776 C 95.600 232.129,95.420 231.600,95.200 231.600 C 94.980 231.600,94.800 231.280,94.800 230.888 C 94.800 230.497,94.463 229.933,94.050 229.636 C 93.638 229.339,92.051 227.904,90.523 226.448 C 87.856 223.905,84.957 222.000,83.754 222.000 C 83.440 222.000,82.978 221.550,82.727 221.000 C 82.243 219.936,74.000 219.370,74.000 220.400 M317.200 220.600 C 317.200 220.930,317.018 221.200,316.796 221.200 C 315.279 221.200,311.676 223.485,309.613 225.755 C 308.836 226.610,307.525 228.005,306.700 228.854 C 305.798 229.783,305.200 230.788,305.200 231.376 C 305.200 231.913,305.020 232.464,304.800 232.600 C 304.580 232.736,304.400 234.367,304.400 236.224 C 304.400 238.208,304.565 239.600,304.800 239.600 C 305.020 239.600,305.200 240.230,305.200 241.000 C 305.200 241.770,305.380 242.400,305.600 242.400 C 305.820 242.400,306.000 242.760,306.000 243.200 C 306.000 243.640,306.180 244.000,306.400 244.000 C 306.620 244.000,306.800 244.288,306.800 244.640 C 306.800 244.991,307.295 245.756,307.900 246.340 C 308.505 246.923,309.255 247.895,309.568 248.500 C 309.880 249.105,310.258 249.600,310.408 249.600 C 310.558 249.600,311.246 250.140,311.937 250.800 C 312.628 251.460,313.464 252.000,313.796 252.000 C 314.128 252.000,314.400 252.180,314.400 252.400 C 314.400 252.620,314.760 252.800,315.200 252.800 C 315.640 252.800,316.000 252.980,316.000 253.200 C 316.000 253.420,316.529 253.600,317.176 253.600 C 317.823 253.600,318.464 253.780,318.600 254.000 C 318.978 254.611,322.563 254.476,323.854 253.802 C 324.484 253.474,325.332 253.204,325.738 253.202 C 327.965 253.195,330.972 251.837,332.920 249.959 C 334.038 248.881,335.176 248.000,335.449 248.000 C 335.723 248.000,336.060 247.640,336.200 247.200 C 336.340 246.760,336.622 246.400,336.827 246.400 C 337.032 246.400,337.200 246.040,337.200 245.600 C 337.200 245.160,337.380 244.800,337.600 244.800 C 337.820 244.800,338.000 244.260,338.000 243.600 C 338.000 242.940,338.180 242.400,338.400 242.400 C 338.642 242.400,338.800 240.675,338.800 238.024 C 338.800 235.537,338.627 233.540,338.400 233.400 C 338.180 233.264,338.000 232.820,338.000 232.414 C 338.000 231.525,336.385 228.400,335.926 228.400 C 335.747 228.400,335.600 228.206,335.600 227.969 C 335.600 227.345,330.409 222.400,329.754 222.400 C 329.449 222.400,329.200 222.220,329.200 222.000 C 329.200 221.780,328.840 221.600,328.400 221.600 C 327.960 221.600,327.600 221.420,327.600 221.200 C 327.600 220.980,327.060 220.800,326.400 220.800 C 325.740 220.800,325.200 220.620,325.200 220.400 C 325.200 220.160,323.600 220.000,321.200 220.000 C 317.911 220.000,317.200 220.107,317.200 220.600 " stroke="none" fill="#d1463f" fill-rule="evenodd"></path><path id="path2" d="M291.443 106.330 C 291.322 106.526,289.733 106.722,287.911 106.766 C 286.090 106.809,284.429 107.014,284.220 107.222 C 284.011 107.430,282.886 107.600,281.720 107.600 C 280.554 107.600,279.600 107.780,279.600 108.000 C 279.600 108.222,278.533 108.400,277.200 108.400 C 275.867 108.400,274.800 108.578,274.800 108.800 C 274.800 109.020,274.005 109.200,273.033 109.200 C 272.062 109.200,271.207 109.360,271.133 109.555 C 271.003 109.902,267.879 110.439,266.100 110.419 C 265.605 110.413,265.200 110.617,265.200 110.871 C 265.200 111.125,265.090 111.223,264.955 111.088 C 264.820 110.953,264.055 111.098,263.255 111.409 C 262.455 111.721,261.350 112.059,260.800 112.162 C 259.778 112.352,255.214 113.607,252.930 114.327 C 252.232 114.547,251.557 114.623,251.430 114.497 C 251.304 114.370,251.200 114.477,251.200 114.733 C 251.200 114.990,250.771 115.200,250.246 115.200 C 249.691 115.200,249.039 115.586,248.687 116.123 C 248.288 116.733,247.015 117.402,244.941 118.094 C 243.214 118.671,240.615 119.579,239.166 120.112 C 237.521 120.717,236.040 121.009,235.222 120.889 C 234.478 120.779,233.791 120.891,233.633 121.146 C 233.480 121.394,232.870 121.636,232.278 121.685 C 231.685 121.734,231.200 121.915,231.200 122.087 C 231.200 122.259,230.739 122.400,230.176 122.400 C 229.596 122.400,229.260 122.573,229.400 122.800 C 229.544 123.033,229.137 123.200,228.424 123.200 C 227.751 123.200,227.200 123.380,227.200 123.600 C 227.200 123.820,226.840 124.000,226.400 124.000 C 225.960 124.000,225.600 124.180,225.600 124.400 C 225.600 124.620,225.240 124.800,224.800 124.800 C 224.360 124.800,224.000 124.980,224.000 125.200 C 224.000 125.420,223.561 125.600,223.024 125.600 C 222.487 125.600,221.936 125.780,221.800 126.000 C 221.664 126.220,221.203 126.400,220.776 126.400 C 220.349 126.400,220.000 126.580,220.000 126.800 C 220.000 127.020,219.742 127.200,219.426 127.200 C 219.110 127.200,218.435 127.358,217.926 127.552 C 217.417 127.746,216.867 127.930,216.705 127.961 C 216.542 127.992,215.570 128.464,214.545 129.009 C 213.520 129.554,212.478 130.000,212.229 130.000 C 211.981 130.000,211.333 130.315,210.789 130.700 C 209.924 131.312,207.776 132.243,206.610 132.510 C 206.395 132.560,205.975 132.827,205.677 133.104 C 205.379 133.381,204.970 133.505,204.768 133.380 C 204.565 133.255,204.400 133.343,204.400 133.576 C 204.400 133.809,204.040 134.000,203.600 134.000 C 203.160 134.000,202.800 134.136,202.800 134.302 C 202.800 134.469,202.215 134.861,201.500 135.173 C 200.785 135.486,199.981 136.047,199.714 136.419 C 199.134 137.226,186.931 143.337,184.500 144.038 C 183.565 144.308,182.800 144.667,182.800 144.837 C 182.800 145.141,181.148 145.806,180.845 145.625 C 180.759 145.573,180.579 145.682,180.445 145.866 C 180.120 146.309,177.981 147.592,177.100 147.871 C 176.715 147.993,176.400 148.263,176.400 148.470 C 176.400 148.678,176.232 148.744,176.028 148.617 C 175.823 148.491,175.554 148.551,175.430 148.752 C 175.157 149.194,172.000 150.874,172.000 150.578 C 172.000 150.463,171.606 150.736,171.125 151.184 C 170.643 151.633,170.013 152.000,169.725 152.000 C 169.436 152.000,169.200 152.180,169.200 152.400 C 169.200 152.620,168.964 152.800,168.675 152.800 C 168.387 152.800,167.764 153.160,167.292 153.600 C 166.820 154.040,166.156 154.400,165.817 154.400 C 165.478 154.400,165.200 154.580,165.200 154.800 C 165.200 155.020,164.930 155.200,164.600 155.200 C 164.270 155.200,164.000 155.336,164.000 155.502 C 164.000 155.669,163.415 156.064,162.700 156.380 C 161.985 156.697,161.051 157.280,160.625 157.678 C 160.198 158.075,159.634 158.400,159.371 158.400 C 159.108 158.400,158.802 158.747,158.691 159.172 C 158.470 160.018,157.752 160.548,150.483 165.232 C 147.779 166.974,145.212 168.400,144.778 168.400 C 143.952 168.400,142.611 169.051,141.687 169.900 C 141.388 170.175,141.004 170.400,140.834 170.400 C 140.664 170.400,140.001 170.850,139.362 171.400 C 138.723 171.949,138.015 172.399,137.788 172.400 C 137.562 172.400,137.117 172.760,136.800 173.200 C 136.483 173.640,136.038 174.000,135.812 174.001 C 135.585 174.001,134.770 174.541,134.000 175.200 C 133.230 175.859,132.452 176.399,132.271 176.399 C 132.091 176.400,131.692 176.625,131.385 176.900 C 130.037 178.110,129.404 178.600,129.194 178.600 C 128.928 178.600,126.916 180.145,125.160 181.698 C 124.477 182.303,123.729 182.680,123.498 182.537 C 123.251 182.384,123.195 182.468,123.362 182.738 C 123.519 182.992,123.502 183.200,123.324 183.201 C 123.146 183.201,122.370 183.741,121.600 184.400 C 120.830 185.059,120.047 185.599,119.860 185.599 C 119.674 185.600,119.044 186.102,118.460 186.715 C 117.877 187.329,116.770 188.268,116.000 188.802 C 114.235 190.027,113.600 190.641,113.600 191.123 C 113.600 191.804,103.927 199.952,102.833 200.193 C 102.248 200.321,101.328 200.960,100.789 201.613 C 100.250 202.266,99.552 202.800,99.238 202.800 C 98.924 202.800,98.759 202.892,98.872 203.005 C 99.144 203.277,95.708 206.800,95.171 206.800 C 94.941 206.800,94.864 206.980,95.000 207.200 C 95.136 207.420,94.956 207.600,94.600 207.600 C 94.244 207.600,94.028 207.735,94.120 207.900 C 94.329 208.276,90.909 211.575,90.615 211.282 C 90.497 211.163,90.400 211.377,90.400 211.757 C 90.400 212.137,90.220 212.336,90.000 212.200 C 89.780 212.064,89.600 212.244,89.600 212.600 C 89.600 212.956,89.465 213.187,89.300 213.114 C 89.135 213.040,88.256 213.749,87.347 214.690 C 86.438 215.630,85.763 216.400,85.847 216.400 C 85.931 216.400,85.685 216.728,85.300 217.129 C 81.958 220.610,81.937 220.798,84.731 222.089 C 87.218 223.237,88.968 224.526,91.508 227.080 L 93.616 229.199 96.178 226.637 C 97.588 225.227,98.668 224.001,98.578 223.912 C 98.283 223.617,109.912 212.446,110.223 212.726 C 110.391 212.877,110.407 212.789,110.259 212.531 C 110.103 212.258,110.537 211.677,111.295 211.144 C 113.111 209.867,113.600 209.346,113.600 208.689 C 113.600 208.376,114.725 207.153,116.100 205.970 C 117.475 204.788,118.690 203.724,118.800 203.605 C 119.895 202.422,123.263 200.000,123.812 200.000 C 124.198 200.000,125.035 199.454,125.673 198.787 C 126.311 198.119,127.033 197.697,127.278 197.848 C 127.548 198.015,127.611 197.942,127.438 197.662 C 127.281 197.408,127.361 197.200,127.616 197.200 C 127.871 197.200,128.583 196.660,129.200 196.000 C 129.817 195.340,130.619 194.800,130.984 194.800 C 131.349 194.800,131.536 194.620,131.400 194.400 C 131.264 194.180,131.394 194.000,131.688 194.000 C 131.983 194.000,132.483 193.640,132.800 193.200 C 133.117 192.760,133.607 192.400,133.888 192.400 C 134.170 192.400,134.400 192.259,134.400 192.086 C 134.400 191.914,134.972 191.435,135.670 191.022 C 136.877 190.309,137.299 189.992,139.334 188.265 C 139.810 187.860,140.695 187.237,141.300 186.879 C 141.905 186.520,142.400 186.086,142.400 185.914 C 142.400 185.741,142.626 185.600,142.902 185.600 C 143.179 185.600,143.634 185.083,143.913 184.451 C 144.558 182.994,156.121 175.200,157.637 175.200 C 158.194 175.200,159.036 174.840,159.508 174.400 C 159.980 173.960,160.554 173.600,160.783 173.600 C 161.012 173.600,161.200 173.390,161.200 173.133 C 161.200 172.877,161.314 172.781,161.454 172.920 C 161.593 173.060,162.157 172.820,162.708 172.387 C 163.258 171.954,163.926 171.600,164.192 171.600 C 164.458 171.600,165.002 171.240,165.400 170.800 C 165.798 170.360,166.467 170.000,166.886 170.000 C 167.304 170.000,167.536 169.820,167.400 169.600 C 167.264 169.380,167.433 169.200,167.776 169.200 C 168.119 169.200,168.400 169.064,168.400 168.898 C 168.400 168.731,168.985 168.336,169.700 168.020 C 170.415 167.703,171.349 167.120,171.775 166.722 C 172.202 166.325,172.772 166.000,173.042 166.000 C 173.312 166.000,173.593 165.865,173.667 165.700 C 173.740 165.535,174.655 164.967,175.700 164.437 C 176.745 163.908,177.600 163.323,177.600 163.137 C 177.600 162.952,177.960 162.800,178.400 162.800 C 178.840 162.800,179.200 162.654,179.200 162.475 C 179.200 162.296,179.830 161.902,180.600 161.600 C 181.370 161.298,182.000 160.904,182.000 160.725 C 182.000 160.546,182.255 160.400,182.567 160.400 C 182.878 160.400,183.193 160.265,183.267 160.100 C 183.340 159.935,184.660 159.173,186.200 158.407 C 187.740 157.640,189.671 156.605,190.492 156.107 C 191.313 155.608,192.258 155.200,192.592 155.200 C 192.926 155.200,193.200 155.020,193.200 154.800 C 193.200 154.580,193.372 154.400,193.582 154.400 C 193.793 154.400,194.881 153.860,196.000 153.200 C 197.119 152.540,198.375 152.000,198.791 152.000 C 199.206 152.000,199.661 151.637,199.802 151.193 C 200.081 150.316,200.813 149.895,208.600 146.134 C 211.460 144.753,214.565 143.507,215.500 143.366 C 216.435 143.225,217.200 142.950,217.200 142.755 C 217.200 142.560,217.560 142.400,218.000 142.400 C 218.440 142.400,218.800 142.243,218.800 142.051 C 218.800 141.859,219.507 141.589,220.372 141.451 C 221.236 141.313,222.183 140.960,222.475 140.668 C 222.768 140.375,223.214 140.205,223.467 140.289 C 223.720 140.373,224.044 140.253,224.187 140.021 C 224.330 139.790,224.797 139.600,225.224 139.600 C 225.651 139.600,226.000 139.420,226.000 139.200 C 226.000 138.980,226.435 138.800,226.967 138.800 C 227.498 138.800,227.996 138.612,228.073 138.382 C 228.149 138.152,228.614 137.934,229.106 137.897 C 229.598 137.860,230.000 137.732,230.000 137.613 C 230.000 137.290,232.228 136.363,233.176 136.292 C 233.629 136.258,234.000 136.088,234.000 135.915 C 234.000 135.742,234.349 135.600,234.776 135.600 C 235.203 135.600,235.664 135.420,235.800 135.200 C 235.936 134.980,236.390 134.800,236.810 134.800 C 237.229 134.800,237.765 134.440,238.000 133.999 C 238.492 133.081,239.769 132.499,245.506 130.576 C 249.945 129.088,251.023 128.926,251.335 129.700 C 251.496 130.100,251.543 130.100,251.568 129.700 C 251.586 129.425,252.050 129.200,252.600 129.200 C 253.150 129.200,253.600 129.020,253.600 128.800 C 253.600 128.580,254.129 128.400,254.776 128.400 C 255.423 128.400,256.064 128.220,256.200 128.000 C 256.336 127.780,256.966 127.600,257.600 127.600 C 258.234 127.600,258.864 127.420,259.000 127.200 C 259.136 126.980,259.867 126.800,260.624 126.800 C 261.381 126.800,262.000 126.620,262.000 126.400 C 262.000 126.180,262.641 126.000,263.424 126.000 C 264.207 126.000,264.747 125.838,264.625 125.640 C 264.503 125.442,265.257 125.172,266.301 125.040 C 269.958 124.577,270.617 124.458,272.800 123.858 C 274.010 123.526,275.540 123.162,276.200 123.050 C 276.860 122.938,278.480 122.647,279.800 122.403 C 281.120 122.160,283.370 121.785,284.800 121.571 C 286.230 121.357,287.670 121.106,288.000 121.012 C 288.330 120.918,290.625 120.787,293.100 120.720 C 295.575 120.654,297.600 120.504,297.600 120.388 C 297.600 120.006,303.116 119.940,303.350 120.318 C 303.475 120.521,305.036 120.722,306.819 120.765 C 308.602 120.808,310.509 121.013,311.057 121.222 C 311.604 121.430,312.490 121.600,313.026 121.600 C 313.562 121.600,314.000 121.780,314.000 122.000 C 314.000 122.220,314.414 122.400,314.919 122.400 C 316.964 122.400,323.200 126.315,323.200 127.599 C 323.200 127.838,323.560 128.420,324.000 128.892 C 324.440 129.364,324.800 130.257,324.800 130.875 C 324.800 131.494,324.980 132.000,325.200 132.000 C 325.433 132.000,325.600 133.333,325.600 135.200 C 325.600 137.067,325.433 138.400,325.200 138.400 C 324.980 138.400,324.800 139.131,324.800 140.024 C 324.800 140.917,324.658 141.560,324.485 141.452 C 324.312 141.345,324.133 141.700,324.088 142.241 C 324.044 142.782,323.645 143.973,323.203 144.887 C 322.762 145.802,322.400 146.786,322.400 147.075 C 322.400 147.364,322.220 147.600,322.000 147.600 C 321.780 147.600,321.600 147.926,321.600 148.325 C 321.600 148.723,321.240 149.436,320.800 149.908 C 320.360 150.380,320.000 151.044,320.000 151.383 C 320.000 151.722,319.820 152.000,319.600 152.000 C 319.380 152.000,319.200 152.360,319.200 152.800 C 319.200 153.240,319.041 153.600,318.847 153.600 C 318.652 153.600,318.393 153.915,318.271 154.300 C 317.945 155.329,316.700 157.305,315.925 158.024 C 315.554 158.369,315.194 158.894,315.125 159.192 C 314.981 159.816,314.626 160.291,312.353 162.900 C 311.443 163.945,310.818 164.800,310.965 164.800 C 311.246 164.800,311.070 165.039,309.301 167.056 C 308.696 167.746,307.930 168.719,307.600 169.217 C 307.270 169.715,305.704 171.445,304.121 173.062 C 302.537 174.678,301.352 176.000,301.486 176.000 C 301.620 176.000,300.372 177.341,298.711 178.980 C 297.051 180.619,295.792 182.059,295.913 182.180 C 296.034 182.301,295.803 182.400,295.400 182.400 C 294.997 182.400,294.780 182.514,294.919 182.653 C 295.058 182.792,294.662 183.377,294.038 183.953 C 290.871 186.878,290.060 187.526,289.840 187.307 C 289.708 187.175,289.600 187.372,289.600 187.746 C 289.600 188.119,289.285 188.546,288.901 188.693 C 285.868 189.857,286.028 191.357,289.495 194.259 C 290.763 195.320,292.760 197.045,293.932 198.094 C 296.539 200.424,296.747 200.432,298.903 198.276 C 299.851 197.328,300.936 196.433,301.313 196.289 C 301.691 196.144,302.000 195.719,302.000 195.346 C 302.000 194.972,302.100 194.767,302.222 194.889 C 302.443 195.110,309.600 188.294,309.600 187.863 C 309.600 187.437,311.551 185.684,311.776 185.909 C 311.899 186.032,312.000 185.942,312.000 185.709 C 312.000 185.476,313.236 184.011,314.746 182.455 C 316.257 180.899,317.401 179.534,317.289 179.422 C 317.177 179.310,317.381 179.105,317.743 178.967 C 318.104 178.828,318.400 178.536,318.400 178.318 C 318.400 178.099,318.909 177.444,319.531 176.860 C 320.153 176.277,321.167 175.035,321.784 174.100 C 322.401 173.165,323.062 172.400,323.253 172.400 C 323.444 172.400,323.600 172.130,323.600 171.800 C 323.600 171.470,323.789 171.200,324.021 171.200 C 324.252 171.200,324.630 170.660,324.860 170.000 C 325.090 169.341,325.440 168.901,325.639 169.024 C 325.838 169.147,326.000 168.877,326.000 168.424 C 326.000 167.971,326.150 167.600,326.332 167.600 C 326.515 167.600,326.919 167.105,327.230 166.500 C 327.540 165.895,328.111 165.109,328.497 164.753 C 328.884 164.397,329.200 163.878,329.200 163.600 C 329.200 163.322,329.515 162.803,329.900 162.447 C 330.285 162.091,330.659 161.530,330.730 161.200 C 330.802 160.870,331.027 160.540,331.230 160.467 C 331.434 160.393,331.600 159.988,331.600 159.567 C 331.600 159.145,331.780 158.800,332.000 158.800 C 332.220 158.800,332.400 158.522,332.400 158.183 C 332.400 157.844,332.760 157.180,333.200 156.708 C 333.640 156.236,334.000 155.619,334.000 155.337 C 334.000 155.055,334.360 154.183,334.800 153.400 C 335.240 152.617,335.600 151.711,335.600 151.388 C 335.600 151.065,335.780 150.800,336.000 150.800 C 336.220 150.800,336.400 150.361,336.400 149.824 C 336.400 149.287,336.580 148.736,336.800 148.600 C 337.020 148.464,337.200 147.913,337.200 147.376 C 337.200 146.839,337.343 146.400,337.518 146.400 C 337.693 146.400,337.881 145.744,337.935 144.943 C 337.989 144.142,338.205 143.164,338.416 142.769 C 338.627 142.375,338.800 141.511,338.800 140.850 C 338.800 140.188,338.971 139.541,339.181 139.412 C 339.663 139.114,339.440 132.065,338.863 129.400 C 338.625 128.300,338.313 126.815,338.170 126.100 C 338.026 125.385,337.772 124.800,337.605 124.800 C 337.437 124.800,337.196 124.282,337.070 123.648 C 336.943 123.015,336.560 122.218,336.220 121.877 C 335.879 121.536,335.597 121.109,335.593 120.929 C 335.577 120.203,329.676 113.600,329.044 113.600 C 328.770 113.600,328.195 113.168,326.915 112.000 C 326.553 111.670,326.154 111.412,326.029 111.428 C 325.525 111.488,323.600 110.604,323.600 110.312 C 323.600 110.141,323.150 110.000,322.600 110.000 C 322.050 110.000,321.600 109.859,321.600 109.687 C 321.600 109.515,320.745 109.143,319.700 108.861 C 318.655 108.578,317.487 108.179,317.105 107.973 C 316.723 107.768,315.778 107.600,315.005 107.600 C 314.232 107.600,313.600 107.420,313.600 107.200 C 313.600 106.978,312.541 106.800,311.224 106.800 C 309.917 106.800,308.744 106.633,308.618 106.429 C 308.323 105.952,291.736 105.856,291.443 106.330 M275.129 200.511 C 274.496 201.123,270.674 204.199,268.807 205.600 C 268.073 206.150,267.245 206.825,266.965 207.100 C 266.686 207.375,266.280 207.600,266.062 207.600 C 265.845 207.600,265.158 208.140,264.535 208.800 C 263.912 209.460,263.211 210.000,262.976 210.000 C 262.742 210.000,262.032 210.540,261.400 211.200 C 260.768 211.860,260.051 212.400,259.807 212.400 C 259.040 212.400,256.049 215.457,255.845 216.450 C 255.377 218.724,255.256 232.000,255.704 232.000 C 256.261 232.000,259.163 230.064,260.047 229.103 C 260.403 228.717,260.864 228.400,261.071 228.400 C 261.279 228.400,261.831 228.044,262.299 227.609 C 262.766 227.173,263.364 226.768,263.628 226.709 C 263.892 226.649,264.489 226.266,264.954 225.859 C 265.419 225.451,267.690 223.749,270.000 222.077 C 272.310 220.404,274.290 218.929,274.400 218.799 C 274.510 218.668,275.230 218.124,276.000 217.589 C 276.770 217.055,277.813 216.208,278.318 215.709 C 278.823 215.209,279.363 214.798,279.518 214.797 C 279.673 214.795,280.463 214.165,281.273 213.397 C 282.084 212.628,282.847 212.000,282.969 212.000 C 283.615 212.000,286.400 209.226,286.400 208.583 C 286.400 208.326,285.095 206.967,283.500 205.562 C 281.905 204.156,280.359 202.778,280.065 202.497 C 277.646 200.192,276.101 199.571,275.129 200.511 M240.800 225.600 C 240.250 226.030,239.590 226.386,239.333 226.391 C 239.077 226.396,238.807 226.567,238.733 226.770 C 238.660 226.974,238.330 227.199,238.000 227.270 C 237.670 227.341,237.130 227.671,236.800 228.002 C 236.470 228.334,235.390 229.022,234.400 229.532 C 231.397 231.080,230.207 231.785,230.067 232.100 C 229.993 232.265,229.678 232.400,229.367 232.400 C 229.055 232.400,228.800 232.558,228.800 232.751 C 228.800 232.945,228.260 233.327,227.600 233.600 C 226.940 233.873,226.400 234.211,226.400 234.351 C 226.400 234.607,223.892 235.829,223.692 235.669 C 223.633 235.622,223.194 235.947,222.717 236.392 C 222.240 236.836,221.613 237.200,221.325 237.200 C 221.036 237.200,220.800 237.380,220.800 237.600 C 220.800 237.820,220.530 238.000,220.200 238.000 C 219.870 238.000,219.600 238.180,219.600 238.400 C 219.600 238.620,219.240 238.800,218.800 238.800 C 218.360 238.800,218.000 238.980,218.000 239.200 C 218.000 239.420,217.730 239.600,217.400 239.600 C 217.070 239.600,216.799 239.735,216.797 239.900 C 216.793 240.259,214.856 241.200,214.120 241.200 C 213.834 241.200,213.600 241.380,213.600 241.600 C 213.600 241.820,213.330 242.000,213.000 242.000 C 212.670 242.000,212.400 242.180,212.400 242.400 C 212.400 242.620,212.145 242.800,211.833 242.800 C 211.522 242.800,211.207 242.975,211.133 243.188 C 211.060 243.402,210.613 243.635,210.139 243.707 C 209.665 243.779,209.035 244.025,208.739 244.254 C 208.443 244.484,206.490 245.529,204.400 246.578 C 198.692 249.442,198.518 249.002,206.998 253.163 C 214.497 256.843,216.485 257.119,218.800 254.800 C 218.910 254.689,219.810 254.181,220.800 253.671 C 224.298 251.867,225.802 250.997,225.933 250.700 C 226.007 250.535,226.322 250.400,226.633 250.400 C 226.945 250.400,227.200 250.220,227.200 250.000 C 227.200 249.780,227.560 249.600,228.000 249.600 C 228.440 249.600,228.800 249.420,228.800 249.200 C 228.800 248.980,229.055 248.800,229.367 248.800 C 229.678 248.800,229.993 248.665,230.067 248.500 C 230.140 248.335,231.010 247.763,232.000 247.230 C 232.990 246.696,233.890 246.147,234.000 246.009 C 234.110 245.871,234.850 245.456,235.645 245.087 C 236.440 244.717,237.317 244.141,237.594 243.807 C 237.871 243.473,238.354 243.200,238.666 243.200 C 240.637 243.200,241.871 240.309,242.166 235.000 C 242.288 232.800,242.504 229.605,242.647 227.900 C 242.933 224.470,242.667 224.140,240.800 225.600 M64.900 246.500 C 64.681 246.775,64.262 247.720,63.969 248.600 C 63.676 249.480,63.293 250.371,63.118 250.580 C 62.943 250.789,62.800 251.374,62.800 251.880 C 62.800 252.386,62.632 252.800,62.427 252.800 C 62.221 252.800,62.069 253.357,62.089 254.038 C 62.108 254.719,61.942 255.394,61.719 255.538 C 61.496 255.682,61.365 256.137,61.428 256.548 C 61.492 256.960,61.352 257.770,61.117 258.348 C 60.616 259.587,60.371 269.216,60.826 269.804 C 60.998 270.026,61.515 271.646,61.974 273.404 C 62.433 275.162,63.347 277.467,64.005 278.527 C 64.662 279.586,65.202 280.576,65.204 280.727 C 65.212 281.208,68.551 284.599,70.000 285.597 C 70.770 286.128,71.490 286.679,71.600 286.822 C 72.418 287.890,80.574 291.228,83.045 291.506 C 84.020 291.616,84.915 291.862,85.033 292.053 C 85.151 292.244,86.036 292.400,87.000 292.400 C 87.964 292.400,88.864 292.580,89.000 292.800 C 89.156 293.052,93.530 293.200,100.800 293.200 C 108.070 293.200,112.444 293.052,112.600 292.800 C 112.736 292.580,114.187 292.400,115.824 292.400 C 117.461 292.400,118.800 292.240,118.800 292.045 C 118.800 291.850,120.105 291.573,121.700 291.429 C 125.982 291.042,126.936 290.916,127.600 290.647 C 127.930 290.513,128.786 290.342,129.502 290.267 C 130.217 290.192,130.922 290.011,131.068 289.865 C 131.214 289.719,131.923 289.600,132.643 289.600 C 133.363 289.600,134.064 289.420,134.200 289.200 C 134.336 288.980,134.988 288.800,135.650 288.800 C 136.311 288.800,137.170 288.630,137.557 288.423 C 137.945 288.216,138.698 287.973,139.231 287.884 C 139.764 287.796,140.470 287.627,140.800 287.509 C 142.360 286.952,144.685 286.347,145.472 286.293 C 145.952 286.261,146.256 286.091,146.149 285.917 C 146.041 285.743,146.493 285.600,147.153 285.600 C 147.813 285.600,148.464 285.420,148.600 285.200 C 148.736 284.980,149.377 284.800,150.024 284.800 C 150.760 284.800,151.200 284.592,151.200 284.246 C 151.200 283.177,161.908 279.361,165.200 279.256 C 166.190 279.224,167.060 279.019,167.133 278.799 C 167.207 278.580,167.601 278.400,168.010 278.400 C 168.418 278.400,168.864 278.220,169.000 278.000 C 169.136 277.780,169.687 277.600,170.224 277.600 C 170.761 277.600,171.200 277.420,171.200 277.200 C 171.200 276.980,171.650 276.800,172.200 276.800 C 172.750 276.800,173.200 276.620,173.200 276.400 C 173.200 276.180,173.650 276.000,174.200 276.000 C 174.750 276.000,175.200 275.820,175.200 275.600 C 175.200 275.380,175.458 275.200,175.774 275.200 C 176.090 275.200,176.855 274.990,177.474 274.734 C 178.093 274.477,178.735 274.229,178.900 274.184 C 179.065 274.138,179.335 274.056,179.500 274.003 C 179.665 273.949,179.935 273.927,180.100 273.953 C 180.265 273.979,180.400 273.856,180.400 273.680 C 180.400 273.505,181.075 273.122,181.900 272.829 C 182.725 272.537,184.517 271.781,185.883 271.149 C 187.249 270.517,188.674 270.000,189.050 270.000 C 189.426 270.000,189.612 269.878,189.463 269.730 C 189.203 269.469,191.674 268.381,192.700 268.304 C 192.975 268.284,193.200 268.117,193.200 267.933 C 193.200 267.750,193.470 267.600,193.800 267.600 C 194.130 267.600,194.400 267.420,194.400 267.200 C 194.400 266.980,194.835 266.800,195.367 266.800 C 195.898 266.800,196.393 266.665,196.467 266.500 C 196.540 266.335,197.500 265.758,198.600 265.217 C 199.700 264.676,200.677 264.180,200.771 264.113 C 201.129 263.859,199.191 262.718,193.138 259.622 C 186.768 256.363,185.261 255.896,183.753 256.713 C 183.287 256.965,182.792 257.058,182.653 256.919 C 182.514 256.780,182.400 256.877,182.400 257.133 C 182.400 257.390,182.130 257.600,181.800 257.600 C 181.470 257.600,181.200 257.780,181.200 258.000 C 181.200 258.220,180.857 258.400,180.438 258.400 C 180.019 258.400,178.984 258.745,178.138 259.167 C 176.326 260.071,175.154 260.541,174.600 260.588 C 174.380 260.606,174.020 260.733,173.800 260.870 C 172.940 261.405,165.697 264.295,163.900 264.820 C 162.855 265.125,162.000 265.601,162.000 265.878 C 162.000 267.126,151.914 270.790,148.684 270.717 C 147.630 270.692,146.559 270.881,146.304 271.136 C 146.049 271.391,145.336 271.600,144.720 271.600 C 144.104 271.600,143.600 271.780,143.600 272.000 C 143.600 272.220,143.060 272.400,142.400 272.400 C 141.740 272.400,141.200 272.542,141.200 272.715 C 141.200 272.888,140.618 273.074,139.907 273.128 C 139.195 273.183,138.439 273.401,138.227 273.613 C 138.014 273.826,137.347 274.000,136.744 274.000 C 136.141 274.000,135.536 274.180,135.400 274.400 C 135.264 274.620,134.443 274.800,133.576 274.800 C 132.709 274.800,132.000 274.980,132.000 275.200 C 132.000 275.420,131.370 275.600,130.600 275.600 C 129.830 275.600,129.200 275.780,129.200 276.000 C 129.200 276.220,128.401 276.400,127.424 276.400 C 126.447 276.400,125.550 276.557,125.431 276.750 C 125.312 276.942,124.176 277.211,122.907 277.346 C 119.188 277.744,118.269 277.880,117.000 278.220 C 116.340 278.397,115.080 278.568,114.200 278.599 C 113.320 278.630,112.150 278.774,111.600 278.918 C 111.050 279.062,108.440 279.250,105.800 279.336 C 103.160 279.421,100.694 279.621,100.319 279.781 C 99.945 279.940,99.437 279.947,99.192 279.795 C 98.946 279.643,96.822 279.432,94.472 279.327 C 90.919 279.167,88.517 278.769,85.400 277.823 C 85.180 277.757,84.415 277.567,83.700 277.401 C 82.985 277.235,82.400 276.943,82.400 276.750 C 82.400 276.558,82.040 276.400,81.600 276.400 C 81.160 276.400,80.800 276.232,80.800 276.027 C 80.800 275.822,80.449 275.543,80.020 275.406 C 78.895 275.049,76.800 272.989,76.800 272.240 C 76.800 271.888,76.620 271.600,76.400 271.600 C 76.180 271.600,76.000 271.319,76.000 270.976 C 76.000 270.633,75.843 270.450,75.651 270.569 C 75.281 270.797,74.712 267.556,74.709 265.200 C 74.706 262.764,75.289 258.800,75.652 258.800 C 76.463 258.800,75.944 257.159,75.021 256.808 C 73.392 256.189,70.888 253.653,69.340 251.055 C 66.505 246.298,65.710 245.482,64.900 246.500 " stroke="none" fill="#fcdc74" fill-rule="evenodd"></path><path id="path3" d="M92.000 106.384 C 92.000 106.629,90.932 106.800,89.400 106.800 C 87.970 106.800,86.800 106.962,86.800 107.160 C 86.800 107.358,86.035 107.619,85.100 107.741 C 81.737 108.180,80.400 108.494,80.400 108.844 C 80.400 109.040,80.040 109.200,79.600 109.200 C 79.160 109.200,78.800 109.380,78.800 109.600 C 78.800 109.820,78.422 110.000,77.960 110.000 C 77.125 110.000,74.381 111.122,74.000 111.619 C 73.890 111.763,73.381 112.101,72.868 112.371 C 70.678 113.525,64.358 119.918,64.165 121.175 C 64.098 121.617,63.454 123.004,63.226 123.200 C 62.958 123.430,61.671 127.012,61.429 128.200 C 61.340 128.640,61.099 129.810,60.895 130.800 C 60.498 132.721,60.523 138.612,60.937 140.600 C 61.074 141.260,61.276 142.340,61.387 143.000 C 61.692 144.828,63.032 149.311,63.793 151.050 C 65.393 154.709,67.763 159.410,68.069 159.533 C 68.251 159.607,68.400 159.935,68.400 160.262 C 68.400 160.589,68.672 161.129,69.004 161.461 C 69.336 161.793,69.488 162.258,69.342 162.494 C 69.196 162.730,69.251 162.815,69.465 162.683 C 69.679 162.551,70.499 163.558,71.286 164.921 C 72.074 166.285,73.186 167.940,73.759 168.600 C 74.331 169.260,74.799 169.943,74.800 170.118 C 74.800 170.293,75.205 170.843,75.700 171.341 C 76.195 171.838,77.050 172.909,77.600 173.720 C 78.150 174.531,78.735 175.196,78.900 175.197 C 79.065 175.199,79.200 175.393,79.200 175.629 C 79.200 175.864,79.425 176.293,79.700 176.581 C 79.975 176.870,81.190 178.231,82.400 179.606 C 87.406 185.298,87.995 185.908,95.434 193.111 C 96.405 194.051,97.200 194.996,97.200 195.211 C 97.200 195.425,97.470 195.600,97.800 195.600 C 98.130 195.600,98.400 195.741,98.400 195.914 C 98.400 196.086,99.383 197.054,100.584 198.064 C 101.785 199.073,102.667 200.000,102.544 200.123 C 102.421 200.245,102.685 200.251,103.130 200.134 C 105.194 199.594,114.769 190.400,113.267 190.400 C 113.083 190.400,112.408 189.865,111.767 189.211 C 111.125 188.557,110.472 188.017,110.315 188.011 C 110.028 188.000,109.515 187.492,103.900 181.657 C 102.195 179.886,100.800 178.525,100.800 178.632 C 100.800 178.740,100.218 178.147,99.507 177.314 C 98.795 176.481,97.805 175.404,97.307 174.919 C 96.808 174.435,96.400 173.928,96.400 173.793 C 96.400 173.658,95.540 172.705,94.489 171.674 C 93.438 170.643,92.142 169.170,91.608 168.400 C 91.075 167.630,90.530 166.910,90.398 166.800 C 90.266 166.690,89.627 165.880,88.979 165.000 C 88.330 164.120,87.581 163.168,87.314 162.885 C 87.047 162.602,86.513 161.837,86.128 161.185 C 85.743 160.533,85.286 160.000,85.114 160.000 C 84.941 160.000,84.800 159.758,84.800 159.462 C 84.800 159.166,84.440 158.598,84.000 158.200 C 83.560 157.802,83.200 157.234,83.200 156.938 C 83.200 156.642,83.054 156.400,82.875 156.400 C 82.696 156.400,82.302 155.770,82.000 155.000 C 81.698 154.230,81.348 153.600,81.223 153.600 C 81.098 153.600,80.741 153.015,80.430 152.300 C 80.119 151.585,79.760 150.910,79.632 150.800 C 79.180 150.410,77.600 147.116,77.600 146.562 C 77.600 146.253,77.420 146.000,77.200 146.000 C 76.980 146.000,76.800 145.550,76.800 145.000 C 76.800 144.450,76.620 144.000,76.400 144.000 C 76.180 144.000,76.000 143.586,76.000 143.080 C 76.000 142.574,75.849 141.989,75.665 141.780 C 74.374 140.315,74.350 129.200,75.637 129.200 C 75.807 129.200,76.063 128.831,76.206 128.380 C 76.494 127.475,79.018 124.800,79.585 124.800 C 79.782 124.800,80.181 124.575,80.471 124.300 C 81.509 123.319,85.087 122.006,88.800 121.245 C 92.073 120.575,102.799 119.933,102.800 120.408 C 102.800 120.522,104.785 120.671,107.212 120.739 C 109.639 120.807,112.203 121.029,112.909 121.231 C 113.616 121.434,114.961 121.600,115.897 121.600 C 116.834 121.600,117.600 121.791,117.600 122.024 C 117.600 122.257,117.735 122.367,117.900 122.270 C 118.065 122.173,119.280 122.252,120.600 122.447 C 123.196 122.830,123.493 122.886,125.600 123.388 C 126.370 123.571,127.360 123.757,127.800 123.800 C 128.240 123.844,128.870 123.987,129.200 124.118 C 130.574 124.664,133.086 125.196,134.300 125.198 C 135.015 125.199,135.600 125.380,135.600 125.600 C 135.600 125.820,136.129 126.000,136.776 126.000 C 137.423 126.000,138.064 126.180,138.200 126.400 C 138.336 126.620,139.067 126.800,139.824 126.800 C 140.581 126.800,141.200 126.980,141.200 127.200 C 141.200 127.420,141.740 127.600,142.400 127.600 C 143.060 127.600,143.600 127.780,143.600 128.000 C 143.600 128.220,144.129 128.400,144.776 128.400 C 145.423 128.400,146.064 128.580,146.200 128.800 C 146.336 129.020,147.140 129.200,147.988 129.200 C 150.148 129.200,159.712 132.380,161.834 133.804 C 163.427 134.872,164.817 135.600,165.265 135.600 C 165.471 135.600,166.384 135.960,167.294 136.400 C 168.205 136.840,169.098 137.200,169.279 137.200 C 169.461 137.200,170.372 137.535,171.304 137.945 C 172.237 138.355,173.810 138.999,174.800 139.376 C 175.790 139.754,177.266 140.408,178.079 140.831 C 178.893 141.254,179.928 141.600,180.379 141.600 C 180.831 141.600,181.200 141.780,181.200 142.000 C 181.200 142.220,181.560 142.400,182.000 142.400 C 182.440 142.400,182.800 142.580,182.800 142.800 C 182.800 143.020,183.160 143.200,183.600 143.200 C 184.040 143.200,184.400 143.361,184.400 143.558 C 184.400 144.302,187.197 143.227,193.088 140.219 C 198.496 137.458,200.458 136.216,199.957 135.873 C 199.871 135.814,198.900 135.347,197.800 134.836 C 195.471 133.753,193.372 132.734,192.100 132.070 C 190.000 130.973,189.582 130.800,189.039 130.800 C 188.724 130.800,188.407 130.659,188.333 130.487 C 188.260 130.314,186.490 129.484,184.400 128.642 C 182.310 127.800,179.790 126.748,178.800 126.305 C 176.879 125.444,175.491 124.871,174.200 124.403 C 173.760 124.244,172.618 123.728,171.662 123.257 C 170.706 122.786,169.581 122.400,169.162 122.400 C 168.743 122.400,168.400 122.220,168.400 122.000 C 168.400 121.780,167.950 121.600,167.400 121.600 C 166.850 121.600,166.400 121.420,166.400 121.200 C 166.400 120.980,165.814 120.800,165.097 120.800 C 163.598 120.800,163.007 120.631,156.906 118.464 C 154.435 117.586,151.936 116.493,151.352 116.034 C 150.769 115.575,150.044 115.200,149.741 115.200 C 149.437 115.200,148.877 115.039,148.495 114.843 C 148.113 114.646,146.810 114.263,145.600 113.991 C 144.390 113.719,143.220 113.364,143.000 113.201 C 142.564 112.878,139.592 112.221,139.088 112.337 C 138.916 112.376,138.241 112.132,137.588 111.794 C 136.935 111.456,136.400 111.270,136.400 111.380 C 136.400 111.490,135.945 111.407,135.390 111.196 C 133.910 110.633,132.441 110.320,130.300 110.110 C 129.255 110.007,128.400 109.760,128.400 109.561 C 128.400 109.363,127.691 109.200,126.824 109.200 C 125.957 109.200,125.136 109.020,125.000 108.800 C 124.864 108.580,123.773 108.400,122.576 108.400 C 121.379 108.400,120.400 108.220,120.400 108.000 C 120.400 107.780,119.446 107.600,118.280 107.600 C 117.114 107.600,115.989 107.433,115.780 107.228 C 114.985 106.450,92.000 105.635,92.000 106.384 M247.780 116.361 C 247.571 116.560,244.738 117.625,241.485 118.728 C 238.232 119.831,235.729 120.833,235.924 120.953 C 236.120 121.074,237.521 120.717,239.040 120.160 C 240.558 119.604,243.150 118.695,244.800 118.141 C 247.467 117.246,249.658 116.000,248.566 116.000 C 248.343 116.000,247.989 116.162,247.780 116.361 M245.000 130.760 C 239.244 132.764,238.533 133.062,238.191 133.615 C 237.981 133.954,238.106 133.973,238.652 133.685 C 239.519 133.227,247.932 130.247,250.000 129.666 C 251.150 129.343,251.221 129.268,250.400 129.250 C 249.850 129.238,247.420 129.917,245.000 130.760 M213.360 143.986 C 210.629 144.957,200.279 150.163,200.118 150.646 C 199.994 151.017,201.784 152.149,204.600 153.483 C 205.260 153.795,206.070 154.214,206.400 154.414 C 206.730 154.614,207.630 155.088,208.400 155.468 C 209.170 155.848,209.890 156.278,210.000 156.425 C 210.110 156.572,210.650 156.830,211.200 156.999 C 211.750 157.167,212.650 157.613,213.200 157.990 C 213.750 158.366,214.785 158.927,215.500 159.235 C 216.215 159.543,216.800 159.931,216.800 160.098 C 216.800 160.264,217.160 160.400,217.600 160.400 C 218.040 160.400,218.400 160.580,218.400 160.800 C 218.400 161.020,218.670 161.200,219.000 161.200 C 219.330 161.200,219.600 161.380,219.600 161.600 C 219.600 161.820,219.870 162.000,220.200 162.000 C 220.530 162.000,220.800 162.180,220.800 162.400 C 220.800 162.620,221.160 162.800,221.600 162.800 C 222.040 162.800,222.400 162.980,222.400 163.200 C 222.400 163.420,222.636 163.600,222.925 163.600 C 223.213 163.600,223.836 163.960,224.308 164.400 C 224.780 164.840,225.444 165.200,225.783 165.200 C 226.122 165.200,226.400 165.359,226.400 165.553 C 226.400 165.748,226.715 166.013,227.100 166.142 C 228.086 166.474,230.332 167.815,231.163 168.567 C 231.548 168.915,231.980 169.200,232.124 169.200 C 232.267 169.200,233.693 170.074,235.292 171.143 C 236.892 172.211,238.875 173.402,239.700 173.788 C 240.525 174.175,241.200 174.651,241.200 174.846 C 241.200 175.041,241.560 175.200,242.000 175.200 C 242.960 175.200,243.071 172.341,242.394 165.000 C 241.959 160.284,241.433 158.400,240.551 158.400 C 240.248 158.400,240.000 158.220,240.000 158.000 C 240.000 157.780,239.629 157.600,239.176 157.600 C 238.723 157.600,238.464 157.420,238.600 157.200 C 238.736 156.980,238.477 156.800,238.024 156.800 C 237.571 156.800,237.200 156.620,237.200 156.400 C 237.200 156.180,236.930 156.000,236.600 156.000 C 236.270 156.000,236.000 155.820,236.000 155.600 C 236.000 155.380,235.730 155.200,235.400 155.200 C 235.070 155.200,234.800 155.020,234.800 154.800 C 234.800 154.580,234.440 154.400,234.000 154.400 C 233.560 154.400,233.200 154.220,233.200 154.000 C 233.200 153.780,232.964 153.600,232.675 153.600 C 232.387 153.600,231.764 153.240,231.292 152.800 C 230.820 152.360,230.178 152.000,229.866 152.000 C 229.553 152.000,229.097 151.758,228.851 151.462 C 228.606 151.166,227.684 150.598,226.802 150.201 C 225.921 149.804,225.200 149.326,225.200 149.139 C 225.200 148.953,224.840 148.800,224.400 148.800 C 223.960 148.800,223.600 148.658,223.600 148.484 C 223.600 148.133,219.565 146.000,218.903 146.000 C 218.673 146.000,218.376 145.715,218.243 145.367 C 218.109 145.018,217.775 144.811,217.500 144.906 C 217.225 145.001,216.622 144.676,216.160 144.184 C 215.328 143.297,215.304 143.295,213.360 143.986 M156.400 160.800 C 155.190 161.659,154.061 162.370,153.891 162.381 C 153.721 162.391,151.833 163.570,149.694 165.000 C 147.556 166.430,145.490 167.600,145.103 167.600 C 144.716 167.600,144.400 167.780,144.400 168.000 C 144.400 168.856,145.746 168.309,149.104 166.087 C 151.027 164.815,153.689 163.114,155.021 162.307 C 157.018 161.095,159.382 159.145,158.762 159.219 C 158.673 159.230,157.610 159.941,156.400 160.800 M255.004 168.394 C 254.685 168.910,255.570 183.125,255.989 184.212 C 256.162 184.658,257.089 185.558,258.051 186.212 C 259.013 186.865,260.430 187.983,261.200 188.696 C 261.970 189.410,262.746 189.995,262.923 189.997 C 263.237 190.000,265.749 191.870,267.362 193.300 C 267.796 193.685,268.315 194.000,268.515 194.000 C 268.715 194.000,269.356 194.502,269.940 195.115 C 270.523 195.729,271.630 196.670,272.400 197.207 C 273.170 197.743,274.213 198.592,274.718 199.091 C 275.223 199.591,275.926 200.000,276.280 200.000 C 276.869 200.000,278.741 201.235,280.065 202.497 C 280.359 202.778,281.916 204.167,283.525 205.584 C 285.609 207.420,286.397 208.369,286.263 208.881 C 286.159 209.277,286.200 209.523,286.354 209.428 C 286.508 209.333,287.503 210.053,288.564 211.028 C 289.626 212.002,290.664 212.800,290.871 212.800 C 291.078 212.800,291.136 212.980,291.000 213.200 C 290.864 213.420,290.949 213.600,291.190 213.600 C 291.785 213.600,294.407 216.260,294.107 216.560 C 293.975 216.692,294.050 216.800,294.274 216.800 C 294.766 216.800,295.992 217.991,300.200 222.557 C 301.960 224.467,304.102 226.786,304.960 227.710 L 306.521 229.391 307.560 228.045 C 310.338 224.447,314.719 221.200,316.796 221.200 C 317.467 221.200,317.253 220.244,316.300 218.987 C 314.155 216.159,298.384 200.811,296.872 200.080 C 294.576 198.971,288.789 193.873,285.506 190.068 C 284.905 189.370,284.222 188.800,283.988 188.800 C 283.755 188.800,283.144 188.395,282.632 187.900 C 281.290 186.603,280.029 185.600,279.742 185.600 C 279.606 185.600,279.203 185.276,278.847 184.881 C 278.491 184.486,277.570 183.729,276.800 183.200 C 276.030 182.671,275.109 181.914,274.753 181.519 C 274.397 181.124,273.980 180.800,273.826 180.800 C 273.538 180.800,270.999 178.977,270.085 178.114 C 269.802 177.847,269.037 177.313,268.385 176.928 C 267.733 176.543,267.200 176.086,267.200 175.914 C 267.200 175.741,266.930 175.600,266.600 175.600 C 266.270 175.600,266.000 175.432,266.000 175.227 C 266.000 175.022,265.662 174.747,265.249 174.616 C 264.836 174.484,263.981 173.933,263.349 173.389 C 262.717 172.846,261.975 172.401,261.700 172.400 C 261.425 172.400,261.200 172.259,261.200 172.086 C 261.200 171.914,260.667 171.457,260.015 171.072 C 259.363 170.687,258.594 170.153,258.307 169.886 C 257.222 168.875,255.255 167.987,255.004 168.394 M150.672 179.151 C 145.371 182.684,142.847 184.800,143.935 184.800 C 144.143 184.800,144.404 184.565,144.515 184.278 C 144.683 183.840,150.144 179.923,153.933 177.525 C 154.520 177.153,155.180 176.701,155.400 176.519 C 155.620 176.338,156.250 175.979,156.800 175.722 C 157.357 175.461,157.534 175.242,157.200 175.228 C 156.870 175.213,153.933 176.979,150.672 179.151 M121.800 201.056 C 112.523 209.023,113.340 208.167,113.941 209.290 C 114.228 209.826,114.956 210.556,115.559 210.912 C 116.162 211.269,117.353 212.199,118.206 212.980 C 119.059 213.761,119.925 214.400,120.131 214.400 C 120.337 214.400,120.797 214.724,121.153 215.119 C 121.509 215.514,122.430 216.271,123.200 216.800 C 123.970 217.329,124.690 217.869,124.800 218.000 C 124.910 218.131,125.630 218.675,126.400 219.208 C 128.109 220.393,128.635 220.799,129.629 221.700 C 130.053 222.085,130.580 222.400,130.800 222.400 C 131.020 222.400,131.200 222.539,131.200 222.709 C 131.200 222.879,131.830 223.357,132.600 223.772 C 133.370 224.187,134.000 224.656,134.000 224.814 C 134.000 224.973,134.540 225.327,135.200 225.600 C 135.860 225.873,136.400 226.243,136.400 226.422 C 136.400 226.600,136.738 226.853,137.151 226.984 C 137.564 227.116,138.419 227.667,139.051 228.211 C 139.683 228.754,140.385 229.199,140.612 229.200 C 140.838 229.200,141.283 229.560,141.600 230.000 C 141.917 230.440,142.497 230.800,142.888 230.800 C 143.280 230.800,143.600 230.966,143.600 231.168 C 143.600 231.371,144.131 231.653,144.780 231.796 C 146.351 232.141,156.546 238.698,158.724 240.765 C 159.672 241.664,160.707 242.400,161.024 242.400 C 161.341 242.400,161.600 242.536,161.600 242.702 C 161.600 242.869,162.185 243.264,162.900 243.580 C 163.615 243.897,164.549 244.480,164.975 244.878 C 165.402 245.275,165.987 245.600,166.275 245.600 C 166.564 245.600,166.800 245.780,166.800 246.000 C 166.800 246.220,167.160 246.400,167.600 246.400 C 168.040 246.400,168.400 246.580,168.400 246.800 C 168.400 247.020,168.670 247.200,169.000 247.200 C 169.330 247.200,169.600 247.380,169.600 247.600 C 169.600 247.820,169.870 248.000,170.200 248.000 C 170.530 248.000,170.800 248.180,170.800 248.400 C 170.800 248.620,171.160 248.800,171.600 248.800 C 172.040 248.800,172.403 248.935,172.406 249.100 C 172.410 249.265,173.310 249.840,174.406 250.379 C 175.503 250.917,176.400 251.502,176.400 251.679 C 176.400 251.855,176.738 252.000,177.151 252.000 C 177.564 252.000,178.120 252.263,178.387 252.585 C 178.654 252.906,179.247 253.288,179.704 253.433 C 180.162 253.578,181.451 254.265,182.568 254.960 C 183.686 255.654,185.140 256.281,185.800 256.352 C 187.366 256.522,198.991 262.447,200.800 263.998 C 201.570 264.658,202.515 265.199,202.900 265.199 C 203.285 265.200,203.600 265.336,203.600 265.502 C 203.600 265.669,204.140 266.029,204.800 266.302 C 205.460 266.576,206.540 267.024,207.200 267.298 C 207.860 267.571,208.400 267.931,208.400 268.098 C 208.400 268.264,208.653 268.400,208.962 268.400 C 209.271 268.400,210.216 268.739,211.062 269.153 C 211.908 269.567,213.410 270.268,214.400 270.711 C 215.390 271.154,216.920 271.841,217.800 272.238 C 218.680 272.635,219.602 272.994,219.849 273.037 C 220.328 273.119,222.941 274.225,224.095 274.834 C 224.477 275.035,225.152 275.200,225.595 275.200 C 226.038 275.200,226.400 275.380,226.400 275.600 C 226.400 275.820,226.760 276.000,227.200 276.000 C 227.640 276.000,228.000 276.180,228.000 276.400 C 228.000 276.620,228.439 276.800,228.976 276.800 C 229.513 276.800,230.064 276.980,230.200 277.200 C 230.336 277.420,230.797 277.600,231.224 277.600 C 231.651 277.600,232.000 277.780,232.000 278.000 C 232.000 278.220,232.540 278.400,233.200 278.400 C 233.860 278.400,234.400 278.580,234.400 278.800 C 234.400 279.372,235.424 279.294,235.930 278.684 C 236.166 278.400,236.637 276.735,236.977 274.984 C 237.317 273.233,237.790 270.852,238.028 269.693 C 238.555 267.125,238.216 265.200,237.237 265.200 C 236.636 265.200,234.850 264.545,230.400 262.692 C 229.850 262.463,229.220 262.251,229.000 262.222 C 228.780 262.192,227.543 261.681,226.250 261.084 C 224.958 260.488,223.748 260.000,223.562 260.000 C 223.376 260.000,222.583 259.640,221.800 259.200 C 221.017 258.760,220.021 258.400,219.588 258.400 C 219.155 258.400,218.800 258.220,218.800 258.000 C 218.800 257.780,218.545 257.600,218.233 257.600 C 217.922 257.600,217.606 257.417,217.531 257.193 C 217.456 256.969,216.493 256.679,215.391 256.548 C 213.214 256.290,200.141 250.083,200.270 249.369 C 200.334 249.016,196.248 246.785,192.200 244.962 C 191.320 244.566,190.510 244.138,190.400 244.011 C 190.290 243.884,189.345 243.335,188.300 242.791 C 187.255 242.247,186.400 241.655,186.400 241.477 C 186.400 241.299,186.235 241.255,186.032 241.380 C 185.830 241.505,185.393 241.336,185.061 241.004 C 184.729 240.672,184.174 240.400,183.829 240.400 C 183.483 240.400,183.200 240.220,183.200 240.000 C 183.200 239.780,182.922 239.600,182.583 239.600 C 182.244 239.600,181.580 239.240,181.108 238.800 C 180.636 238.360,180.013 238.000,179.725 238.000 C 179.436 238.000,179.200 237.820,179.200 237.600 C 179.200 237.380,178.840 237.200,178.400 237.200 C 177.960 237.200,177.600 237.055,177.600 236.879 C 177.600 236.702,176.703 236.117,175.606 235.579 C 174.510 235.040,173.610 234.465,173.606 234.300 C 173.603 234.135,173.345 234.000,173.033 234.000 C 172.722 234.000,172.407 233.863,172.333 233.696 C 172.148 233.274,164.561 228.800,164.031 228.800 C 163.794 228.800,163.600 228.650,163.600 228.468 C 163.600 228.285,163.105 227.880,162.500 227.568 C 161.895 227.255,161.051 226.685,160.625 226.300 C 160.198 225.915,159.613 225.600,159.325 225.600 C 159.036 225.600,158.800 225.420,158.800 225.200 C 158.800 224.980,158.350 224.800,157.799 224.800 C 156.501 224.800,146.025 217.693,143.536 215.124 C 142.511 214.066,141.510 213.200,141.312 213.200 C 141.113 213.200,140.602 212.880,140.175 212.489 C 139.749 212.098,138.770 211.342,138.000 210.808 C 137.230 210.275,136.510 209.731,136.400 209.600 C 136.290 209.469,135.570 208.929,134.800 208.400 C 134.030 207.871,133.310 207.331,133.200 207.200 C 133.090 207.069,132.370 206.529,131.600 206.000 C 130.830 205.471,129.930 204.751,129.600 204.400 C 129.270 204.049,128.370 203.326,127.600 202.792 C 126.830 202.259,125.752 201.413,125.204 200.911 C 123.936 199.751,123.288 199.778,121.800 201.056 M255.810 215.580 C 255.456 216.266,255.197 217.816,255.193 219.280 C 255.190 220.666,255.021 223.804,254.819 226.253 C 254.413 231.150,254.564 232.416,255.547 232.368 C 255.908 232.351,255.991 232.252,255.732 232.146 C 255.037 231.862,255.513 216.987,256.264 215.500 C 256.570 214.895,256.731 214.400,256.621 214.400 C 256.511 214.400,256.146 214.931,255.810 215.580 M242.657 228.200 C 242.468 230.180,242.178 233.600,242.011 235.800 C 241.845 238.000,241.583 240.250,241.429 240.800 L 241.150 241.800 241.761 240.800 C 242.097 240.250,242.378 238.915,242.386 237.833 C 242.394 236.751,242.589 234.771,242.821 233.433 C 243.053 232.095,243.188 229.560,243.121 227.800 L 243.000 224.600 242.657 228.200 M90.000 225.725 C 90.000 225.794,90.585 226.379,91.300 227.025 L 92.600 228.200 91.425 226.900 C 90.330 225.688,90.000 225.416,90.000 225.725 M68.925 250.400 C 71.621 254.843,75.052 257.807,76.184 256.672 C 77.414 255.440,76.938 253.200,75.446 253.200 C 74.211 253.200,70.439 250.945,68.852 249.258 L 67.105 247.400 68.925 250.400 M332.734 250.020 C 330.863 251.928,329.163 252.674,325.079 253.381 C 323.400 253.672,322.828 254.512,323.537 255.648 C 323.792 256.055,324.000 256.842,324.000 257.395 C 324.000 257.948,324.180 258.400,324.400 258.400 C 324.620 258.400,324.800 259.030,324.800 259.800 C 324.800 260.570,324.980 261.200,325.200 261.200 C 325.437 261.200,325.600 262.667,325.600 264.800 C 325.600 266.933,325.437 268.400,325.200 268.400 C 324.980 268.400,324.800 268.750,324.800 269.177 C 324.800 272.779,319.998 276.429,312.400 278.605 C 308.282 279.784,295.243 279.948,287.800 278.915 C 286.700 278.763,285.260 278.625,284.600 278.610 C 283.940 278.594,283.153 278.427,282.851 278.237 C 282.549 278.047,281.649 277.832,280.851 277.759 C 276.711 277.378,274.764 277.065,274.569 276.750 C 274.450 276.557,273.654 276.400,272.800 276.400 C 271.946 276.400,271.136 276.220,271.000 276.000 C 270.864 275.780,270.133 275.600,269.376 275.600 C 268.619 275.600,268.000 275.420,268.000 275.200 C 268.000 274.980,267.291 274.800,266.424 274.800 C 265.557 274.800,264.736 274.620,264.600 274.400 C 264.464 274.180,263.834 274.000,263.200 274.000 C 262.566 274.000,261.936 273.820,261.800 273.600 C 261.664 273.380,260.933 273.200,260.176 273.200 C 259.419 273.200,258.800 273.020,258.800 272.800 C 258.800 272.580,258.271 272.400,257.624 272.400 C 256.977 272.400,256.336 272.220,256.200 272.000 C 256.064 271.780,255.549 271.600,255.056 271.600 C 254.563 271.600,253.989 271.443,253.780 271.252 C 251.997 269.617,250.245 270.751,249.845 273.800 C 249.701 274.900,249.402 276.700,249.181 277.800 C 248.064 283.361,248.416 284.800,250.894 284.800 C 251.288 284.800,251.923 284.958,252.305 285.151 C 253.472 285.740,255.808 286.400,256.728 286.400 C 257.208 286.400,257.600 286.580,257.600 286.800 C 257.600 287.020,258.104 287.200,258.720 287.200 C 259.336 287.200,260.011 287.352,260.220 287.537 C 260.429 287.722,261.680 288.102,263.000 288.381 C 264.320 288.661,265.580 289.024,265.800 289.190 C 266.020 289.356,267.190 289.604,268.400 289.743 C 271.106 290.053,272.286 290.282,272.792 290.595 C 273.203 290.849,274.515 291.070,277.800 291.439 C 278.900 291.562,280.160 291.821,280.600 292.014 C 281.040 292.206,282.480 292.464,283.800 292.587 C 285.120 292.709,288.000 293.008,290.200 293.250 C 297.236 294.026,312.800 293.681,312.800 292.750 C 312.800 292.557,313.599 292.400,314.576 292.400 C 315.553 292.400,316.464 292.220,316.600 292.000 C 316.736 291.780,317.292 291.600,317.836 291.600 C 318.381 291.600,319.495 291.301,320.313 290.936 C 321.131 290.571,321.890 290.247,322.000 290.216 C 326.015 289.096,333.829 282.802,335.304 279.500 C 335.574 278.895,335.931 278.400,336.098 278.400 C 336.264 278.400,336.400 278.040,336.400 277.600 C 336.400 277.160,336.557 276.800,336.748 276.800 C 336.939 276.800,337.327 275.945,337.610 274.900 C 337.893 273.855,338.254 272.820,338.412 272.600 C 339.636 270.898,339.624 257.477,338.397 255.800 C 338.236 255.580,337.873 254.410,337.591 253.200 C 337.308 251.990,336.896 250.640,336.676 250.200 C 336.456 249.760,336.149 249.130,335.995 248.800 C 335.503 247.748,334.649 248.067,332.734 250.020 M161.106 266.429 C 159.520 267.352,149.873 270.460,149.166 270.275 C 148.744 270.165,148.500 270.238,148.623 270.437 C 149.158 271.302,160.123 268.048,161.579 266.592 C 162.263 265.909,162.097 265.851,161.106 266.429 M158.023 281.055 C 155.065 282.049,152.275 283.141,151.823 283.481 C 151.027 284.078,151.026 284.089,151.800 283.808 C 157.961 281.572,164.115 279.669,164.595 279.853 C 164.928 279.981,165.200 279.926,165.200 279.730 C 165.200 278.951,163.156 279.329,158.023 281.055 " stroke="none" fill="#fccc44" fill-rule="evenodd"></path><path id="path4" d="M192.800 43.850 C 191.598 44.070,191.001 44.314,187.500 46.011 C 186.015 46.731,184.800 47.473,184.800 47.660 C 184.800 47.847,184.512 48.000,184.160 48.000 C 183.809 48.000,183.017 48.540,182.400 49.200 C 181.783 49.860,181.126 50.401,180.940 50.401 C 180.451 50.403,175.600 55.490,175.600 56.000 C 175.600 56.235,174.994 57.075,174.253 57.867 C 172.217 60.044,171.600 60.778,171.600 61.022 C 171.600 61.144,170.880 62.304,170.000 63.600 C 169.120 64.896,168.400 66.146,168.400 66.378 C 168.400 66.610,168.220 66.800,168.000 66.800 C 167.780 66.800,167.600 67.160,167.600 67.600 C 167.600 68.040,167.420 68.400,167.200 68.400 C 166.980 68.400,166.800 68.745,166.800 69.167 C 166.800 69.588,166.665 69.993,166.500 70.067 C 166.068 70.259,164.400 73.572,164.400 74.238 C 164.400 74.547,164.220 74.800,164.000 74.800 C 163.780 74.800,163.600 75.124,163.600 75.520 C 163.600 75.916,163.447 76.411,163.259 76.620 C 162.624 77.328,160.000 84.399,160.000 85.403 C 160.000 85.951,159.853 86.400,159.672 86.400 C 159.492 86.400,159.096 87.311,158.793 88.425 C 158.490 89.539,158.097 90.540,157.921 90.649 C 157.744 90.758,157.600 91.467,157.600 92.224 C 157.600 92.981,157.420 93.600,157.200 93.600 C 156.980 93.600,156.800 94.039,156.800 94.576 C 156.800 95.113,156.620 95.664,156.400 95.800 C 156.180 95.936,156.000 96.476,156.000 97.000 C 156.000 97.524,155.820 98.064,155.600 98.200 C 155.380 98.336,155.200 99.056,155.200 99.800 C 155.200 100.544,155.020 101.264,154.800 101.400 C 154.580 101.536,154.400 102.267,154.400 103.024 C 154.400 103.781,154.220 104.400,154.000 104.400 C 153.780 104.400,153.600 105.120,153.600 106.000 C 153.600 106.880,153.420 107.600,153.200 107.600 C 152.980 107.600,152.800 108.320,152.800 109.200 C 152.800 110.080,152.620 110.800,152.400 110.800 C 152.180 110.800,152.000 111.608,152.000 112.597 C 152.000 113.930,151.804 114.516,151.238 114.869 C 150.059 115.606,151.586 116.575,156.906 118.464 C 165.295 121.444,165.019 121.430,165.147 118.900 C 165.200 117.855,165.413 116.940,165.621 116.867 C 165.830 116.793,166.000 116.039,166.000 115.190 C 166.000 114.342,166.180 113.536,166.400 113.400 C 166.620 113.264,166.800 112.544,166.800 111.800 C 166.800 111.056,166.980 110.336,167.200 110.200 C 167.420 110.064,167.600 109.434,167.600 108.800 C 167.600 108.166,167.760 107.548,167.956 107.427 C 168.151 107.306,168.413 106.621,168.537 105.904 C 169.057 102.890,169.310 102.000,169.645 102.000 C 169.840 102.000,170.000 101.548,170.000 100.995 C 170.000 100.442,170.162 99.677,170.361 99.295 C 170.560 98.913,170.951 97.790,171.231 96.800 C 171.510 95.810,171.888 94.829,172.070 94.620 C 172.251 94.411,172.400 93.837,172.400 93.344 C 172.400 92.851,172.580 92.336,172.800 92.200 C 173.020 92.064,173.200 91.513,173.200 90.976 C 173.200 90.439,173.380 90.000,173.600 90.000 C 173.820 90.000,174.000 89.661,174.000 89.246 C 174.000 88.831,174.269 87.976,174.598 87.346 C 174.926 86.716,175.196 85.885,175.198 85.500 C 175.199 85.115,175.380 84.800,175.600 84.800 C 175.820 84.800,176.000 84.260,176.000 83.600 C 176.000 82.940,176.180 82.400,176.400 82.400 C 176.620 82.400,176.800 82.040,176.800 81.600 C 176.800 81.160,176.980 80.800,177.200 80.800 C 177.420 80.800,177.600 80.440,177.600 80.000 C 177.600 79.560,177.780 79.200,178.000 79.200 C 178.220 79.200,178.400 78.840,178.400 78.400 C 178.400 77.960,178.580 77.600,178.800 77.600 C 179.020 77.600,179.200 77.240,179.200 76.800 C 179.200 76.360,179.380 76.000,179.600 76.000 C 179.820 76.000,180.000 75.807,180.000 75.572 C 180.000 75.337,180.540 74.359,181.200 73.400 C 181.860 72.441,182.400 71.463,182.400 71.228 C 182.400 70.993,182.550 70.800,182.732 70.800 C 182.915 70.800,183.320 70.308,183.632 69.706 C 184.196 68.620,184.939 67.597,185.900 66.584 C 186.175 66.294,186.400 65.961,186.400 65.843 C 186.400 65.442,191.425 60.400,191.825 60.400 C 192.044 60.400,192.483 60.040,192.800 59.600 C 193.117 59.160,193.652 58.799,193.988 58.798 C 194.325 58.796,195.140 58.501,195.800 58.141 C 196.608 57.701,197.980 57.488,200.000 57.488 C 202.020 57.488,203.392 57.701,204.200 58.141 C 204.860 58.501,205.675 58.796,206.012 58.798 C 206.348 58.799,206.883 59.160,207.200 59.600 C 207.517 60.040,208.057 60.400,208.400 60.400 C 208.743 60.400,209.288 60.776,209.612 61.236 C 209.935 61.696,211.145 63.062,212.300 64.272 C 213.455 65.482,214.400 66.660,214.400 66.889 C 214.400 67.118,214.716 67.597,215.103 67.953 C 215.489 68.309,216.060 69.095,216.370 69.700 C 216.681 70.305,217.085 70.800,217.268 70.800 C 217.450 70.800,217.600 71.048,217.600 71.351 C 217.600 72.631,218.871 73.050,219.551 71.995 C 221.532 68.925,226.785 64.768,228.651 64.794 C 229.601 64.807,230.009 63.779,229.494 62.670 C 229.222 62.085,228.865 61.605,228.700 61.603 C 228.535 61.601,228.400 61.370,228.400 61.088 C 228.400 60.807,228.040 60.317,227.600 60.000 C 227.160 59.683,226.800 59.275,226.800 59.094 C 226.800 58.912,226.350 58.314,225.800 57.764 C 225.250 57.214,224.800 56.571,224.800 56.337 C 224.800 55.410,216.729 48.022,215.700 48.007 C 215.425 48.003,215.200 47.863,215.200 47.696 C 215.200 47.528,213.985 46.788,212.500 46.051 C 211.015 45.313,209.440 44.511,209.000 44.269 C 208.201 43.830,194.803 43.483,192.800 43.850 M242.268 96.168 C 242.140 96.501,242.207 96.881,242.417 97.011 C 242.628 97.141,242.800 97.597,242.800 98.024 C 242.800 98.889,237.116 99.234,236.600 98.400 C 236.464 98.180,235.958 97.994,235.476 97.987 C 234.994 97.980,233.610 97.626,232.400 97.200 C 229.087 96.034,228.805 96.097,229.275 97.900 C 229.490 98.725,229.762 99.897,229.879 100.505 C 229.996 101.113,230.251 101.708,230.446 101.829 C 230.641 101.949,230.800 102.566,230.800 103.200 C 230.800 103.834,230.980 104.464,231.200 104.600 C 231.420 104.736,231.600 105.377,231.600 106.024 C 231.600 106.671,231.780 107.200,232.000 107.200 C 232.220 107.200,232.400 107.819,232.400 108.576 C 232.400 109.333,232.580 110.064,232.800 110.200 C 233.020 110.336,233.200 111.056,233.200 111.800 C 233.200 112.544,233.380 113.264,233.600 113.400 C 233.820 113.536,234.000 114.342,234.000 115.190 C 234.000 116.039,234.170 116.793,234.379 116.867 C 234.587 116.940,234.800 117.855,234.853 118.900 C 234.906 119.945,235.042 120.800,235.155 120.800 C 235.805 120.800,247.506 116.618,248.287 116.106 C 249.138 115.548,249.169 115.428,248.613 114.814 C 248.276 114.442,248.000 113.487,248.000 112.692 C 248.000 111.897,247.820 111.136,247.600 111.000 C 247.380 110.864,247.200 110.043,247.200 109.176 C 247.200 108.309,247.020 107.600,246.800 107.600 C 246.580 107.600,246.400 106.880,246.400 106.000 C 246.400 105.120,246.220 104.400,246.000 104.400 C 245.780 104.400,245.600 103.680,245.600 102.800 C 245.600 101.920,245.420 101.200,245.200 101.200 C 244.980 101.200,244.800 100.570,244.800 99.800 C 244.800 99.030,244.631 98.400,244.425 98.400 C 244.219 98.400,243.994 97.816,243.925 97.103 C 243.791 95.717,242.681 95.090,242.268 96.168 M137.600 111.800 C 138.915 112.552,139.564 112.560,138.576 111.813 C 138.149 111.490,137.530 111.226,137.200 111.227 C 136.852 111.228,137.020 111.468,137.600 111.800 M66.554 117.340 C 66.309 117.621,65.882 118.289,65.605 118.825 C 65.328 119.361,65.262 119.620,65.457 119.400 C 67.318 117.303,67.689 116.802,67.370 116.815 C 67.166 116.824,66.799 117.060,66.554 117.340 M98.400 120.333 C 98.400 120.517,98.932 120.667,99.582 120.667 C 100.233 120.667,100.672 120.517,100.559 120.333 C 100.445 120.150,99.913 120.000,99.376 120.000 C 98.839 120.000,98.400 120.150,98.400 120.333 M111.390 121.184 C 111.532 121.413,112.117 121.600,112.690 121.600 C 113.944 121.600,113.799 121.408,112.266 121.040 C 111.523 120.862,111.221 120.911,111.390 121.184 M81.600 123.433 C 80.248 124.184,81.211 124.155,82.654 123.402 C 83.284 123.074,83.530 122.821,83.200 122.842 C 82.870 122.862,82.150 123.128,81.600 123.433 M128.749 124.100 C 129.051 124.485,129.681 124.779,130.149 124.754 C 130.957 124.710,130.960 124.697,130.200 124.511 C 129.760 124.402,129.130 124.108,128.800 123.857 C 128.278 123.460,128.272 123.491,128.749 124.100 M148.507 130.300 C 148.202 133.917,147.919 135.895,147.604 136.600 C 147.408 137.040,147.138 138.660,147.006 140.200 C 146.873 141.740,146.592 144.440,146.381 146.200 C 146.170 147.960,145.899 150.840,145.778 152.600 C 145.656 154.360,145.410 156.256,145.230 156.812 C 145.050 157.369,144.869 159.786,144.828 162.182 C 144.787 164.579,144.569 166.884,144.344 167.304 C 144.119 167.725,144.040 168.173,144.168 168.301 C 144.295 168.429,144.400 168.323,144.400 168.067 C 144.400 167.810,144.716 167.600,145.103 167.600 C 145.490 167.600,147.556 166.430,149.694 165.000 C 151.833 163.570,153.686 162.400,153.813 162.400 C 155.550 162.400,158.800 159.017,158.800 157.209 C 158.800 156.130,158.980 155.136,159.200 155.000 C 159.420 154.864,159.600 153.233,159.600 151.376 C 159.600 149.392,159.765 148.000,160.000 148.000 C 160.229 148.000,160.400 146.800,160.400 145.200 C 160.400 143.600,160.571 142.400,160.800 142.400 C 161.025 142.400,161.200 141.275,161.200 139.824 C 161.200 138.407,161.380 137.136,161.600 137.000 C 161.820 136.864,162.000 136.328,162.000 135.810 C 162.000 135.291,162.221 134.793,162.492 134.703 C 163.680 134.307,160.490 132.842,153.064 130.375 C 148.733 128.936,148.622 128.934,148.507 130.300 M245.218 131.225 C 237.796 133.797,236.461 134.929,238.434 136.980 C 238.635 137.189,238.800 138.494,238.800 139.880 C 238.800 141.293,238.976 142.400,239.200 142.400 C 239.428 142.400,239.600 143.592,239.600 145.176 C 239.600 146.703,239.780 148.064,240.000 148.200 C 240.220 148.336,240.400 149.841,240.400 151.544 C 240.400 153.247,240.563 154.811,240.763 155.020 C 240.963 155.229,241.219 156.300,241.331 157.400 C 241.444 158.500,241.719 160.300,241.942 161.400 C 242.653 164.909,243.004 175.200,242.413 175.200 C 242.025 175.200,242.012 175.332,242.358 175.749 C 242.835 176.324,243.054 223.666,242.583 224.428 C 242.456 224.633,242.568 224.800,242.831 224.800 C 243.632 224.800,242.605 239.441,241.690 241.074 C 241.420 241.554,241.200 242.679,241.200 243.574 C 241.200 244.468,241.020 245.200,240.800 245.200 C 240.567 245.200,240.400 246.525,240.400 248.376 C 240.400 250.123,240.220 251.664,240.000 251.800 C 239.780 251.936,239.600 253.297,239.600 254.824 C 239.600 256.408,239.428 257.600,239.200 257.600 C 238.974 257.600,238.800 258.733,238.800 260.200 C 238.800 261.886,238.639 262.800,238.342 262.800 C 238.019 262.800,237.958 263.585,238.133 265.460 C 238.269 266.923,238.216 268.858,238.013 269.760 C 237.811 270.662,237.365 272.887,237.023 274.704 C 236.427 277.875,235.750 279.600,235.104 279.600 C 234.937 279.600,234.800 280.399,234.800 281.376 C 234.800 282.353,234.620 283.264,234.400 283.400 C 234.180 283.536,234.000 284.267,234.000 285.024 C 234.000 285.781,233.820 286.400,233.600 286.400 C 233.380 286.400,233.200 287.109,233.200 287.976 C 233.200 288.843,233.020 289.664,232.800 289.800 C 232.580 289.936,232.400 290.667,232.400 291.424 C 232.400 292.181,232.220 292.800,232.000 292.800 C 231.780 292.800,231.600 293.329,231.600 293.976 C 231.600 294.623,231.420 295.264,231.200 295.400 C 230.980 295.536,230.800 296.089,230.800 296.629 C 230.800 297.169,230.638 297.923,230.439 298.305 C 230.240 298.687,229.861 299.810,229.595 300.800 C 229.329 301.790,228.769 303.486,228.350 304.568 C 227.931 305.651,227.477 307.230,227.341 308.077 C 227.206 308.924,226.939 309.714,226.747 309.832 C 226.556 309.951,226.400 310.397,226.400 310.824 C 226.400 311.251,226.220 311.600,226.000 311.600 C 225.780 311.600,225.600 312.050,225.600 312.600 C 225.600 313.150,225.420 313.600,225.200 313.600 C 224.980 313.600,224.800 313.960,224.800 314.400 C 224.800 314.840,224.620 315.200,224.400 315.200 C 224.180 315.200,224.000 315.650,224.000 316.200 C 224.000 316.750,223.820 317.200,223.600 317.200 C 223.380 317.200,223.200 317.650,223.200 318.200 C 223.200 318.750,223.020 319.200,222.800 319.200 C 222.580 319.200,222.400 319.560,222.400 320.000 C 222.400 320.440,222.220 320.800,222.000 320.800 C 221.780 320.800,221.600 321.160,221.600 321.600 C 221.600 322.040,221.420 322.400,221.200 322.400 C 220.980 322.400,220.800 322.760,220.800 323.200 C 220.800 323.640,220.620 324.000,220.400 324.000 C 220.180 324.000,220.000 324.294,220.000 324.653 C 220.000 325.012,219.671 325.597,219.270 325.953 C 218.868 326.309,218.284 327.185,217.972 327.900 C 217.660 328.615,217.269 329.200,217.102 329.200 C 216.936 329.200,216.800 329.470,216.800 329.800 C 216.800 330.130,216.620 330.400,216.400 330.400 C 216.180 330.400,216.000 330.630,216.000 330.912 C 216.000 331.193,215.640 331.683,215.200 332.000 C 214.760 332.317,214.400 332.783,214.400 333.035 C 214.400 333.286,213.455 334.486,212.300 335.700 C 211.145 336.914,209.935 338.288,209.612 338.753 C 209.288 339.219,208.769 339.600,208.459 339.600 C 208.148 339.600,207.601 339.915,207.243 340.300 C 206.404 341.201,204.977 342.000,204.205 342.000 C 203.872 342.000,203.600 342.180,203.600 342.400 C 203.600 342.637,202.133 342.800,200.000 342.800 C 197.867 342.800,196.400 342.637,196.400 342.400 C 196.400 342.180,196.040 342.000,195.600 342.000 C 195.160 342.000,194.800 341.820,194.800 341.600 C 194.800 341.380,194.480 341.200,194.088 341.200 C 193.697 341.200,193.117 340.840,192.800 340.400 C 192.483 339.960,192.050 339.600,191.837 339.600 C 191.368 339.600,186.400 334.536,186.400 334.058 C 186.400 333.871,185.905 333.194,185.300 332.552 C 184.695 331.911,183.945 330.894,183.632 330.293 C 183.320 329.692,182.915 329.200,182.732 329.200 C 182.550 329.200,182.400 329.029,182.400 328.820 C 182.400 328.611,181.860 327.640,181.200 326.662 C 180.540 325.684,180.000 324.685,180.000 324.442 C 180.000 324.199,179.820 324.000,179.600 324.000 C 179.380 324.000,179.200 323.640,179.200 323.200 C 179.200 322.760,179.020 322.400,178.800 322.400 C 178.580 322.400,178.400 322.040,178.400 321.600 C 178.400 321.160,178.220 320.800,178.000 320.800 C 177.780 320.800,177.600 320.440,177.600 320.000 C 177.600 319.560,177.420 319.200,177.200 319.200 C 176.980 319.200,176.800 318.840,176.800 318.400 C 176.800 317.960,176.620 317.600,176.400 317.600 C 176.180 317.600,176.000 317.060,176.000 316.400 C 176.000 315.740,175.820 315.200,175.600 315.200 C 175.380 315.200,175.199 314.885,175.198 314.500 C 175.196 314.115,174.926 313.284,174.598 312.654 C 174.269 312.024,174.000 311.169,174.000 310.754 C 174.000 310.339,173.820 310.000,173.600 310.000 C 173.380 310.000,173.200 309.561,173.200 309.024 C 173.200 308.487,173.020 307.936,172.800 307.800 C 172.580 307.664,172.400 307.124,172.400 306.600 C 172.400 306.076,172.220 305.536,172.000 305.400 C 171.780 305.264,171.600 304.713,171.600 304.176 C 171.600 303.639,171.420 303.200,171.200 303.200 C 170.980 303.200,170.800 302.671,170.800 302.024 C 170.800 301.377,170.620 300.736,170.400 300.600 C 170.180 300.464,170.000 300.001,170.000 299.571 C 170.000 299.141,169.842 298.477,169.649 298.095 C 169.060 296.928,168.400 294.592,168.400 293.672 C 168.400 293.192,168.220 292.800,168.000 292.800 C 167.780 292.800,167.600 292.181,167.600 291.424 C 167.600 290.667,167.420 289.936,167.200 289.800 C 166.980 289.664,166.800 288.843,166.800 287.976 C 166.800 287.109,166.620 286.400,166.400 286.400 C 166.180 286.400,166.000 285.781,166.000 285.024 C 166.000 284.267,165.820 283.536,165.600 283.400 C 165.380 283.264,165.200 282.463,165.200 281.619 C 165.200 280.619,164.989 280.005,164.595 279.853 C 164.117 279.670,155.406 282.380,151.900 283.802 C 151.163 284.100,150.913 285.600,151.600 285.600 C 151.820 285.600,152.000 286.399,152.000 287.376 C 152.000 288.353,152.180 289.264,152.400 289.400 C 152.620 289.536,152.800 290.267,152.800 291.024 C 152.800 291.781,152.980 292.400,153.200 292.400 C 153.420 292.400,153.600 293.120,153.600 294.000 C 153.600 294.880,153.780 295.600,154.000 295.600 C 154.220 295.600,154.400 296.320,154.400 297.200 C 154.400 298.080,154.560 298.800,154.756 298.800 C 155.093 298.800,155.210 299.249,155.832 302.900 C 155.973 303.725,156.248 304.400,156.444 304.400 C 156.640 304.400,156.803 304.715,156.806 305.100 C 156.813 305.918,157.727 308.661,158.126 309.059 C 158.277 309.210,158.400 309.756,158.400 310.272 C 158.400 310.788,158.580 311.568,158.800 312.005 C 159.020 312.442,159.380 313.158,159.600 313.595 C 159.820 314.032,160.000 314.660,160.000 314.990 C 160.000 315.498,161.157 318.776,162.403 321.800 C 162.585 322.240,162.972 323.185,163.264 323.900 C 163.556 324.615,163.931 325.200,164.098 325.200 C 164.264 325.200,164.400 325.560,164.400 326.000 C 164.400 326.440,164.580 326.800,164.800 326.800 C 165.020 326.800,165.200 327.034,165.200 327.320 C 165.200 328.056,166.141 329.993,166.500 329.997 C 166.665 329.999,166.800 330.360,166.800 330.800 C 166.800 331.240,166.980 331.600,167.200 331.600 C 167.420 331.600,167.600 331.960,167.600 332.400 C 167.600 332.840,167.780 333.200,168.000 333.200 C 168.220 333.200,168.400 333.560,168.400 334.000 C 168.400 334.440,168.550 334.800,168.732 334.800 C 168.915 334.800,169.320 335.295,169.632 335.900 C 169.945 336.505,170.515 337.349,170.900 337.775 C 171.285 338.202,171.600 338.695,171.600 338.871 C 171.600 339.222,172.507 340.390,173.900 341.832 C 174.395 342.344,174.800 342.952,174.800 343.182 C 174.800 343.412,174.980 343.600,175.200 343.600 C 175.420 343.600,175.600 343.783,175.600 344.007 C 175.600 344.515,180.404 349.600,180.885 349.600 C 181.078 349.600,181.673 350.037,182.207 350.571 C 182.741 351.105,183.723 351.864,184.389 352.257 C 185.055 352.651,185.600 353.114,185.600 353.286 C 185.600 353.459,185.960 353.600,186.400 353.600 C 186.840 353.600,187.200 353.780,187.200 354.000 C 187.200 354.220,187.560 354.400,188.000 354.400 C 188.440 354.400,188.800 354.580,188.800 354.800 C 188.800 355.020,189.340 355.200,190.000 355.200 C 190.660 355.200,191.200 355.380,191.200 355.600 C 191.200 355.820,191.729 356.000,192.376 356.000 C 193.023 356.000,193.664 356.180,193.800 356.400 C 193.947 356.638,196.463 356.800,200.000 356.800 C 203.537 356.800,206.053 356.638,206.200 356.400 C 206.336 356.180,206.977 356.000,207.624 356.000 C 208.271 356.000,208.800 355.820,208.800 355.600 C 208.800 355.380,209.340 355.200,210.000 355.200 C 210.660 355.200,211.200 355.020,211.200 354.800 C 211.200 354.580,211.560 354.400,212.000 354.400 C 212.440 354.400,212.800 354.220,212.800 354.000 C 212.800 353.780,213.120 353.600,213.512 353.600 C 213.903 353.600,214.483 353.240,214.800 352.800 C 215.117 352.360,215.631 352.000,215.941 352.000 C 216.252 352.000,216.797 351.676,217.153 351.281 C 217.509 350.886,218.430 350.128,219.200 349.596 C 221.116 348.275,225.183 343.856,225.195 343.082 C 225.198 342.907,225.605 342.344,226.100 341.832 C 227.419 340.467,228.130 339.524,228.768 338.294 C 229.080 337.692,229.485 337.200,229.668 337.200 C 229.850 337.200,230.000 336.880,230.000 336.488 C 230.000 336.097,230.360 335.517,230.800 335.200 C 231.240 334.883,231.600 334.303,231.600 333.912 C 231.600 333.520,231.780 333.200,232.000 333.200 C 232.220 333.200,232.400 332.840,232.400 332.400 C 232.400 331.960,232.580 331.600,232.800 331.600 C 233.020 331.600,233.200 331.240,233.200 330.800 C 233.200 330.360,233.335 329.999,233.500 329.997 C 233.859 329.993,234.800 328.056,234.800 327.320 C 234.800 327.034,234.980 326.800,235.200 326.800 C 235.420 326.800,235.600 326.440,235.600 326.000 C 235.600 325.560,235.736 325.200,235.902 325.200 C 236.069 325.200,236.440 324.615,236.729 323.900 C 237.017 323.185,237.421 322.287,237.626 321.905 C 237.832 321.523,238.000 320.938,238.000 320.605 C 238.000 320.272,238.180 320.000,238.400 320.000 C 238.620 320.000,238.800 319.550,238.800 319.000 C 238.800 318.450,238.980 318.000,239.200 318.000 C 239.420 318.000,239.600 317.561,239.600 317.024 C 239.600 316.487,239.780 315.936,240.000 315.800 C 240.220 315.664,240.400 315.113,240.400 314.576 C 240.400 314.039,240.557 313.600,240.748 313.600 C 240.940 313.600,241.218 312.684,241.367 311.565 C 241.515 310.446,241.809 309.186,242.018 308.765 C 242.228 308.344,242.580 307.642,242.800 307.205 C 243.020 306.768,243.200 305.958,243.200 305.405 C 243.200 304.852,243.360 304.400,243.556 304.400 C 243.752 304.400,244.022 303.770,244.156 303.000 C 244.290 302.230,244.510 300.970,244.644 300.200 C 244.778 299.430,245.048 298.800,245.244 298.800 C 245.440 298.800,245.600 298.080,245.600 297.200 C 245.600 296.320,245.780 295.600,246.000 295.600 C 246.220 295.600,246.400 294.880,246.400 294.000 C 246.400 293.120,246.580 292.400,246.800 292.400 C 247.020 292.400,247.200 291.680,247.200 290.800 C 247.200 289.920,247.380 289.200,247.600 289.200 C 247.820 289.200,248.000 288.390,248.000 287.400 C 248.000 286.410,248.165 285.600,248.367 285.600 C 248.569 285.600,248.712 284.385,248.686 282.900 C 248.659 281.415,248.853 279.210,249.117 278.000 C 249.380 276.790,249.713 274.848,249.856 273.684 C 250.047 272.127,250.367 271.370,251.066 270.820 C 251.705 270.317,251.850 270.012,251.508 269.888 C 251.100 269.741,251.099 269.538,251.500 268.858 C 251.775 268.392,252.000 267.029,252.000 265.829 C 252.000 264.629,252.180 263.536,252.400 263.400 C 252.620 263.264,252.800 261.939,252.800 260.456 C 252.800 258.973,252.967 257.589,253.171 257.380 C 253.516 257.026,253.643 255.767,254.233 246.800 C 254.356 244.930,254.624 243.229,254.828 243.020 C 255.033 242.811,255.200 240.575,255.200 238.051 C 255.200 234.416,255.332 233.317,255.837 232.759 C 256.425 232.109,256.414 232.071,255.692 232.260 C 254.556 232.557,254.391 231.421,254.819 226.253 C 255.021 223.804,255.190 220.666,255.193 219.280 C 255.201 216.506,256.015 214.419,257.110 214.368 C 257.528 214.349,257.603 214.257,257.300 214.135 C 256.913 213.979,256.800 210.732,256.800 199.799 C 256.800 188.327,256.692 185.452,256.227 184.532 C 255.036 182.177,254.558 167.556,255.696 168.259 C 255.999 168.447,256.027 168.294,255.786 167.766 C 255.593 167.345,255.296 164.930,255.125 162.400 C 254.588 154.456,254.094 149.662,252.795 139.800 C 252.564 138.040,252.275 135.520,252.153 134.200 C 252.032 132.880,251.768 131.629,251.566 131.420 C 251.365 131.211,251.200 130.716,251.200 130.320 C 251.200 129.301,250.436 129.417,245.218 131.225 M74.514 135.000 C 74.517 136.100,74.595 136.503,74.687 135.895 C 74.779 135.286,74.777 134.386,74.682 133.895 C 74.587 133.403,74.511 133.900,74.514 135.000 M176.200 140.285 C 176.640 140.391,177.171 140.640,177.380 140.839 C 177.589 141.037,177.949 141.194,178.180 141.187 C 178.411 141.180,178.251 140.910,177.824 140.587 C 177.396 140.264,176.676 140.021,176.224 140.046 C 175.420 140.092,175.420 140.097,176.200 140.285 M210.800 156.997 C 210.800 157.064,211.565 157.504,212.500 157.975 C 214.067 158.763,214.122 158.768,213.200 158.036 C 212.309 157.329,210.800 156.676,210.800 156.997 M239.746 174.202 C 241.205 174.963,241.575 174.968,240.576 174.213 C 240.149 173.890,239.530 173.621,239.200 173.615 C 238.870 173.610,239.116 173.874,239.746 174.202 M156.800 175.722 C 156.250 175.979,155.620 176.338,155.400 176.519 C 155.180 176.701,154.522 177.153,153.937 177.525 C 150.635 179.623,145.653 183.137,144.709 184.033 L 143.618 185.069 143.590 199.977 L 143.562 214.884 144.481 216.000 C 145.475 217.207,156.500 224.800,157.259 224.800 C 157.605 224.800,157.643 221.951,157.413 213.500 C 157.043 199.971,157.255 178.532,157.784 175.900 C 157.862 175.515,157.897 175.212,157.863 175.227 C 157.828 175.242,157.350 175.465,156.800 175.722 M98.400 175.902 C 98.400 176.099,98.890 176.697,99.488 177.230 C 100.286 177.942,100.419 177.987,99.988 177.402 C 99.050 176.128,98.400 175.514,98.400 175.902 M83.579 181.378 C 84.107 181.940,84.600 182.400,84.673 182.400 C 85.034 182.400,83.739 180.785,83.218 180.586 C 82.888 180.459,83.051 180.816,83.579 181.378 M107.200 184.937 C 107.200 185.367,110.076 188.057,110.298 187.835 C 110.407 187.727,110.241 187.405,109.930 187.119 C 107.872 185.231,107.200 184.694,107.200 184.937 M282.400 187.367 C 282.400 187.788,283.605 188.928,283.821 188.712 C 283.922 188.611,283.644 188.202,283.202 187.802 C 282.761 187.403,282.400 187.207,282.400 187.367 M100.056 197.941 C 100.310 198.348,100.897 198.911,101.359 199.191 C 101.948 199.547,101.848 199.325,101.025 198.450 C 99.688 197.027,99.386 196.869,100.056 197.941 M298.278 200.966 C 298.895 201.497,299.470 201.862,299.557 201.776 C 299.751 201.583,297.921 200.032,297.478 200.013 C 297.300 200.006,297.660 200.435,298.278 200.966 M144.387 232.566 C 144.589 233.097,144.785 235.482,144.823 237.866 C 144.861 240.250,145.033 242.470,145.205 242.800 C 145.377 243.130,145.625 245.020,145.755 247.000 C 145.885 248.980,146.172 252.130,146.393 254.000 C 146.613 255.870,146.903 258.660,147.037 260.200 C 147.171 261.740,147.443 263.171,147.641 263.380 C 147.838 263.589,148.000 264.537,148.000 265.486 C 148.000 267.810,148.843 270.401,149.597 270.397 C 150.288 270.395,159.953 267.067,161.183 266.409 C 162.051 265.945,162.414 262.800,161.600 262.800 C 161.374 262.800,161.200 261.667,161.200 260.200 C 161.200 258.733,161.026 257.600,160.800 257.600 C 160.571 257.600,160.400 256.400,160.400 254.800 C 160.400 253.200,160.229 252.000,160.000 252.000 C 159.765 252.000,159.600 250.600,159.600 248.600 C 159.600 246.600,159.435 245.200,159.200 245.200 C 158.980 245.200,158.800 244.204,158.800 242.986 C 158.800 241.201,158.625 240.611,157.900 239.945 C 155.842 238.054,145.263 231.600,144.223 231.600 C 144.111 231.600,144.185 232.035,144.387 232.566 M191.346 244.602 C 191.976 244.931,192.696 245.199,192.946 245.198 C 193.196 245.196,192.884 244.926,192.254 244.598 C 191.624 244.269,190.904 244.001,190.654 244.002 C 190.404 244.004,190.716 244.274,191.346 244.602 M339.044 259.400 C 339.373 260.871,339.602 261.190,339.594 260.167 C 339.591 259.745,339.405 259.130,339.182 258.800 C 338.885 258.362,338.848 258.524,339.044 259.400 M220.176 273.378 C 220.604 273.720,221.234 273.986,221.576 273.968 C 222.115 273.941,222.118 273.907,221.600 273.714 C 221.270 273.592,220.640 273.326,220.200 273.124 C 219.413 272.762,219.412 272.766,220.176 273.378 M286.033 278.543 C 286.125 278.621,286.830 278.801,287.600 278.942 C 288.585 279.123,288.822 279.082,288.400 278.806 C 287.858 278.450,285.637 278.203,286.033 278.543 M310.200 278.800 C 309.908 279.273,310.299 279.273,311.400 278.800 C 312.171 278.469,312.169 278.455,311.324 278.428 C 310.842 278.413,310.336 278.580,310.200 278.800 M295.633 279.363 C 295.950 279.672,298.758 279.775,299.045 279.488 C 299.204 279.330,298.463 279.200,297.400 279.200 C 296.337 279.200,295.542 279.273,295.633 279.363 M300.445 279.598 C 300.750 279.758,301.900 279.757,303.000 279.596 L 305.000 279.303 302.445 279.305 C 301.040 279.306,300.140 279.438,300.445 279.598 M268.800 289.994 C 269.130 290.211,269.835 290.391,270.367 290.394 C 271.651 290.402,271.325 290.175,269.600 289.858 C 268.615 289.677,268.378 289.718,268.800 289.994 " stroke="none" fill="#fcc31b" fill-rule="evenodd"></path></g></svg>