<?xml version="1.0" standalone="no"?>
<!DOCTYPE svg PUBLIC "-//W3C//DTD SVG 20010904//EN"
 "http://www.w3.org/TR/2001/REC-SVG-20010904/DTD/svg10.dtd">
<svg version="1.0" xmlns="http://www.w3.org/2000/svg"
 width="32.000000pt" height="32.000000pt" viewBox="0 0 32.000000 32.000000"
 preserveAspectRatio="xMidYMid meet">

<g transform="translate(0.000000,32.000000) scale(0.100000,-0.100000)"
fill="#000000" stroke="none">
<path d="M10 160 l0 -160 150 0 150 0 0 160 0 160 -150 0 -150 0 0 -160z m195
139 c40 -11 75 -35 75 -51 0 -4 -13 -16 -28 -26 -15 -9 -26 -24 -24 -33 1 -9
-4 -22 -13 -29 -19 -16 -22 -120 -3 -120 9 0 9 -3 1 -11 -18 -18 -128 -6 -153
16 -17 16 -20 30 -20 114 0 53 4 102 9 109 7 12 79 40 106 41 6 1 28 -4 50
-10z"/>
</g>
</svg>
