<?xml version="1.0" standalone="no"?>
<!DOCTYPE svg PUBLIC "-//W3C//DTD SVG 20010904//EN"
 "http://www.w3.org/TR/2001/REC-SVG-20010904/DTD/svg10.dtd">
<svg version="1.0" xmlns="http://www.w3.org/2000/svg"
 width="32.000000pt" height="32.000000pt" viewBox="0 0 32.000000 32.000000"
 preserveAspectRatio="xMidYMid meet">

<g transform="translate(0.000000,32.000000) scale(0.100000,-0.100000)"
fill="#000000" stroke="none">
<path d="M0 269 c0 -31 4 -48 10 -44 6 4 8 10 5 15 -3 5 9 25 26 44 l31 36
-36 0 -36 0 0 -51z"/>
<path d="M258 313 c6 -2 9 -10 6 -15 -4 -7 -2 -8 4 -4 7 4 20 -6 32 -26 l20
-33 0 43 0 42 -37 -1 c-21 0 -32 -3 -25 -6z"/>
<path d="M42 232 c-10 -18 -23 -27 -32 -24 -13 5 -13 3 -1 -11 10 -13 11 -24
2 -48 -6 -18 -11 -58 -11 -90 l0 -59 160 0 160 0 0 58 c0 38 -3 52 -9 43 -5
-8 -18 -16 -28 -17 -16 -2 -16 -1 -2 9 9 7 14 18 11 26 -2 8 0 11 5 8 19 -12
-3 94 -24 114 l-20 21 -7 -26 c-5 -19 -13 -26 -31 -26 -13 0 -27 -4 -30 -10
-8 -13 -45 -13 -45 -1 0 5 -12 11 -27 13 -20 2 -29 9 -31 26 -5 30 -19 28 -40
-6z m136 -64 c-6 -18 -28 -21 -28 -4 0 9 7 16 16 16 9 0 14 -5 12 -12z m-41
-24 c3 -8 -2 -26 -12 -40 -13 -20 -19 -23 -30 -14 -14 12 -36 66 -29 72 9 10
66 -5 71 -18z m123 3 c0 -23 -25 -67 -38 -67 -13 0 -41 55 -34 67 7 10 31 19
60 22 6 0 12 -9 12 -22z m-233 -21 c-3 -8 -1 -17 6 -20 7 -2 4 -5 -5 -5 -18
-1 -24 19 -11 32 11 11 15 8 10 -7z m28 -46 c8 -13 -5 -13 -25 0 -13 8 -13 10
2 10 9 0 20 -4 23 -10z"/>
</g>
</svg>
