<?xml version="1.0" standalone="no"?>
<!DOCTYPE svg PUBLIC "-//W3C//DTD SVG 20010904//EN"
 "http://www.w3.org/TR/2001/REC-SVG-20010904/DTD/svg10.dtd">
<svg version="1.0" xmlns="http://www.w3.org/2000/svg"
 width="120.000000pt" height="120.000000pt" viewBox="0 0 120.000000 120.000000"
 preserveAspectRatio="xMidYMid meet">
<metadata>
Created by potrace 1.15, written by Peter Selinger 2001-2017
</metadata>
<g transform="translate(0.000000,120.000000) scale(0.100000,-0.100000)"
fill="#000000" stroke="none">
<path d="M441 1184 c-104 -28 -181 -74 -266 -159 -123 -123 -175 -249 -175
-425 0 -173 52 -302 170 -421 82 -82 175 -137 276 -164 75 -19 233 -19 308 0
204 53 377 227 430 432 20 77 21 231 1 306 -54 206 -225 378 -430 432 -75 19
-241 19 -314 -1z m107 -199 c47 -14 57 -14 108 1 75 22 131 14 224 -30 63 -30
98 -40 153 -45 4 -1 7 -136 7 -301 0 -233 -3 -300 -12 -301 -42 -4 -82 7 -152
38 -99 44 -149 51 -217 28 -50 -16 -56 -16 -107 0 -70 23 -120 16 -223 -28
-46 -20 -100 -37 -119 -39 l-35 -3 0 305 0 304 34 3 c18 2 68 18 110 37 114
51 146 55 229 31z"/>
<path d="M410 961 c-14 -4 -48 -19 -75 -33 -28 -15 -69 -31 -93 -37 l-42 -12
0 -269 c0 -314 -11 -293 122 -233 87 39 161 49 236 30 l32 -9 0 271 0 271 -27
11 c-38 15 -123 20 -153 10z"/>
<path d="M665 956 l-40 -12 -3 -273 -2 -273 27 8 c16 5 57 9 93 8 53 0 79 -7
144 -37 43 -20 89 -37 102 -37 l24 0 0 269 0 269 -31 7 c-17 4 -71 25 -119 46
-92 41 -128 46 -195 25z m215 -336 l0 -90 26 0 c16 0 24 -5 22 -12 -3 -9 -35
-14 -101 -16 -82 -2 -97 0 -97 13 0 9 9 15 25 15 24 0 25 2 25 74 0 69 -2 75
-22 78 -12 2 -23 9 -26 16 -3 9 16 12 72 12 l76 0 0 -90z"/>
</g>
</svg>
