<?xml version="1.0" standalone="no"?>
<!DOCTYPE svg PUBLIC "-//W3C//DTD SVG 20010904//EN"
 "http://www.w3.org/TR/2001/REC-SVG-20010904/DTD/svg10.dtd">
<svg version="1.0" xmlns="http://www.w3.org/2000/svg"
 width="120.000000pt" height="60.000000pt" viewBox="0 0 120.000000 60.000000"
 preserveAspectRatio="xMidYMid meet">
<metadata>
Created by potrace 1.15, written by Peter Selinger 2001-2017
</metadata>
<g transform="translate(0.000000,60.000000) scale(0.100000,-0.100000)"
fill="#000000" stroke="none">
<path d="M20 300 l0 -280 38 0 c49 0 72 24 72 73 0 34 -2 37 -30 37 -18 0 -30
5 -30 13 0 20 30 57 46 57 12 0 14 29 14 175 l0 175 180 0 180 0 0 -110 0
-110 -32 0 c-26 0 -39 8 -61 35 l-28 36 -81 -3 -80 -3 -21 -37 c-28 -48 -13
-62 21 -20 16 19 36 32 50 32 27 0 27 2 2 -51 -11 -24 -20 -65 -20 -91 l0 -48
-64 0 c-44 0 -67 -5 -76 -15 -11 -13 -1 -15 78 -15 100 0 102 1 102 73 0 51 7
45 62 -58 32 -60 49 -81 66 -83 21 -3 20 1 -24 91 -47 94 -50 117 -25 157 9
12 14 11 34 -8 15 -14 36 -22 60 -22 l37 0 0 -128 c0 -86 -4 -132 -12 -140 -9
-9 67 -12 345 -12 l357 0 0 280 0 280 -580 0 -580 0 0 -280z m990 99 c55 -51
100 -95 100 -99 0 -5 -42 -47 -92 -94 l-93 -86 -79 0 -79 0 64 60 64 59 -107
1 -108 0 0 60 0 60 108 0 107 1 -63 58 c-34 31 -59 60 -56 64 4 4 36 7 70 7
l64 0 100 -91z"/>
</g>
</svg>
