<?xml version="1.0" standalone="no"?>
<!DOCTYPE svg PUBLIC "-//W3C//DTD SVG 20010904//EN"
 "http://www.w3.org/TR/2001/REC-SVG-20010904/DTD/svg10.dtd">
<svg version="1.0" xmlns="http://www.w3.org/2000/svg"
 width="32.000000pt" height="32.000000pt" viewBox="0 0 32.000000 32.000000"
 preserveAspectRatio="xMidYMid meet">

<g transform="translate(0.000000,32.000000) scale(0.100000,-0.100000)"
fill="#000000" stroke="none">
<path d="M61 285 c-36 -42 -39 -71 -11 -125 11 -22 20 -56 20 -77 1 -58 27
-83 89 -83 59 0 81 22 81 82 0 57 18 88 52 88 18 0 28 5 28 15 0 10 -10 15
-29 15 -22 0 -31 7 -40 28 -7 15 -25 42 -41 60 -25 27 -37 32 -74 32 -38 0
-48 -5 -75 -35z m126 -19 c15 -13 26 -26 23 -29 -3 -3 -21 8 -40 24 -19 16
-29 29 -23 29 7 0 25 -11 40 -24z"/>
</g>
</svg>
