<?xml version="1.0" standalone="no"?>
<!DOCTYPE svg PUBLIC "-//W3C//DTD SVG 20010904//EN"
 "http://www.w3.org/TR/2001/REC-SVG-20010904/DTD/svg10.dtd">
<svg version="1.0" xmlns="http://www.w3.org/2000/svg"
 width="120.000000pt" height="120.000000pt" viewBox="0 0 120.000000 120.000000"
 preserveAspectRatio="xMidYMid meet">
<metadata>
Created by potrace 1.15, written by Peter Selinger 2001-2017
</metadata>
<g transform="translate(0.000000,120.000000) scale(0.100000,-0.100000)"
fill="#000000" stroke="none">
<path d="M443 1185 c-205 -56 -374 -226 -427 -432 -21 -78 -21 -228 0 -306 54
-208 223 -378 431 -432 73 -19 233 -19 306 0 208 54 377 224 431 432 20 77 21
231 1 306 -54 207 -225 378 -432 432 -72 19 -240 19 -310 0z m254 -145 c19 -7
57 -42 97 -90 l66 -79 -19 -60 c-18 -59 -18 -61 -1 -61 11 0 22 -5 25 -10 10
-16 -35 -143 -55 -160 -10 -8 -24 -34 -30 -58 -6 -24 -27 -61 -47 -82 -28 -32
-38 -38 -53 -30 -24 13 -136 13 -160 0 -25 -14 -86 55 -102 116 -7 25 -20 50
-30 55 -19 10 -64 142 -53 159 3 5 15 10 25 10 17 0 17 3 4 53 -7 28 -14 62
-14 73 0 38 60 101 120 125 30 12 64 31 75 41 16 16 29 19 71 14 27 -3 64 -11
81 -16z m-13 -642 c14 -6 33 -22 41 -35 17 -26 9 -29 -19 -8 -11 8 -25 15 -30
15 -6 0 3 -9 20 -19 42 -26 47 -34 61 -101 6 -32 -28 -77 -73 -96 -43 -18
-125 -18 -168 0 -45 19 -79 64 -73 96 11 51 13 60 22 67 4 4 5 2 1 -4 -10 -19
-1 -16 15 4 8 9 9 14 2 10 -6 -4 -13 -1 -16 5 -7 20 11 46 41 62 33 18 141 21
176 4z"/>
<path d="M499 970 c-17 -19 -36 -30 -53 -30 -45 0 -64 -45 -58 -136 5 -74 4
-76 -17 -69 -26 8 -28 -11 -5 -81 22 -67 34 -76 34 -29 0 62 27 187 42 196 17
11 299 11 316 0 15 -9 42 -134 42 -195 0 -50 9 -41 32 32 23 76 23 85 -3 77
-20 -7 -21 -5 -15 26 21 105 20 118 -10 150 -34 35 -93 74 -101 66 -3 -3 -17
-1 -31 4 -22 8 -23 8 -12 -6 10 -12 10 -15 -2 -15 -14 0 -82 19 -118 33 -9 4
-25 -5 -41 -23z"/>
<path d="M444 769 c-13 -14 -19 -36 -19 -66 0 -37 5 -49 28 -69 46 -39 94 -29
117 26 15 35 7 86 -17 112 -23 26 -84 24 -109 -3z m106 -16 c38 -48 6 -133
-49 -133 -29 0 -65 47 -65 85 0 71 72 101 114 48z"/>
<path d="M640 763 c-29 -36 -23 -108 10 -135 68 -55 159 38 116 120 -27 52
-91 59 -126 15z m105 -3 c29 -32 25 -88 -9 -116 -34 -30 -51 -30 -81 1 -31 30
-32 73 -4 109 25 32 68 35 94 6z"/>
</g>
</svg>
